SplineFontDB: 3.0
FontName: Pragati-Bold
FullName: Pragati Bold
FamilyName: Pragati
Weight: Bold
Copyright: Copyright (c) 2012-2015, Omnibus-Type (www.omnibus-type.com omnibus.type@gmail.com)
Version: 001.005
ItalicAngle: 0
UnderlinePosition: -50
UnderlineWidth: 50
Ascent: 800
Descent: 200
InvalidEm: 0
sfntRevision: 0x00010147
LayerCount: 2
Layer: 0 0 "Back" 1
Layer: 1 0 "Fore" 0
XUID: [1021 505 -982332716 3987869]
FSType: 0
OS2Version: 3
OS2_WeightWidthSlopeOnly: 0
OS2_UseTypoMetrics: 1
CreationTime: 1422321556
ModificationTime: 1422350681
PfmFamily: 17
TTFWeight: 700
TTFWidth: 5
LineGap: 0
VLineGap: 0
Panose: 2 11 8 6 2 2 2 2 11 4
OS2TypoAscent: 733
OS2TypoAOffset: 0
OS2TypoDescent: -267
OS2TypoDOffset: 0
OS2TypoLinegap: 0
OS2WinAscent: 733
OS2WinAOffset: 0
OS2WinDescent: 267
OS2WinDOffset: 0
HheadAscent: 733
HheadAOffset: 0
HheadDescent: -267
HheadDOffset: 0
OS2SubXSize: 428
OS2SubYSize: 395
OS2SubXOff: 0
OS2SubYOff: 49
OS2SupXSize: 428
OS2SupYSize: 395
OS2SupXOff: 0
OS2SupYOff: 230
OS2StrikeYSize: 50
OS2StrikeYPos: 183
OS2CapHeight: 0
OS2XHeight: 0
OS2Vendor: 'OMNI'
OS2CodePages: 20000093.00000000
OS2UnicodeRanges: 00008007.00000000.00000000.00000000
Lookup: 1 0 0 "'aalt' Access All Alternates lookup 0" { "'aalt' Access All Alternates lookup 0 subtable"  } ['aalt' ('DFLT' <'dflt' > 'dev2' <'MAR ' 'NEP ' 'dflt' > 'deva' <'MAR ' 'NEP ' 'dflt' > 'grek' <'dflt' > 'latn' <'CAT ' 'MOL ' 'ROM ' 'dflt' > ) ]
Lookup: 3 0 0 "'aalt' Access All Alternates lookup 1" { "'aalt' Access All Alternates lookup 1 subtable"  } ['aalt' ('DFLT' <'dflt' > 'dev2' <'MAR ' 'NEP ' 'dflt' > 'deva' <'MAR ' 'NEP ' 'dflt' > 'grek' <'dflt' > 'latn' <'CAT ' 'MOL ' 'ROM ' 'dflt' > ) ]
Lookup: 4 0 0 "Ligature Substitution lookup 2" { "Ligature Substitution lookup 2 subtable"  } []
Lookup: 4 0 0 "Ligature Substitution lookup 3" { "Ligature Substitution lookup 3 subtable"  } []

StartChar: .notdef
Encoding: 65536 -1 0
Width: 291
VWidth: 659
Flags: MW
HStem: 0 29<47 244 47 291> 379 29<47 244 47 47>
VStem: 0 29<55 353 55 408> 262 29<55 353 353 353>
LayerCount: 2
Back
Fore
SplineSet
0 0 m 1
 0 408 l 1
 291 408 l 1
 291 0 l 1
 0 0 l 1
146 230 m 1
 244 379 l 1
 47 379 l 1
 146 230 l 1
128 204 m 1
 29 353 l 1
 29 55 l 1
 128 204 l 1
262 55 m 1
 262 353 l 1
 163 204 l 1
 262 55 l 1
244 29 m 1
 146 178 l 1
 47 29 l 1
 244 29 l 1
EndSplineSet
EndChar

StartChar: A
Encoding: 65 65 2
Width: 345
VWidth: 659
GlyphClass: 2
Flags: MW
HStem: 0 145<0 223 0 223 117 344 117 268> 78 67<117 223 117 244 96 223> 333 66<169 169 169 171> 379 20G<129 215 215 215>
VStem: 0 344<0 0>
AnchorPoint: "Anchor-1" 0 0 basechar 0
AnchorPoint: "Anchor-0" 173 399 basechar 0
LayerCount: 2
Back
Fore
SplineSet
344 0 m 1x98
 268 0 l 1xa8
 244 78 l 1
 96 78 l 1x58
 72 0 l 1
 0 0 l 1
 129 399 l 1
 215 399 l 1
 344 0 l 1x98
169 333 m 1
 169 333 163 297 158 279 c 2
 117 145 l 1
 223 145 l 1x68
 183 279 l 2
 177 299 171 333 171 333 c 1
 169 333 l 1
EndSplineSet
Substitution2: "Single Substitution lookup 42 subtable" ordfeminine
Substitution2: "'aalt' Access All Alternates lookup 0 subtable" ordfeminine
Position2: "'cpsp' Capital Spacing lookup 0 subtable" dx=5 dy=0 dh=10 dv=0
EndChar

StartChar: Aacute
Encoding: 193 193 3
Width: 345
VWidth: 659
GlyphClass: 2
Flags: MW
HStem: 0 145<0 223 0 223 117 344 117 268> 78 67<117 223 117 244 96 223> 333 66<169 169 169 171> 379 20G<129 215 215 215> 438 77<183 190 132 252>
VStem: 0 344<0 0>
LayerCount: 2
Back
Fore
SplineSet
253 513 m 1x5c
 190 438 l 1
 132 438 l 1
 183 515 l 1
 252 515 l 1
 253 513 l 1x5c
344 0 m 1x9c
 268 0 l 1xac
 244 78 l 1
 96 78 l 1x5c
 72 0 l 1
 0 0 l 1
 129 399 l 1
 215 399 l 1
 344 0 l 1x9c
169 333 m 1
 169 333 163 297 158 279 c 2
 117 145 l 1
 223 145 l 1x6c
 183 279 l 2
 177 299 171 333 171 333 c 1
 169 333 l 1
EndSplineSet
Position2: "'cpsp' Capital Spacing lookup 0 subtable" dx=5 dy=0 dh=10 dv=0
EndChar

StartChar: Abreve
Encoding: 258 258 4
Width: 345
VWidth: 659
GlyphClass: 2
Flags: MW
HStem: 0 145<0 223 0 223 117 344 117 268> 78 67<117 223 117 244 96 223> 333 66<169 169 169 171> 379 20G<129 215 215 215> 452 63<95 196>
VStem: 0 344<0 0>
LayerCount: 2
Back
Fore
SplineSet
250 515 m 1x5c
 250 485 220 452 172 452 c 0
 124 452 95 485 95 515 c 1
 138 515 l 1
 140 506 153 495 172 495 c 0
 192 495 206 506 207 515 c 1
 250 515 l 1x5c
344 0 m 1x9c
 268 0 l 1xac
 244 78 l 1
 96 78 l 1x5c
 72 0 l 1
 0 0 l 1
 129 399 l 1
 215 399 l 1
 344 0 l 1x9c
169 333 m 1
 169 333 163 297 158 279 c 2
 117 145 l 1
 223 145 l 1x6c
 183 279 l 2
 177 299 171 333 171 333 c 1
 169 333 l 1
EndSplineSet
Position2: "'cpsp' Capital Spacing lookup 0 subtable" dx=5 dy=0 dh=10 dv=0
EndChar

StartChar: Acircumflex
Encoding: 194 194 5
Width: 345
VWidth: 659
GlyphClass: 2
Flags: MW
HStem: 0 145<0 223 0 223 117 344 117 268> 78 67<117 223 117 244 96 223> 333 66<169 169 169 171> 379 20G<129 215 215 215> 436 79<144 146 94 202 198 202 144 251 198 198>
VStem: 0 344<0 0>
LayerCount: 2
Back
Fore
SplineSet
251 436 m 1x5c
 198 436 l 1
 173 476 l 1
 146 436 l 1
 94 436 l 1
 144 515 l 1
 202 515 l 1
 251 436 l 1x5c
344 0 m 1x9c
 268 0 l 1xac
 244 78 l 1
 96 78 l 1x5c
 72 0 l 1
 0 0 l 1
 129 399 l 1
 215 399 l 1
 344 0 l 1x9c
169 333 m 1
 169 333 163 297 158 279 c 2
 117 145 l 1
 223 145 l 1x6c
 183 279 l 2
 177 299 171 333 171 333 c 1
 169 333 l 1
EndSplineSet
Position2: "'cpsp' Capital Spacing lookup 0 subtable" dx=5 dy=0 dh=10 dv=0
EndChar

StartChar: Adieresis
Encoding: 196 196 6
Width: 345
VWidth: 659
GlyphClass: 2
Flags: MW
HStem: 0 145<0 223 0 223 117 344 117 268> 78 67<117 223 117 244 96 223> 333 66<169 169 169 171> 379 20G<129 215 215 215> 451 64<93 151 93 151 93 194 194 253>
VStem: 93 58<451 515> 194 59<451 515>
LayerCount: 2
Back
Fore
SplineSet
151 451 m 1x5e
 93 451 l 1
 93 515 l 1
 151 515 l 1
 151 451 l 1x5e
253 451 m 1
 194 451 l 1
 194 515 l 1
 253 515 l 1
 253 451 l 1
344 0 m 1x9e
 268 0 l 1xae
 244 78 l 1
 96 78 l 1x5e
 72 0 l 1
 0 0 l 1
 129 399 l 1
 215 399 l 1
 344 0 l 1x9e
169 333 m 1
 169 333 163 297 158 279 c 2
 117 145 l 1
 223 145 l 1x6e
 183 279 l 2
 177 299 171 333 171 333 c 1
 169 333 l 1
EndSplineSet
Position2: "'cpsp' Capital Spacing lookup 0 subtable" dx=5 dy=0 dh=10 dv=0
EndChar

StartChar: Agrave
Encoding: 192 192 7
Width: 345
VWidth: 659
GlyphClass: 2
Flags: MW
HStem: 0 145<0 223 0 223 117 344 117 268> 78 67<117 223 117 244 96 223> 333 66<169 169 169 171> 379 20G<129 215 215 215> 438 77<155 163 93 213 155 155>
VStem: 0 344<0 0>
LayerCount: 2
Back
Fore
SplineSet
213 438 m 1x5c
 155 438 l 1
 92 513 l 1
 93 515 l 1
 163 515 l 1
 213 438 l 1x5c
344 0 m 1x9c
 268 0 l 1xac
 244 78 l 1
 96 78 l 1x5c
 72 0 l 1
 0 0 l 1
 129 399 l 1
 215 399 l 1
 344 0 l 1x9c
169 333 m 1
 169 333 163 297 158 279 c 2
 117 145 l 1
 223 145 l 1x6c
 183 279 l 2
 177 299 171 333 171 333 c 1
 169 333 l 1
EndSplineSet
Position2: "'cpsp' Capital Spacing lookup 0 subtable" dx=5 dy=0 dh=10 dv=0
EndChar

StartChar: Amacron
Encoding: 256 256 8
Width: 345
VWidth: 659
GlyphClass: 2
Flags: MW
HStem: 0 145<0 223 0 223 117 344 117 268> 78 67<117 223 117 244 96 223> 333 66<169 169 169 171> 379 20G<129 215 215 215> 442 51<98 247 98 247>
VStem: 98 149<442 493 442 493>
LayerCount: 2
Back
Fore
SplineSet
247 442 m 1x5c
 98 442 l 1
 98 493 l 1
 247 493 l 1
 247 442 l 1x5c
344 0 m 1x9c
 268 0 l 1xac
 244 78 l 1
 96 78 l 1x5c
 72 0 l 1
 0 0 l 1
 129 399 l 1
 215 399 l 1
 344 0 l 1x9c
169 333 m 1
 169 333 163 297 158 279 c 2
 117 145 l 1
 223 145 l 1x6c
 183 279 l 2
 177 299 171 333 171 333 c 1
 169 333 l 1
EndSplineSet
Position2: "'cpsp' Capital Spacing lookup 0 subtable" dx=5 dy=0 dh=10 dv=0
EndChar

StartChar: Aogonek
Encoding: 260 260 9
Width: 345
VWidth: 659
GlyphClass: 2
Flags: MW
HStem: -111 40<314.5 366> -103 21G<366 366> 0 145<0 223 0 223 117 296 117 268 117 344> 78 67<117 223 117 244 96 223> 333 66<169 171 169 169> 379 20G<129 215 215 215>
VStem: 270 57<-48.5 -45>
LayerCount: 2
Back
Fore
SplineSet
353 -71 m 2xa6
 366 -71 l 1x9a
 366 -103 l 1
 353 -108 340 -111 328 -111 c 0
 301 -111 270 -98 270 -58 c 0
 270 -32 281 -18 293 -4 c 0
 294 -3 295 -1 296 0 c 2
 268 0 l 1x66
 244 78 l 1
 96 78 l 1x56
 72 0 l 1
 0 0 l 1
 129 399 l 1
 215 399 l 1
 344 0 l 1
 337 -7 327 -22 327 -41 c 0
 327 -56 334 -71 353 -71 c 2xa6
117 145 m 1
 223 145 l 1
 183 279 l 2
 177 299 171 333 171 333 c 1
 169 333 l 1
 169 333 163 297 158 279 c 2
 117 145 l 1
EndSplineSet
Position2: "'cpsp' Capital Spacing lookup 0 subtable" dx=5 dy=0 dh=10 dv=0
EndChar

StartChar: Aring
Encoding: 197 197 10
Width: 345
VWidth: 659
GlyphClass: 2
Flags: MW
HStem: 0 145<0 223 0 223 117 344 117 268> 78 67<117 223 117 244 96 223> 333 66<169 169 169 171> 379 20G<129 215 215 215> 420 29<165.5 180 165.5 188.5> 503 29<165.5 180>
VStem: 117 29<468.5 483.5 468.5 491.5> 199 30<468.5 483.5>
LayerCount: 2
Back
Fore
SplineSet
173 532 m 0x57
 204 532 229 506 229 476 c 0
 229 445 204 420 173 420 c 0x5f
 142 420 117 444 117 476 c 0
 117 507 142 532 173 532 c 0x57
173 503 m 0
 158 503 146 491 146 476 c 0
 146 461 158 449 173 449 c 0x5f
 187 449 199 461 199 476 c 0
 199 491 187 503 173 503 c 0
344 0 m 1x97
 268 0 l 1xa7
 244 78 l 1
 96 78 l 1x57
 72 0 l 1
 0 0 l 1
 129 399 l 1
 215 399 l 1
 344 0 l 1x97
169 333 m 1
 169 333 163 297 158 279 c 2
 117 145 l 1
 223 145 l 1x67
 183 279 l 2
 177 299 171 333 171 333 c 1
 169 333 l 1
EndSplineSet
Position2: "'cpsp' Capital Spacing lookup 0 subtable" dx=5 dy=0 dh=10 dv=0
EndChar

StartChar: Aringacute
Encoding: 506 506 11
Width: 345
VWidth: 659
GlyphClass: 2
Flags: MW
HStem: 0 145<0 223 0 223 117 344 117 268> 78 67<117 223 117 244 96 223> 378 20G<165.5 180> 449 29<165.5 180> 494 64<188 205 148 258>
VStem: 117 29<418.5 431.5 416.5 439> 199 30<418.5 431.5>
LayerCount: 2
Back
Fore
SplineSet
205 494 m 1x6e
 148 494 l 1
 188 558 l 1
 258 558 l 1
 258 556 l 1
 205 494 l 1x6e
173 478 m 0xbe
 204 478 229 453 229 424 c 0
 229 413 224 401 218 392 c 1
 344 0 l 1
 268 0 l 1xbe
 244 78 l 1
 96 78 l 1x6e
 72 0 l 1
 0 0 l 1
 127 393 l 1
 120 401 117 413 117 424 c 0
 117 454 142 478 173 478 c 0xbe
173 449 m 0
 158 449 146 439 146 424 c 0
 146 409 158 398 173 398 c 0x6e
 187 398 199 409 199 424 c 0
 199 439 187 449 173 449 c 0
169 333 m 1
 169 333 163 297 158 279 c 2
 117 145 l 1
 223 145 l 1x6e
 183 279 l 2
 177 299 171 333 171 333 c 1
 169 333 l 1
EndSplineSet
Position2: "'cpsp' Capital Spacing lookup 0 subtable" dx=5 dy=0 dh=10 dv=0
EndChar

StartChar: Atilde
Encoding: 195 195 12
Width: 345
VWidth: 659
GlyphClass: 2
Flags: MW
HStem: 0 145<0 223 0 223 117 344 117 268> 78 67<117 223 117 244 96 223> 333 66<169 169 169 171> 379 20G<129 215 215 215> 444 71<111.5 113 74 139 232 233.5>
VStem: 0 344<0 0>
LayerCount: 2
Back
Fore
SplineSet
270 515 m 1x5c
 270 482 254 444 213 444 c 0
 199 444 186 449 173 455 c 0
 161 460 149 465 136 465 c 0
 123 465 115 459 113 444 c 1
 74 444 l 1
 74 475 91 515 132 515 c 0
 146 515 159 509 172 504 c 0
 184 498 196 493 209 493 c 0
 221 493 229 498 232 515 c 1
 270 515 l 1x5c
344 0 m 1x9c
 268 0 l 1xac
 244 78 l 1
 96 78 l 1x5c
 72 0 l 1
 0 0 l 1
 129 399 l 1
 215 399 l 1
 344 0 l 1x9c
169 333 m 1
 169 333 163 297 158 279 c 2
 117 145 l 1
 223 145 l 1x6c
 183 279 l 2
 177 299 171 333 171 333 c 1
 169 333 l 1
EndSplineSet
Position2: "'cpsp' Capital Spacing lookup 0 subtable" dx=5 dy=0 dh=10 dv=0
EndChar

StartChar: AE
Encoding: 198 198 13
Width: 478
VWidth: 659
GlyphClass: 2
Flags: MW
HStem: 0 67<320 453 320 453 260 453> 78 67<118 225 118 241 94 225> 171 67<295 424 295 295> 333 66<255 449 255 255>
VStem: -5 458<0 67>
AnchorPoint: "Anchor-1" 0 0 basechar 0
AnchorPoint: "Anchor-0" 239 399 basechar 0
LayerCount: 2
Back
Fore
SplineSet
449 333 m 1
 255 333 l 1
 279 238 l 1
 424 238 l 1
 424 171 l 1
 295 171 l 1
 320 67 l 1
 453 67 l 1
 453 0 l 1
 260 0 l 1xb8
 241 78 l 1
 94 78 l 1xf8
 65 0 l 1
 -5 0 l 1
 148 399 l 1
 449 399 l 1
 449 333 l 1
183 318 m 1
 180 313 179 309 177 304 c 0
 176 302 175 299 174 297 c 2
 118 145 l 1
 225 145 l 1xf8
 190 297 l 2
 188 304 186 311 185 318 c 1
 183 318 l 1
EndSplineSet
Position2: "'cpsp' Capital Spacing lookup 0 subtable" dx=5 dy=0 dh=10 dv=0
EndChar

StartChar: AEacute
Encoding: 508 508 14
Width: 478
VWidth: 659
GlyphClass: 2
Flags: MW
HStem: 0 67<320 453 320 453 260 453> 78 67<118 225 118 241 94 225> 171 67<295 424 295 295> 333 66<255 449 255 255> 438 77<248 256 198 319>
VStem: -5 458<0 67>
LayerCount: 2
Back
Fore
SplineSet
319 513 m 1
 256 438 l 1
 198 438 l 1
 248 515 l 1
 319 515 l 1
 319 513 l 1
449 333 m 1
 255 333 l 1
 279 238 l 1
 424 238 l 1
 424 171 l 1
 295 171 l 1
 320 67 l 1
 453 67 l 1
 453 0 l 1
 260 0 l 1xbc
 241 78 l 1
 94 78 l 1xfc
 65 0 l 1
 -5 0 l 1
 148 399 l 1
 449 399 l 1
 449 333 l 1
183 318 m 1
 179 309 175 299 172 289 c 2
 118 145 l 1
 225 145 l 1xfc
 191 291 l 2
 189 297 188 303 187 309 c 0
 186 312 186 315 185 318 c 2
 183 318 l 1
EndSplineSet
Position2: "'cpsp' Capital Spacing lookup 0 subtable" dx=5 dy=0 dh=10 dv=0
EndChar

StartChar: B
Encoding: 66 66 15
Width: 345
VWidth: 659
GlyphClass: 2
Flags: MW
HStem: 0 67<109 194 194 207> 172 66<109 186 186 191 109 186> 333 66<109 190 109 109>
VStem: 35 74<67 67 67 172 238 333> 239 77<277.5 302.5> 248 77<100.5 132.5>
LayerCount: 2
Back
Fore
SplineSet
207 399 m 2xf8
 270 399 316 359 316 301 c 0xf8
 316 254 289 222 254 210 c 1
 254 208 l 1
 294 195 325 158 325 107 c 0xf4
 325 40 271 0 207 0 c 2
 35 0 l 1
 35 399 l 1
 207 399 l 2xf8
109 238 m 1
 186 238 l 2
 222 238 239 260 239 287 c 0
 239 318 219 333 190 333 c 2
 109 333 l 1
 109 238 l 1
109 67 m 1
 194 67 l 2
 225 67 248 84 248 117 c 0
 248 148 230 172 191 172 c 2xf4
 109 172 l 1
 109 67 l 1
EndSplineSet
Position2: "'cpsp' Capital Spacing lookup 0 subtable" dx=5 dy=0 dh=10 dv=0
EndChar

StartChar: C
Encoding: 67 67 16
Width: 345
VWidth: 659
GlyphClass: 2
Flags: MW
HStem: -7 64<152.5 202.5 152.5 221.5> 343 64<151 200>
VStem: 20 77<145 185 185 214 145 270.5> 249 77<251 282>
AnchorPoint: "Anchor-1" 173 0 basechar 0
AnchorPoint: "Anchor-0" 173 399 basechar 0
LayerCount: 2
Back
Fore
SplineSet
179 407 m 0
 262 407 326 359 326 251 c 1
 249 251 l 1
 249 313 221 343 179 343 c 0
 123 343 97 294 97 214 c 2
 97 185 l 2
 97 105 124 57 181 57 c 0
 224 57 253 86 253 148 c 1
 326 148 l 1
 326 43 264 -7 179 -7 c 0
 78 -7 20 59 20 200 c 0
 20 341 78 407 179 407 c 0
EndSplineSet
Position2: "'cpsp' Capital Spacing lookup 0 subtable" dx=5 dy=0 dh=10 dv=0
EndChar

StartChar: Cacute
Encoding: 262 262 17
Width: 345
VWidth: 659
GlyphClass: 2
Flags: MW
HStem: -7 64<152.5 202.5 152.5 221.5> 343 64<151 200> 438 77<188 196 138 258>
VStem: 20 77<145 185 185 214 145 270.5> 249 77<251 282>
LayerCount: 2
Back
Fore
SplineSet
259 513 m 1
 196 438 l 1
 138 438 l 1
 188 515 l 1
 258 515 l 1
 259 513 l 1
179 407 m 0
 262 407 326 359 326 251 c 1
 249 251 l 1
 249 313 221 343 179 343 c 0
 123 343 97 294 97 214 c 2
 97 185 l 2
 97 105 124 57 181 57 c 0
 224 57 253 86 253 148 c 1
 326 148 l 1
 326 43 264 -7 179 -7 c 0
 78 -7 20 59 20 200 c 0
 20 341 78 407 179 407 c 0
EndSplineSet
Position2: "'cpsp' Capital Spacing lookup 0 subtable" dx=5 dy=0 dh=10 dv=0
EndChar

StartChar: Ccaron
Encoding: 268 268 18
Width: 345
VWidth: 659
GlyphClass: 2
Flags: MW
HStem: -7 64<152.5 202.5 152.5 221.5> 343 64<151 200> 436 79<150 150 150 153 205 208>
VStem: 20 77<145 185 185 214 145 270.5> 249 77<251 282>
LayerCount: 2
Back
Fore
SplineSet
150 436 m 1
 100 515 l 1
 153 515 l 1
 179 474 l 1
 205 515 l 1
 257 515 l 1
 208 436 l 1
 150 436 l 1
179 407 m 0xd8
 262 407 326 359 326 251 c 1
 249 251 l 1
 249 313 221 343 179 343 c 0
 123 343 97 294 97 214 c 2
 97 185 l 2
 97 105 124 57 181 57 c 0
 224 57 253 86 253 148 c 1
 326 148 l 1
 326 43 264 -7 179 -7 c 0
 78 -7 20 59 20 200 c 0
 20 341 78 407 179 407 c 0xd8
EndSplineSet
Position2: "'cpsp' Capital Spacing lookup 0 subtable" dx=5 dy=0 dh=10 dv=0
EndChar

StartChar: Ccedilla
Encoding: 199 199 19
Width: 345
VWidth: 659
GlyphClass: 2
Flags: MW
HStem: -106 33<165.5 166 166 172.5 125 185.5> -101 21G<125 125> -45 26<148 191> -7 21G<192 192> -5 21G<153 153> -5 62<153 153> 343 64<151 200>
VStem: 20 77<145 185 185 214 145 270.5> 150.5 41 187 50<-64.5 -54> 249 77<251 282>
LayerCount: 2
Back
Fore
SplineSet
179 407 m 0x8ba0
 262 407 326 359 326 251 c 1
 249 251 l 1
 249 313 221 343 179 343 c 0
 123 343 97 294 97 214 c 2
 97 185 l 2
 97 105 124 57 181 57 c 0
 224 57 253 86 253 148 c 1
 326 148 l 1x87a0
 326 49 270 -1 192 -7 c 1x93a0
 191 -19 l 1xab60
 216 -21 237 -32 237 -59 c 0
 237 -98 198 -106 173 -106 c 0x8b60
 158 -106 138 -104 125 -101 c 1x4ba0
 125 -73 l 1x8ba0
 166 -73 l 2x8b60
 179 -73 187 -70 187 -59 c 0
 187 -49 183 -45 167 -45 c 2xab60
 148 -45 l 1xaba0
 153 -5 l 1
 68 5 20 71 20 200 c 0
 20 341 78 407 179 407 c 0x8ba0
EndSplineSet
Position2: "'cpsp' Capital Spacing lookup 0 subtable" dx=5 dy=0 dh=10 dv=0
EndChar

StartChar: Ccircumflex
Encoding: 264 264 20
Width: 345
VWidth: 659
GlyphClass: 2
Flags: MW
HStem: -7 64<152.5 202.5 152.5 221.5> 343 64<151 200> 436 79<150 153 100 208 205 208 150 257 205 205>
VStem: 20 77<145 185 185 214 145 270.5> 249 77<251 282>
LayerCount: 2
Back
Fore
SplineSet
205 436 m 1
 179 476 l 1
 153 436 l 1
 100 436 l 1
 150 515 l 1
 208 515 l 1
 257 436 l 1
 205 436 l 1
179 407 m 0xd8
 262 407 326 359 326 251 c 1
 249 251 l 1
 249 313 221 343 179 343 c 0
 123 343 97 294 97 214 c 2
 97 185 l 2
 97 105 124 57 181 57 c 0
 224 57 253 86 253 148 c 1
 326 148 l 1
 326 43 264 -7 179 -7 c 0
 78 -7 20 59 20 200 c 0
 20 341 78 407 179 407 c 0xd8
EndSplineSet
Position2: "'cpsp' Capital Spacing lookup 0 subtable" dx=5 dy=0 dh=10 dv=0
EndChar

StartChar: Cdotaccent
Encoding: 266 266 21
Width: 345
VWidth: 659
GlyphClass: 2
Flags: MW
HStem: -7 64<152.5 202.5 152.5 221.5> 343 64<151 200> 447 68<148 210 148 210>
VStem: 20 77<145 185 185 214 145 270.5> 148 62<447 515 447 515> 249 77<251 282>
LayerCount: 2
Back
Fore
SplineSet
148 447 m 1
 148 515 l 1
 210 515 l 1
 210 447 l 1
 148 447 l 1
179 407 m 0
 262 407 326 359 326 251 c 1
 249 251 l 1
 249 313 221 343 179 343 c 0
 123 343 97 294 97 214 c 2
 97 185 l 2
 97 105 124 57 181 57 c 0
 224 57 253 86 253 148 c 1
 326 148 l 1
 326 43 264 -7 179 -7 c 0
 78 -7 20 59 20 200 c 0
 20 341 78 407 179 407 c 0
EndSplineSet
Position2: "'cpsp' Capital Spacing lookup 0 subtable" dx=5 dy=0 dh=10 dv=0
EndChar

StartChar: D
Encoding: 68 68 22
Width: 345
VWidth: 659
GlyphClass: 2
Flags: MW
HStem: 0 67<109 158 158 165> 333 66<109 158 109 109>
VStem: 35 74<67 67 67 333> 248 77<191 220 220 257.5>
AnchorPoint: "Anchor-1" 0 0 basechar 0
AnchorPoint: "Anchor-0" 173 399 basechar 0
LayerCount: 2
Back
Fore
SplineSet
35 399 m 1
 165 399 l 2
 264 399 325 334 325 206 c 0
 325 69 264 0 165 0 c 2
 35 0 l 1
 35 399 l 1
109 67 m 1
 158 67 l 2
 214 67 248 108 248 191 c 2
 248 220 l 2
 248 295 214 333 158 333 c 2
 109 333 l 1
 109 67 l 1
EndSplineSet
Position2: "'cpsp' Capital Spacing lookup 0 subtable" dx=5 dy=0 dh=10 dv=0
EndChar

StartChar: Eth
Encoding: 208 208 23
Width: 345
VWidth: 659
GlyphClass: 2
Flags: MW
HStem: 0 67<109 158 158 165> 182 49<6 35 6 35 109 183> 333 66<109 158 109 109>
VStem: 35 74<67 182 67 182 67 182 231 333> 248 77<191 220 220 257.5>
LayerCount: 2
Back
Fore
SplineSet
35 231 m 1
 35 399 l 1
 165 399 l 2
 264 399 325 334 325 206 c 0
 325 69 264 0 165 0 c 2
 35 0 l 1
 35 182 l 1
 6 182 l 1
 6 231 l 1
 35 231 l 1
109 231 m 1
 183 231 l 1
 183 182 l 1
 109 182 l 1
 109 67 l 1
 158 67 l 2
 214 67 248 108 248 191 c 2
 248 220 l 2
 248 295 214 333 158 333 c 2
 109 333 l 1
 109 231 l 1
EndSplineSet
Position2: "'cpsp' Capital Spacing lookup 0 subtable" dx=5 dy=0 dh=10 dv=0
EndChar

StartChar: Dcaron
Encoding: 270 270 24
Width: 345
VWidth: 659
GlyphClass: 2
Flags: MW
HStem: 0 67<109 158 158 165> 333 66<109 158 109 109> 436 79<119 119 119 122 173 177>
VStem: 35 74<67 67 67 333> 248 77<191 220 220 257.5>
LayerCount: 2
Back
Fore
SplineSet
119 436 m 1
 69 515 l 1
 122 515 l 1
 148 474 l 1
 173 515 l 1
 226 515 l 1
 177 436 l 1
 119 436 l 1
35 399 m 1
 165 399 l 2
 264 399 325 334 325 206 c 0
 325 69 264 0 165 0 c 2
 35 0 l 1
 35 399 l 1
109 67 m 1
 158 67 l 2
 214 67 248 108 248 191 c 2
 248 220 l 2
 248 295 214 333 158 333 c 2
 109 333 l 1
 109 67 l 1
EndSplineSet
Position2: "'cpsp' Capital Spacing lookup 0 subtable" dx=5 dy=0 dh=10 dv=0
EndChar

StartChar: Dcroat
Encoding: 272 272 25
Width: 345
VWidth: 659
GlyphClass: 2
Flags: MW
HStem: 0 67<109 158 158 165> 182 49<6 35 6 35 109 183> 333 66<109 158 109 109>
VStem: 35 74<67 182 67 182 67 182 231 333> 248 77<191 220 220 257.5>
LayerCount: 2
Back
Fore
SplineSet
35 231 m 1
 35 399 l 1
 165 399 l 2
 264 399 325 334 325 206 c 0
 325 69 264 0 165 0 c 2
 35 0 l 1
 35 182 l 1
 6 182 l 1
 6 231 l 1
 35 231 l 1
109 231 m 1
 183 231 l 1
 183 182 l 1
 109 182 l 1
 109 67 l 1
 158 67 l 2
 214 67 248 108 248 191 c 2
 248 220 l 2
 248 295 214 333 158 333 c 2
 109 333 l 1
 109 231 l 1
EndSplineSet
Position2: "'cpsp' Capital Spacing lookup 0 subtable" dx=5 dy=0 dh=10 dv=0
EndChar

StartChar: E
Encoding: 69 69 26
Width: 319
VWidth: 659
GlyphClass: 2
Flags: MW
HStem: 0 67<109 293 109 293> 171 67<109 264 109 264> 333 66<109 289 109 109>
VStem: 35 74<67 171 238 333>
AnchorPoint: "Anchor-1" 159 0 basechar 0
AnchorPoint: "Anchor-0" 159 399 basechar 0
LayerCount: 2
Back
Fore
SplineSet
35 399 m 1
 289 399 l 1
 289 333 l 1
 109 333 l 1
 109 238 l 1
 264 238 l 1
 264 171 l 1
 109 171 l 1
 109 67 l 1
 293 67 l 1
 293 0 l 1
 35 0 l 1
 35 399 l 1
EndSplineSet
Position2: "'cpsp' Capital Spacing lookup 0 subtable" dx=5 dy=0 dh=10 dv=0
EndChar

StartChar: Eacute
Encoding: 201 201 27
Width: 319
VWidth: 659
GlyphClass: 2
Flags: MW
HStem: 0 67<109 293 109 293> 171 67<109 264 109 264> 333 66<109 289 109 109> 438 77<169 177 119 239>
VStem: 35 74<67 171 238 333>
LayerCount: 2
Back
Fore
SplineSet
240 513 m 1
 177 438 l 1
 119 438 l 1
 169 515 l 1
 239 515 l 1
 240 513 l 1
289 333 m 1
 109 333 l 1
 109 238 l 1
 264 238 l 1
 264 171 l 1
 109 171 l 1
 109 67 l 1
 293 67 l 1
 293 0 l 1
 35 0 l 1
 35 399 l 1
 289 399 l 1
 289 333 l 1
EndSplineSet
Position2: "'cpsp' Capital Spacing lookup 0 subtable" dx=5 dy=0 dh=10 dv=0
EndChar

StartChar: Ebreve
Encoding: 276 276 28
Width: 319
VWidth: 659
GlyphClass: 2
Flags: MW
HStem: 0 67<109 293 109 293> 171 67<109 264 109 264> 333 66<109 289 109 109> 452 63<82 183.5>
VStem: 35 74<67 171 238 333>
LayerCount: 2
Back
Fore
SplineSet
237 515 m 1
 237 485 208 452 159 452 c 0
 111 452 82 485 82 515 c 1
 125 515 l 1
 127 506 140 495 159 495 c 0
 179 495 193 506 194 515 c 1
 237 515 l 1
35 399 m 1
 289 399 l 1
 289 333 l 1
 109 333 l 1
 109 238 l 1
 264 238 l 1
 264 171 l 1
 109 171 l 1
 109 67 l 1
 293 67 l 1
 293 0 l 1
 35 0 l 1
 35 399 l 1
EndSplineSet
Position2: "'cpsp' Capital Spacing lookup 0 subtable" dx=5 dy=0 dh=10 dv=0
EndChar

StartChar: Ecaron
Encoding: 282 282 29
Width: 319
VWidth: 659
GlyphClass: 2
Flags: MW
HStem: 0 67<109 293 109 293> 171 67<109 264 109 264> 333 66<109 289 109 109> 436 79<131 131 131 133 185 188>
VStem: 35 74<67 171 238 333>
LayerCount: 2
Back
Fore
SplineSet
131 436 m 1
 81 515 l 1
 133 515 l 1
 159 474 l 1
 185 515 l 1
 238 515 l 1
 188 436 l 1
 131 436 l 1
35 399 m 1
 289 399 l 1
 289 333 l 1
 109 333 l 1
 109 238 l 1
 264 238 l 1
 264 171 l 1
 109 171 l 1
 109 67 l 1
 293 67 l 1
 293 0 l 1
 35 0 l 1
 35 399 l 1
EndSplineSet
Position2: "'cpsp' Capital Spacing lookup 0 subtable" dx=5 dy=0 dh=10 dv=0
EndChar

StartChar: Ecircumflex
Encoding: 202 202 30
Width: 319
VWidth: 659
GlyphClass: 2
Flags: MW
HStem: 0 67<109 293 109 293> 171 67<109 264 109 264> 333 66<109 289 109 109> 436 79<131 133 81 188 185 188 131 238 185 185>
VStem: 35 74<67 171 238 333>
LayerCount: 2
Back
Fore
SplineSet
185 436 m 1
 159 476 l 1
 133 436 l 1
 81 436 l 1
 131 515 l 1
 188 515 l 1
 238 436 l 1
 185 436 l 1
35 399 m 1
 289 399 l 1
 289 333 l 1
 109 333 l 1
 109 238 l 1
 264 238 l 1
 264 171 l 1
 109 171 l 1
 109 67 l 1
 293 67 l 1
 293 0 l 1
 35 0 l 1
 35 399 l 1
EndSplineSet
Position2: "'cpsp' Capital Spacing lookup 0 subtable" dx=5 dy=0 dh=10 dv=0
EndChar

StartChar: Edieresis
Encoding: 203 203 31
Width: 319
VWidth: 659
GlyphClass: 2
Flags: MW
HStem: 0 67<109 293 109 293> 171 67<109 264 109 264> 333 66<109 289 109 109> 451 64<79 138 79 138 79 181 181 239>
VStem: 35 74<67 171 238 333> 79 59<451 515> 181 58<451 515>
LayerCount: 2
Back
Fore
SplineSet
138 451 m 1xf6
 79 451 l 1
 79 515 l 1
 138 515 l 1
 138 451 l 1xf6
239 451 m 1
 181 451 l 1
 181 515 l 1
 239 515 l 1
 239 451 l 1
289 333 m 1
 109 333 l 1
 109 238 l 1
 264 238 l 1
 264 171 l 1
 109 171 l 1
 109 67 l 1
 293 67 l 1
 293 0 l 1
 35 0 l 1
 35 399 l 1xfa
 289 399 l 1
 289 333 l 1
EndSplineSet
Position2: "'cpsp' Capital Spacing lookup 0 subtable" dx=5 dy=0 dh=10 dv=0
EndChar

StartChar: Edotaccent
Encoding: 278 278 32
Width: 319
VWidth: 659
GlyphClass: 2
Flags: MW
HStem: 0 67<109 293 109 293> 171 67<109 264 109 264> 333 66<109 289 109 109> 447 68<128 190 128 190>
VStem: 35 74<67 171 238 333> 128 62<447 515 447 515>
LayerCount: 2
Back
Fore
SplineSet
128 447 m 1
 128 515 l 1
 190 515 l 1
 190 447 l 1
 128 447 l 1
35 399 m 1xf8
 289 399 l 1
 289 333 l 1
 109 333 l 1
 109 238 l 1
 264 238 l 1
 264 171 l 1
 109 171 l 1
 109 67 l 1
 293 67 l 1
 293 0 l 1
 35 0 l 1
 35 399 l 1xf8
EndSplineSet
Position2: "'cpsp' Capital Spacing lookup 0 subtable" dx=5 dy=0 dh=10 dv=0
EndChar

StartChar: Egrave
Encoding: 200 200 33
Width: 319
VWidth: 659
GlyphClass: 2
Flags: MW
HStem: 0 67<109 293 109 293> 171 67<109 264 109 264> 333 66<109 289 109 109> 438 77<142 149 79 199 142 142>
VStem: 35 74<67 171 238 333>
LayerCount: 2
Back
Fore
SplineSet
199 438 m 1
 142 438 l 1
 78 513 l 1
 79 515 l 1
 149 515 l 1
 199 438 l 1
289 333 m 1
 109 333 l 1
 109 238 l 1
 264 238 l 1
 264 171 l 1
 109 171 l 1
 109 67 l 1
 293 67 l 1
 293 0 l 1
 35 0 l 1
 35 399 l 1
 289 399 l 1
 289 333 l 1
EndSplineSet
Position2: "'cpsp' Capital Spacing lookup 0 subtable" dx=5 dy=0 dh=10 dv=0
EndChar

StartChar: Emacron
Encoding: 274 274 34
Width: 319
VWidth: 659
GlyphClass: 2
Flags: MW
HStem: 0 67<109 293 109 293> 171 67<109 264 109 264> 333 66<109 289 109 109> 442 51<85 233 85 233>
VStem: 35 74<67 171 238 333> 85 148<442 493 442 493>
LayerCount: 2
Back
Fore
SplineSet
85 442 m 1xf4
 85 493 l 1
 233 493 l 1
 233 442 l 1
 85 442 l 1xf4
35 399 m 1xf8
 289 399 l 1
 289 333 l 1
 109 333 l 1
 109 238 l 1
 264 238 l 1
 264 171 l 1
 109 171 l 1
 109 67 l 1
 293 67 l 1
 293 0 l 1
 35 0 l 1
 35 399 l 1xf8
EndSplineSet
Position2: "'cpsp' Capital Spacing lookup 0 subtable" dx=5 dy=0 dh=10 dv=0
EndChar

StartChar: Eogonek
Encoding: 280 280 35
Width: 319
VWidth: 659
GlyphClass: 2
Flags: MW
HStem: -111 40<262.5 314> -103 21G<314 314> 0 67<109 244 109 293> 171 67<109 264 109 264> 333 66<109 109 109 289>
VStem: 35 74<67 171 238 333> 218 75<-78 67>
LayerCount: 2
Back
Fore
SplineSet
109 333 m 1x7e
 109 238 l 1
 264 238 l 1
 264 171 l 1
 109 171 l 1
 109 67 l 1
 293 67 l 1
 293 0 l 1
 286 -8 275 -24 275 -41 c 0
 275 -56 283 -71 302 -71 c 2
 314 -71 l 1xbe
 314 -103 l 1
 301 -108 289 -111 276 -111 c 0
 249 -111 218 -98 218 -58 c 0
 218 -31 230 -14 244 0 c 1
 35 0 l 1
 35 399 l 1
 289 399 l 1
 289 333 l 1
 109 333 l 1x7e
EndSplineSet
Position2: "'cpsp' Capital Spacing lookup 0 subtable" dx=5 dy=0 dh=10 dv=0
EndChar

StartChar: F
Encoding: 70 70 36
Width: 292
VWidth: 659
GlyphClass: 2
Flags: MW
HStem: 0 21G<35 109 35 35> 166 67<109 246 109 246> 333 66<109 270 109 109>
VStem: 35 74<0 166 233 333>
LayerCount: 2
Back
Fore
SplineSet
35 399 m 1
 270 399 l 1
 270 333 l 1
 109 333 l 1
 109 233 l 1
 246 233 l 1
 246 166 l 1
 109 166 l 1
 109 0 l 1
 35 0 l 1
 35 399 l 1
EndSplineSet
Position2: "'cpsp' Capital Spacing lookup 0 subtable" dx=5 dy=0 dh=10 dv=0
EndChar

StartChar: G
Encoding: 71 71 37
Width: 372
VWidth: 659
GlyphClass: 2
Flags: MW
HStem: -7 64<156.5 195> 0 21G<294 342 294 294> 153 64<176 342 176 266> 343 64<156 208.5>
VStem: 20 77<144 185 185 214 144 270.5> 266 76<123.5 153 260 287>
AnchorPoint: "Anchor-1" 186 0 basechar 0
AnchorPoint: "Anchor-0" 186 399 basechar 0
LayerCount: 2
Back
Fore
SplineSet
176 153 m 1xbc
 176 217 l 1
 342 217 l 1
 342 0 l 1
 294 0 l 1x7c
 281 44 l 1
 255 11 216 -7 174 -7 c 0
 76 -7 20 58 20 200 c 0
 20 341 82 407 189 407 c 0
 270 407 342 355 342 260 c 1
 266 260 l 1
 266 314 230 343 187 343 c 0
 125 343 97 294 97 214 c 2
 97 185 l 2
 97 103 125 57 188 57 c 0
 233 57 266 94 266 153 c 1
 176 153 l 1xbc
EndSplineSet
Position2: "'cpsp' Capital Spacing lookup 0 subtable" dx=5 dy=0 dh=10 dv=0
EndChar

StartChar: Gbreve
Encoding: 286 286 38
Width: 372
VWidth: 659
GlyphClass: 2
Flags: MW
HStem: -7 64<156.5 195> 0 21G<294 342 294 294> 153 64<176 342 176 266> 343 64<156 208.5> 452 63<108 210>
VStem: 20 77<144 185 185 214 144 270.5> 266 76<123.5 153 260 287>
LayerCount: 2
Back
Fore
SplineSet
186 452 m 0xbe
 138 452 108 485 108 515 c 1
 152 515 l 1
 153 506 167 495 186 495 c 0
 206 495 219 506 221 515 c 1
 264 515 l 1
 264 485 234 452 186 452 c 0xbe
176 153 m 1
 176 217 l 1
 342 217 l 1
 342 0 l 1
 294 0 l 1x7e
 281 44 l 1
 255 11 216 -7 174 -7 c 0
 76 -7 20 58 20 200 c 0
 20 341 82 407 189 407 c 0
 270 407 342 355 342 260 c 1
 266 260 l 1
 266 314 230 343 187 343 c 0
 125 343 97 294 97 214 c 2
 97 185 l 2
 97 103 125 57 188 57 c 0
 233 57 266 94 266 153 c 1
 176 153 l 1
EndSplineSet
Position2: "'cpsp' Capital Spacing lookup 0 subtable" dx=5 dy=0 dh=10 dv=0
EndChar

StartChar: Gcircumflex
Encoding: 284 284 39
Width: 372
VWidth: 659
GlyphClass: 2
Flags: MW
HStem: -7 64<156.5 195> 0 21G<294 342 294 294> 153 64<176 342 176 266> 343 64<156 208.5> 436 79<158 160 108 215 212 212 212 215 158 264>
VStem: 20 77<144 185 185 214 144 270.5> 266 76<123.5 153 260 287>
LayerCount: 2
Back
Fore
SplineSet
186 476 m 1xbe
 160 436 l 1
 108 436 l 1
 158 515 l 1
 215 515 l 1
 264 436 l 1
 212 436 l 1
 186 476 l 1xbe
176 153 m 1
 176 217 l 1
 342 217 l 1
 342 0 l 1
 294 0 l 1x76
 281 44 l 1
 255 11 216 -7 174 -7 c 0
 76 -7 20 58 20 200 c 0
 20 341 82 407 189 407 c 0
 270 407 342 355 342 260 c 1
 266 260 l 1
 266 314 230 343 187 343 c 0xb6
 125 343 97 294 97 214 c 2
 97 185 l 2
 97 103 125 57 188 57 c 0
 233 57 266 94 266 153 c 1
 176 153 l 1
EndSplineSet
Position2: "'cpsp' Capital Spacing lookup 0 subtable" dx=5 dy=0 dh=10 dv=0
EndChar

StartChar: Gcommaaccent
Encoding: 290 290 40
Width: 372
VWidth: 659
GlyphClass: 2
Flags: MW
HStem: -103 71<141 213 141 169> -7 64<156.5 195> 0 21G<294 342 294 294> 153 64<176 342 176 266> 343 64<156 208.5>
VStem: 20 77<144 185 185 214 144 270.5> 141 72<-98 -32 -98 -32 -98 -32> 266 76<123.5 153 260 287>
LayerCount: 2
Back
Fore
SplineSet
176 153 m 1x5f
 176 217 l 1
 342 217 l 1
 342 0 l 1
 294 0 l 1xbf
 281 44 l 1
 255 11 216 -7 174 -7 c 0
 76 -7 20 58 20 200 c 0
 20 341 82 407 189 407 c 0
 270 407 342 355 342 260 c 1
 266 260 l 1
 266 314 230 343 187 343 c 0
 125 343 97 294 97 214 c 2
 97 185 l 2
 97 103 125 57 188 57 c 0
 233 57 266 94 266 153 c 1
 176 153 l 1x5f
141 -103 m 1
 141 -32 l 1
 213 -32 l 1
 213 -98 l 1
 186 -153 l 1
 148 -153 l 1
 169 -103 l 1
 141 -103 l 1
EndSplineSet
Position2: "'cpsp' Capital Spacing lookup 0 subtable" dx=5 dy=0 dh=10 dv=0
EndChar

StartChar: Gdotaccent
Encoding: 288 288 41
Width: 372
VWidth: 659
GlyphClass: 2
Flags: MW
HStem: -7 64<156.5 195> 0 21G<294 342 294 294> 153 64<176 342 176 266> 343 64<156 208.5> 447 68<155 217 155 217>
VStem: 20 77<144 185 185 214 144 270.5> 155 62<447 515 447 515> 266 76<123.5 153 260 287>
LayerCount: 2
Back
Fore
SplineSet
217 515 m 1xbf
 217 447 l 1
 155 447 l 1
 155 515 l 1
 217 515 l 1xbf
176 153 m 1
 176 217 l 1
 342 217 l 1
 342 0 l 1
 294 0 l 1x7f
 281 44 l 1
 255 11 216 -7 174 -7 c 0
 76 -7 20 58 20 200 c 0
 20 341 82 407 189 407 c 0
 270 407 342 355 342 260 c 1
 266 260 l 1
 266 314 230 343 187 343 c 0
 125 343 97 294 97 214 c 2
 97 185 l 2
 97 103 125 57 188 57 c 0
 233 57 266 94 266 153 c 1
 176 153 l 1
EndSplineSet
Position2: "'cpsp' Capital Spacing lookup 0 subtable" dx=5 dy=0 dh=10 dv=0
EndChar

StartChar: H
Encoding: 72 72 42
Width: 345
VWidth: 659
GlyphClass: 2
Flags: MW
HStem: 0 21G<35 109 35 35 235 310 235 235> 171 67<109 235 109 235> 379 20G<35 109 109 109 235 310 310 310>
VStem: 35 74<0 171 0 238 238 399> 235 75<0 171 171 171 238 399>
AnchorPoint: "Anchor-1" 0 0 basechar 0
AnchorPoint: "Anchor-0" 173 399 basechar 0
LayerCount: 2
Back
Fore
SplineSet
310 0 m 1
 235 0 l 1
 235 171 l 1
 109 171 l 1
 109 0 l 1
 35 0 l 1
 35 399 l 1
 109 399 l 1
 109 238 l 1
 235 238 l 1
 235 399 l 1
 310 399 l 1
 310 0 l 1
EndSplineSet
Position2: "'cpsp' Capital Spacing lookup 0 subtable" dx=5 dy=0 dh=10 dv=0
EndChar

StartChar: Hbar
Encoding: 294 294 43
Width: 345
VWidth: 659
GlyphClass: 2
Flags: MW
HStem: 0 21G<35 109 35 35 235 310 235 235> 167 66<109 235 109 235> 285 51<6 35 6 35 109 235 310 339> 285 114<6 109 6 109 35 109 35 235>
VStem: 35 74<0 167 0 233 233 285 336 399> 235 75<0 167 167 167 233 285 0 285 336 399>
LayerCount: 2
Back
Fore
SplineSet
310 285 m 1xdc
 310 0 l 1
 235 0 l 1
 235 167 l 1
 109 167 l 1
 109 0 l 1
 35 0 l 1
 35 285 l 1
 6 285 l 1xdc
 6 336 l 1
 35 336 l 1xec
 35 399 l 1
 109 399 l 1xdc
 109 336 l 1
 235 336 l 1xec
 235 399 l 1
 310 399 l 1xdc
 310 336 l 1
 339 336 l 1xec
 339 285 l 1
 310 285 l 1xdc
235 285 m 1
 109 285 l 1
 109 233 l 1
 235 233 l 1
 235 285 l 1
EndSplineSet
Position2: "'cpsp' Capital Spacing lookup 0 subtable" dx=5 dy=0 dh=10 dv=0
EndChar

StartChar: Hcircumflex
Encoding: 292 292 44
Width: 345
VWidth: 659
GlyphClass: 2
Flags: MW
HStem: 0 21G<35 109 35 35 235 310 235 235> 171 67<109 235 109 235> 379 20G<35 109 109 109 235 310 310 310> 436 79<144 146 94 202 198 202 144 251 198 198>
VStem: 35 74<0 171 0 238 238 399> 235 75<0 171 171 171 238 399>
LayerCount: 2
Back
Fore
SplineSet
251 436 m 1
 198 436 l 1
 173 476 l 1
 146 436 l 1
 94 436 l 1
 144 515 l 1
 202 515 l 1
 251 436 l 1
310 0 m 1
 235 0 l 1
 235 171 l 1
 109 171 l 1
 109 0 l 1
 35 0 l 1
 35 399 l 1
 109 399 l 1
 109 238 l 1
 235 238 l 1
 235 399 l 1
 310 399 l 1
 310 0 l 1
EndSplineSet
Position2: "'cpsp' Capital Spacing lookup 0 subtable" dx=5 dy=0 dh=10 dv=0
EndChar

StartChar: I
Encoding: 73 73 45
Width: 133
VWidth: 659
GlyphClass: 2
Flags: MW
HStem: 0 21G<29 29 29 103> 379 20G<29 103 103 103>
VStem: 29 74<0 399 0 399>
AnchorPoint: "Anchor-1" 0 0 basechar 0
AnchorPoint: "Anchor-0" 67 399 basechar 0
LayerCount: 2
Back
Fore
SplineSet
29 0 m 1
 29 399 l 1
 103 399 l 1
 103 0 l 1
 29 0 l 1
EndSplineSet
Position2: "'cpsp' Capital Spacing lookup 0 subtable" dx=5 dy=0 dh=10 dv=0
EndChar

StartChar: IJ
Encoding: 306 306 46
Width: 399
VWidth: 659
GlyphClass: 2
Flags: MW
HStem: -7 64<238 263.5 238 287.5> 0 126<29 212 29 212> 379 20G<29 103 103 103 289 364 364 364>
VStem: 29 74<0 399> 138 74<95 101 101 126 86.5 126> 289 75<101 399>
LayerCount: 2
Back
Fore
SplineSet
103 0 m 1x7c
 29 0 l 1
 29 399 l 1
 103 399 l 1
 103 0 l 1x7c
364 95 m 2xbc
 364 28 324 -7 251 -7 c 0xbc
 179 -7 138 28 138 95 c 2
 138 126 l 1
 212 126 l 1x7c
 212 101 l 2
 212 72 225 57 251 57 c 0
 276 57 289 72 289 101 c 2
 289 399 l 1
 364 399 l 1
 364 95 l 2xbc
EndSplineSet
Position2: "'cpsp' Capital Spacing lookup 0 subtable" dx=5 dy=0 dh=10 dv=0
EndChar

StartChar: Iacute
Encoding: 205 205 47
Width: 133
VWidth: 659
GlyphClass: 2
Flags: MW
HStem: 0 21G<29 103 29 29> 379 20G<29 103 103 103> 438 77<76 84 26 146>
VStem: 29 74<0 399>
LayerCount: 2
Back
Fore
SplineSet
147 513 m 1
 84 438 l 1
 26 438 l 1
 76 515 l 1
 146 515 l 1
 147 513 l 1
103 0 m 1
 29 0 l 1
 29 399 l 1
 103 399 l 1
 103 0 l 1
EndSplineSet
Position2: "'cpsp' Capital Spacing lookup 0 subtable" dx=5 dy=0 dh=10 dv=0
EndChar

StartChar: Ibreve
Encoding: 300 300 48
Width: 133
VWidth: 659
GlyphClass: 2
Flags: MW
HStem: 0 21G<29 29 29 103> 379 20G<29 103 103 103> 452 63<-12 91>
VStem: 29 74<0 399 0 399>
LayerCount: 2
Back
Fore
SplineSet
144 515 m 1
 144 485 115 452 67 452 c 0
 18 452 -12 485 -12 515 c 1
 32 515 l 1
 34 506 47 495 67 495 c 0
 86 495 100 506 101 515 c 1
 144 515 l 1
29 0 m 1
 29 399 l 1
 103 399 l 1
 103 0 l 1
 29 0 l 1
EndSplineSet
Position2: "'cpsp' Capital Spacing lookup 0 subtable" dx=5 dy=0 dh=10 dv=0
EndChar

StartChar: Icircumflex
Encoding: 206 206 49
Width: 133
VWidth: 659
GlyphClass: 2
Flags: MW
HStem: 0 21G<29 29 29 103> 379 20G<29 103 103 103> 436 79<38 41 -13 96 93 96 38 145 93 93>
VStem: 29 74<0 399 0 399>
LayerCount: 2
Back
Fore
SplineSet
93 436 m 1
 67 476 l 1
 41 436 l 1
 -13 436 l 1
 38 515 l 1
 96 515 l 1
 145 436 l 1
 93 436 l 1
29 0 m 1
 29 399 l 1
 103 399 l 1
 103 0 l 1
 29 0 l 1
EndSplineSet
Position2: "'cpsp' Capital Spacing lookup 0 subtable" dx=5 dy=0 dh=10 dv=0
EndChar

StartChar: Idieresis
Encoding: 207 207 50
Width: 133
VWidth: 659
GlyphClass: 2
Flags: MW
HStem: 0 21G<29 103 29 29> 379 20G<29 103 103 103> 451 64<-13 45 -13 45 -13 88 88 147>
VStem: -13 58<451 515> 29 74<0 399> 88 59<451 515>
LayerCount: 2
Back
Fore
SplineSet
45 451 m 1xf4
 -13 451 l 1
 -13 515 l 1
 45 515 l 1
 45 451 l 1xf4
147 451 m 1
 88 451 l 1
 88 515 l 1
 147 515 l 1
 147 451 l 1
103 0 m 1xe8
 29 0 l 1
 29 399 l 1
 103 399 l 1
 103 0 l 1xe8
EndSplineSet
Position2: "'cpsp' Capital Spacing lookup 0 subtable" dx=5 dy=0 dh=10 dv=0
EndChar

StartChar: Idotaccent
Encoding: 304 304 51
Width: 133
VWidth: 659
GlyphClass: 2
Flags: MW
HStem: 0 21G<29 29 29 103> 379 20G<29 103 103 103> 447 68<36 98 36 98>
VStem: 29 74<0 399 0 399> 36 62<447 515 447 515>
LayerCount: 2
Back
Fore
SplineSet
36 447 m 1xf0
 36 515 l 1xf0
 98 515 l 1
 98 447 l 1xe8
 36 447 l 1xf0
29 0 m 1
 29 399 l 1
 103 399 l 1
 103 0 l 1
 29 0 l 1
EndSplineSet
Position2: "'cpsp' Capital Spacing lookup 0 subtable" dx=5 dy=0 dh=10 dv=0
EndChar

StartChar: Igrave
Encoding: 204 204 52
Width: 133
VWidth: 659
GlyphClass: 2
Flags: MW
HStem: 0 21G<29 103 29 29> 379 20G<29 103 103 103> 438 77<49 57 -13 107 49 49>
VStem: 29 74<0 399>
LayerCount: 2
Back
Fore
SplineSet
107 438 m 1
 49 438 l 1
 -14 513 l 1
 -13 515 l 1
 57 515 l 1
 107 438 l 1
103 0 m 1
 29 0 l 1
 29 399 l 1
 103 399 l 1
 103 0 l 1
EndSplineSet
Position2: "'cpsp' Capital Spacing lookup 0 subtable" dx=5 dy=0 dh=10 dv=0
EndChar

StartChar: Imacron
Encoding: 298 298 53
Width: 133
VWidth: 659
GlyphClass: 2
Flags: MW
HStem: 0 21G<29 29 29 103> 379 20G<29 103 103 103> 442 51<-8 141 -8 141>
VStem: 29 74<0 399 0 399>
LayerCount: 2
Back
Fore
SplineSet
-8 442 m 1
 -8 493 l 1
 141 493 l 1
 141 442 l 1
 -8 442 l 1
29 0 m 1
 29 399 l 1
 103 399 l 1
 103 0 l 1
 29 0 l 1
EndSplineSet
Position2: "'cpsp' Capital Spacing lookup 0 subtable" dx=5 dy=0 dh=10 dv=0
EndChar

StartChar: Iogonek
Encoding: 302 302 54
Width: 133
VWidth: 659
GlyphClass: 2
Flags: MW
HStem: -111 40<74 125> -103 21G<125 125> 0 21G<29 55 29 29 103 103> 379 20G<29 103 103 103>
VStem: 29 74<-78 0 0 399>
LayerCount: 2
Back
Fore
SplineSet
103 0 m 2x78
 102 -1 102 -2 101 -3 c 0
 95 -12 86 -26 86 -41 c 0
 86 -56 93 -71 113 -71 c 2
 125 -71 l 1xb8
 125 -103 l 1
 112 -108 100 -111 87 -111 c 0
 61 -111 29 -98 29 -58 c 0
 29 -31 41 -14 55 0 c 1
 29 0 l 1
 29 399 l 1
 103 399 l 1
 103 0 l 2x78
EndSplineSet
Position2: "'cpsp' Capital Spacing lookup 0 subtable" dx=5 dy=0 dh=10 dv=0
EndChar

StartChar: Itilde
Encoding: 296 296 55
Width: 133
VWidth: 659
GlyphClass: 2
Flags: MW
HStem: 0 21G<29 29 29 103> 379 20G<29 103 103 103> 444 71<5.5 7 -32 33.5 126 127.5>
VStem: 29 74<0 399 0 399>
LayerCount: 2
Back
Fore
SplineSet
165 515 m 1
 165 482 148 444 107 444 c 0
 93 444 80 449 68 455 c 0
 56 460 43 465 30 465 c 0
 18 465 10 459 7 444 c 1
 -32 444 l 1
 -32 475 -15 515 26 515 c 0
 41 515 54 509 67 504 c 0
 79 498 90 493 103 493 c 0
 116 493 123 498 126 515 c 1
 165 515 l 1
29 0 m 1
 29 399 l 1
 103 399 l 1
 103 0 l 1
 29 0 l 1
EndSplineSet
Position2: "'cpsp' Capital Spacing lookup 0 subtable" dx=5 dy=0 dh=10 dv=0
EndChar

StartChar: J
Encoding: 74 74 56
Width: 266
VWidth: 659
GlyphClass: 2
Flags: MW
HStem: -7 64<105.5 130.5 105.5 154> 379 20G<156 231 231 231>
VStem: 5 74<95 101 101 126 86.5 126> 156 75<101 399>
AnchorPoint: "Anchor-1" 0 0 basechar 0
AnchorPoint: "Anchor-0" 133 399 basechar 0
LayerCount: 2
Back
Fore
SplineSet
231 95 m 2
 231 28 190 -7 118 -7 c 0
 46 -7 5 28 5 95 c 2
 5 126 l 1
 79 126 l 1
 79 101 l 2
 79 72 93 57 118 57 c 0
 143 57 156 72 156 101 c 2
 156 399 l 1
 231 399 l 1
 231 95 l 2
EndSplineSet
Position2: "'cpsp' Capital Spacing lookup 0 subtable" dx=5 dy=0 dh=10 dv=0
EndChar

StartChar: Jcircumflex
Encoding: 308 308 57
Width: 266
VWidth: 659
GlyphClass: 2
Flags: MW
HStem: -7 64<105.5 130.5 105.5 154> 379 20G<156 231 231 231> 436 79<173 175 123 230 227 230 173 279 227 227>
VStem: 5 74<95 101 101 126 86.5 126> 156 75<101 399>
LayerCount: 2
Back
Fore
SplineSet
279 436 m 1
 227 436 l 1
 201 476 l 1
 175 436 l 1
 123 436 l 1
 173 515 l 1
 230 515 l 1
 279 436 l 1
231 95 m 2
 231 28 190 -7 118 -7 c 0
 46 -7 5 28 5 95 c 2
 5 126 l 1
 79 126 l 1
 79 101 l 2
 79 72 93 57 118 57 c 0
 143 57 156 72 156 101 c 2
 156 399 l 1
 231 399 l 1
 231 95 l 2
EndSplineSet
Position2: "'cpsp' Capital Spacing lookup 0 subtable" dx=5 dy=0 dh=10 dv=0
EndChar

StartChar: K
Encoding: 75 75 58
Width: 345
VWidth: 659
GlyphClass: 2
Flags: MW
HStem: 0 21G<35 110 35 35 259 343 259 259> 379 20G<35 110 110 110 256 339 339 339>
VStem: 35 75<0 102 195 399>
AnchorPoint: "Anchor-1" 173 0 basechar 0
AnchorPoint: "Anchor-0" 173 399 basechar 0
LayerCount: 2
Back
Fore
SplineSet
256 399 m 1
 339 399 l 1
 221 237 l 1
 343 0 l 1
 259 0 l 1
 173 179 l 1
 110 102 l 1
 110 0 l 1
 35 0 l 1
 35 399 l 1
 110 399 l 1
 110 195 l 1
 256 399 l 1
EndSplineSet
Position2: "'cpsp' Capital Spacing lookup 0 subtable" dx=5 dy=0 dh=10 dv=0
EndChar

StartChar: Kcommaaccent
Encoding: 310 310 59
Width: 345
VWidth: 659
GlyphClass: 2
Flags: MW
HStem: -103 71<136 165 136 208> 0 21G<35 110 35 35 259 343 259 259> 379 20G<35 110 110 110 256 339 339 339>
VStem: 35 75<0 102 195 399> 136 72<-98 -32 -98 -32 -98 -32>
LayerCount: 2
Back
Fore
SplineSet
256 399 m 1
 339 399 l 1
 221 237 l 1
 343 0 l 1
 259 0 l 1
 173 179 l 1
 110 102 l 1
 110 0 l 1
 35 0 l 1
 35 399 l 1
 110 399 l 1
 110 195 l 1xf8
 256 399 l 1
182 -153 m 1xe8
 144 -153 l 1
 165 -103 l 1
 136 -103 l 1
 136 -32 l 1
 208 -32 l 1
 208 -98 l 1
 182 -153 l 1xe8
EndSplineSet
Position2: "'cpsp' Capital Spacing lookup 0 subtable" dx=5 dy=0 dh=10 dv=0
EndChar

StartChar: L
Encoding: 76 76 60
Width: 292
VWidth: 659
GlyphClass: 2
Flags: MW
HStem: 0 70<109 279 109 279> 379 20G<35 109 109 109>
VStem: 35 74<70 70 70 399>
AnchorPoint: "Anchor-1" 146 0 basechar 0
AnchorPoint: "Anchor-0" 146 399 basechar 0
LayerCount: 2
Back
Fore
SplineSet
109 70 m 1
 279 70 l 1
 279 0 l 1
 35 0 l 1
 35 399 l 1
 109 399 l 1
 109 70 l 1
EndSplineSet
Position2: "'cpsp' Capital Spacing lookup 0 subtable" dx=5 dy=0 dh=10 dv=0
EndChar

StartChar: Lacute
Encoding: 313 313 61
Width: 292
VWidth: 659
GlyphClass: 2
Flags: MW
HStem: 0 70<109 279 109 279> 379 20G<35 109 109 109> 438 77<84 92 34 154>
VStem: 35 74<70 70 70 399>
LayerCount: 2
Back
Fore
SplineSet
154 513 m 1
 92 438 l 1
 34 438 l 1
 84 515 l 1
 154 515 l 1
 154 513 l 1
109 70 m 1
 279 70 l 1
 279 0 l 1
 35 0 l 1
 35 399 l 1
 109 399 l 1
 109 70 l 1
EndSplineSet
Position2: "'cpsp' Capital Spacing lookup 0 subtable" dx=5 dy=0 dh=10 dv=0
EndChar

StartChar: Lcaron
Encoding: 317 317 62
Width: 292
VWidth: 659
GlyphClass: 2
Flags: MW
HStem: 0 70<109 279 109 279> 320 79<198 230>
VStem: 35 74<70 70 70 399> 198 81<327 399>
LayerCount: 2
Back
Fore
SplineSet
109 70 m 1
 279 70 l 1
 279 0 l 1
 35 0 l 1
 35 399 l 1
 109 399 l 1
 109 70 l 1
279 327 m 1
 240 229 l 1
 198 229 l 1
 230 320 l 1
 198 320 l 1
 198 399 l 1
 279 399 l 1
 279 327 l 1
EndSplineSet
Position2: "'cpsp' Capital Spacing lookup 0 subtable" dx=5 dy=0 dh=10 dv=0
EndChar

StartChar: Lcommaaccent
Encoding: 315 315 63
Width: 292
VWidth: 659
GlyphClass: 2
Flags: MW
HStem: -103 71<110 138 110 182> 0 70<109 279 109 279> 379 20G<35 109 109 109>
VStem: 35 74<70 70 70 399> 110 72<-98 -98 -98 -32 -98 -32>
LayerCount: 2
Back
Fore
SplineSet
109 70 m 1
 279 70 l 1
 279 0 l 1
 35 0 l 1
 35 399 l 1
 109 399 l 1
 109 70 l 1
182 -98 m 1xe8
 156 -153 l 1
 118 -153 l 1
 138 -103 l 1
 110 -103 l 1
 110 -32 l 1
 182 -32 l 1
 182 -98 l 1xe8
EndSplineSet
Position2: "'cpsp' Capital Spacing lookup 0 subtable" dx=5 dy=0 dh=10 dv=0
EndChar

StartChar: Ldot
Encoding: 319 319 64
Width: 292
VWidth: 659
GlyphClass: 2
Flags: MW
HStem: 0 70<109 279 109 279> 239 66<183 244 183 244> 379 20G<35 109 109 109>
VStem: 35 74<70 70 70 399> 183 61<239 305>
LayerCount: 2
Back
Fore
SplineSet
109 70 m 1
 279 70 l 1
 279 0 l 1
 35 0 l 1
 35 399 l 1
 109 399 l 1
 109 70 l 1
244 239 m 1
 183 239 l 1
 183 305 l 1
 244 305 l 1
 244 239 l 1
EndSplineSet
Ligature2: "Ligature Substitution lookup 41 subtable" L periodcentered
Position2: "'cpsp' Capital Spacing lookup 0 subtable" dx=5 dy=0 dh=10 dv=0
EndChar

StartChar: Lslash
Encoding: 321 321 65
Width: 292
VWidth: 659
GlyphClass: 2
Flags: MW
HStem: 0 70<109 279 109 279> 379 20G<35 109 109 109>
VStem: 35 74<70 138 138 138 193 204 260 399>
LayerCount: 2
Back
Fore
SplineSet
109 260 m 1
 177 320 l 1
 177 264 l 1
 109 204 l 1
 109 70 l 1
 279 70 l 1
 279 0 l 1
 35 0 l 1
 35 138 l 1
 0 107 l 1
 0 163 l 1
 35 193 l 1
 35 399 l 1
 109 399 l 1
 109 260 l 1
EndSplineSet
Position2: "'cpsp' Capital Spacing lookup 0 subtable" dx=5 dy=0 dh=10 dv=0
EndChar

StartChar: M
Encoding: 77 77 66
Width: 398
VWidth: 659
GlyphClass: 2
Flags: MW
HStem: 0 21G<31 94 31 31 164 229 164 164 299 367 299 299> 0 89<201 204 201 229 164 204> 319 80<92 94 92 92 299 301 299 299>
VStem: 31 63<0 254> 299 68<0 254 254 263.5 319 319>
LayerCount: 2
Back
Fore
SplineSet
367 0 m 1xb8
 299 0 l 1
 299 254 l 2
 299 273 301 319 301 319 c 1
 299 319 l 1
 297 311 295 303 294 295 c 0
 292 288 291 281 289 273 c 2
 229 0 l 1
 164 0 l 1
 108 256 l 2
 103 277 98 298 94 319 c 1
 92 319 l 1
 92 319 94 270 94 254 c 2
 94 0 l 1
 31 0 l 1
 31 399 l 1
 136 399 l 1
 185 179 l 2
 191 153 201 89 201 89 c 1
 204 89 l 1
 204 89 212 156 217 179 c 2x78
 266 399 l 1
 367 399 l 1
 367 0 l 1xb8
EndSplineSet
Position2: "'cpsp' Capital Spacing lookup 0 subtable" dx=5 dy=0 dh=10 dv=0
EndChar

StartChar: N
Encoding: 78 78 67
Width: 345
VWidth: 659
GlyphClass: 2
Flags: MW
HStem: 0 21G<35 101 35 35 244 310 244 244> 379 20G<35 101 101 101 244 310 310 310>
VStem: 35 66<0 223 0 399> 244 66<0 0 144 399>
AnchorPoint: "Anchor-1" 173 0 basechar 0
AnchorPoint: "Anchor-0" 173 399 basechar 0
LayerCount: 2
Back
Fore
SplineSet
310 0 m 1
 244 0 l 1
 120 220 l 2
 115 229 102 258 102 258 c 1
 100 256 l 1
 100 256 101 233 101 223 c 2
 101 0 l 1
 35 0 l 1
 35 399 l 1
 101 399 l 1
 224 179 l 2
 231 169 243 142 243 142 c 1
 244 144 l 1
 244 399 l 1
 310 399 l 1
 310 0 l 1
EndSplineSet
Position2: "'cpsp' Capital Spacing lookup 0 subtable" dx=5 dy=0 dh=10 dv=0
EndChar

StartChar: Nacute
Encoding: 323 323 68
Width: 345
VWidth: 659
GlyphClass: 2
Flags: MW
HStem: 0 21G<35 101 35 35 244 310 244 244> 379 20G<35 101 101 101 244 310 310 310> 438 77<183 190 132 252>
VStem: 35 66<0 223 0 399> 244 66<0 0 144 399>
LayerCount: 2
Back
Fore
SplineSet
253 513 m 1
 190 438 l 1
 132 438 l 1
 183 515 l 1
 252 515 l 1
 253 513 l 1
310 0 m 1
 244 0 l 1
 120 220 l 2
 115 229 102 258 102 258 c 1
 100 256 l 1
 100 256 101 233 101 223 c 2
 101 0 l 1
 35 0 l 1
 35 399 l 1
 101 399 l 1
 224 179 l 2
 231 169 243 142 243 142 c 1
 244 144 l 1
 244 399 l 1
 310 399 l 1
 310 0 l 1
EndSplineSet
Position2: "'cpsp' Capital Spacing lookup 0 subtable" dx=5 dy=0 dh=10 dv=0
EndChar

StartChar: Ncaron
Encoding: 327 327 69
Width: 345
VWidth: 659
GlyphClass: 2
Flags: MW
HStem: 0 21G<35 101 35 35 244 310 244 244> 379 20G<35 101 101 101 244 310 310 310> 436 79<144 146 198 202 144 144>
VStem: 35 66<0 223 0 399> 244 66<0 0 144 399>
LayerCount: 2
Back
Fore
SplineSet
202 436 m 1
 144 436 l 1
 94 515 l 1
 146 515 l 1
 173 474 l 1
 198 515 l 1
 251 515 l 1
 202 436 l 1
310 0 m 1
 244 0 l 1
 120 220 l 2
 115 229 102 258 102 258 c 1
 100 256 l 1
 100 256 101 233 101 223 c 2
 101 0 l 1
 35 0 l 1
 35 399 l 1
 101 399 l 1
 224 179 l 2
 231 169 243 142 243 142 c 1
 244 144 l 1
 244 399 l 1
 310 399 l 1
 310 0 l 1
EndSplineSet
Position2: "'cpsp' Capital Spacing lookup 0 subtable" dx=5 dy=0 dh=10 dv=0
EndChar

StartChar: Ncommaaccent
Encoding: 325 325 70
Width: 345
VWidth: 659
GlyphClass: 2
Flags: MW
HStem: -103 71<136 165 136 208> 0 21G<35 101 35 35 244 310 244 244> 379 20G<35 101 101 101 244 310 310 310>
VStem: 35 66<0 223 0 399> 136 72<-98 -98 -98 -32 -98 -32> 244 66<0 0 144 399>
LayerCount: 2
Back
Fore
SplineSet
310 0 m 1
 244 0 l 1
 120 220 l 2
 115 229 102 258 102 258 c 1
 100 256 l 1
 100 256 101 233 101 223 c 2
 101 0 l 1
 35 0 l 1
 35 399 l 1
 101 399 l 1
 224 179 l 2
 231 169 243 142 243 142 c 1
 244 144 l 1
 244 399 l 1
 310 399 l 1
 310 0 l 1
208 -98 m 1
 182 -153 l 1
 144 -153 l 1
 165 -103 l 1
 136 -103 l 1
 136 -32 l 1
 208 -32 l 1
 208 -98 l 1
EndSplineSet
Position2: "'cpsp' Capital Spacing lookup 0 subtable" dx=5 dy=0 dh=10 dv=0
EndChar

StartChar: Eng
Encoding: 330 330 71
Width: 345
VWidth: 659
GlyphClass: 2
Flags: MW
HStem: -106 59<188 267> 0 21G<35 101 35 35 242 242> 379 20G<35 101 101 101 244 310 310 310>
VStem: 35 66<0 223 0 399> 244 66<144 399>
LayerCount: 2
Back
Fore
SplineSet
310 -24 m 2
 310 -65 295 -106 239 -106 c 0
 221 -106 200 -103 188 -99 c 1
 188 -47 l 1
 214 -47 l 2
 233 -47 242 -38 242 -19 c 2
 242 0 l 1
 120 220 l 2
 115 229 102 258 102 258 c 1
 100 256 l 1
 100 256 101 233 101 223 c 2
 101 0 l 1
 35 0 l 1
 35 399 l 1
 101 399 l 1
 224 179 l 2
 231 169 243 142 243 142 c 1
 244 144 l 1
 244 399 l 1
 310 399 l 1
 310 -24 l 2
EndSplineSet
Position2: "'cpsp' Capital Spacing lookup 0 subtable" dx=5 dy=0 dh=10 dv=0
EndChar

StartChar: Ntilde
Encoding: 209 209 72
Width: 345
VWidth: 659
GlyphClass: 2
Flags: MW
HStem: 0 21G<35 101 35 35 244 310 244 244> 379 20G<35 101 101 101 244 310 310 310> 444 71<111.5 113 74 139 232 233.5>
VStem: 35 66<0 223 0 399> 244 66<0 0 144 399>
LayerCount: 2
Back
Fore
SplineSet
270 515 m 1
 270 482 254 444 213 444 c 0
 199 444 186 449 173 455 c 0
 161 460 149 465 136 465 c 0
 123 465 115 459 113 444 c 1
 74 444 l 1
 74 475 91 515 132 515 c 0
 146 515 159 509 172 504 c 0
 184 498 196 493 209 493 c 0
 221 493 229 498 232 515 c 1
 270 515 l 1
310 0 m 1
 244 0 l 1
 120 220 l 2
 115 229 102 258 102 258 c 1
 100 256 l 1
 100 256 101 233 101 223 c 2
 101 0 l 1
 35 0 l 1
 35 399 l 1
 101 399 l 1
 224 179 l 2
 231 169 243 142 243 142 c 1
 244 144 l 1
 244 399 l 1
 310 399 l 1
 310 0 l 1
EndSplineSet
Position2: "'cpsp' Capital Spacing lookup 0 subtable" dx=5 dy=0 dh=10 dv=0
EndChar

StartChar: O
Encoding: 79 79 73
Width: 372
VWidth: 659
GlyphClass: 2
Flags: MW
HStem: -7 64<156.5 215.5 156.5 237.5> 343 64<156.5 215.5>
VStem: 20 77<145 185 185 214 145 270.5> 275 77<185 214 214 254>
AnchorPoint: "Anchor-1" 0 0 basechar 0
AnchorPoint: "Anchor-0" 186 399 basechar 0
LayerCount: 2
Back
Fore
SplineSet
186 407 m 0
 289 407 352 341 352 200 c 0
 352 59 289 -7 186 -7 c 0
 83 -7 20 59 20 200 c 0
 20 341 83 407 186 407 c 0
186 343 m 0
 127 343 97 294 97 214 c 2
 97 185 l 2
 97 105 127 57 186 57 c 0
 245 57 275 105 275 185 c 2
 275 214 l 2
 275 294 245 343 186 343 c 0
EndSplineSet
Substitution2: "Single Substitution lookup 42 subtable" ordmasculine
Substitution2: "'aalt' Access All Alternates lookup 0 subtable" ordmasculine
Position2: "'cpsp' Capital Spacing lookup 0 subtable" dx=5 dy=0 dh=10 dv=0
EndChar

StartChar: Oacute
Encoding: 211 211 74
Width: 372
VWidth: 659
GlyphClass: 2
Flags: MW
HStem: -7 64<156.5 215.5 156.5 237.5> 343 64<156.5 215.5> 438 77<196 204 146 266>
VStem: 20 77<145 185 185 214 145 270.5> 275 77<185 214 214 254>
LayerCount: 2
Back
Fore
SplineSet
267 513 m 1
 204 438 l 1
 146 438 l 1
 196 515 l 1
 266 515 l 1
 267 513 l 1
186 407 m 0
 289 407 352 341 352 200 c 0
 352 59 289 -7 186 -7 c 0
 83 -7 20 59 20 200 c 0
 20 341 83 407 186 407 c 0
186 343 m 0
 127 343 97 294 97 214 c 2
 97 185 l 2
 97 105 127 57 186 57 c 0
 245 57 275 105 275 185 c 2
 275 214 l 2
 275 294 245 343 186 343 c 0
EndSplineSet
Position2: "'cpsp' Capital Spacing lookup 0 subtable" dx=5 dy=0 dh=10 dv=0
EndChar

StartChar: Obreve
Encoding: 334 334 75
Width: 372
VWidth: 659
GlyphClass: 2
Flags: MW
HStem: -7 64<156.5 215.5 156.5 237.5> 343 64<156.5 215.5> 452 63<108 210>
VStem: 20 77<145 185 185 214 145 270.5> 275 77<185 214 214 254>
LayerCount: 2
Back
Fore
SplineSet
264 515 m 1
 264 485 234 452 186 452 c 0
 138 452 108 485 108 515 c 1
 152 515 l 1
 153 506 167 495 186 495 c 0
 206 495 219 506 221 515 c 1
 264 515 l 1
186 407 m 0
 289 407 352 341 352 200 c 0
 352 59 289 -7 186 -7 c 0
 83 -7 20 59 20 200 c 0
 20 341 83 407 186 407 c 0
186 343 m 0
 127 343 97 294 97 214 c 2
 97 185 l 2
 97 105 127 57 186 57 c 0
 245 57 275 105 275 185 c 2
 275 214 l 2
 275 294 245 343 186 343 c 0
EndSplineSet
Position2: "'cpsp' Capital Spacing lookup 0 subtable" dx=5 dy=0 dh=10 dv=0
EndChar

StartChar: Ocircumflex
Encoding: 212 212 76
Width: 372
VWidth: 659
GlyphClass: 2
Flags: MW
HStem: -7 64<156.5 215.5 156.5 237.5> 343 64<156.5 215.5> 436 79<158 160 108 215 212 215 158 264 212 212>
VStem: 20 77<145 185 185 214 145 270.5> 275 77<185 214 214 254>
LayerCount: 2
Back
Fore
SplineSet
212 436 m 1
 186 476 l 1
 160 436 l 1
 108 436 l 1
 158 515 l 1
 215 515 l 1
 264 436 l 1
 212 436 l 1
186 407 m 0xd8
 289 407 352 341 352 200 c 0
 352 59 289 -7 186 -7 c 0
 83 -7 20 59 20 200 c 0
 20 341 83 407 186 407 c 0xd8
186 343 m 0
 127 343 97 294 97 214 c 2
 97 185 l 2
 97 105 127 57 186 57 c 0
 245 57 275 105 275 185 c 2
 275 214 l 2
 275 294 245 343 186 343 c 0
EndSplineSet
Position2: "'cpsp' Capital Spacing lookup 0 subtable" dx=5 dy=0 dh=10 dv=0
EndChar

StartChar: Odieresis
Encoding: 214 214 77
Width: 372
VWidth: 659
GlyphClass: 2
Flags: MW
HStem: -7 64<156.5 215.5 156.5 237.5> 343 64<156.5 215.5> 451 64<106 164 106 164 106 208 208 266>
VStem: 20 77<145 185 185 214 145 270.5> 106 58<451 515> 208 58<451 515> 275 77<185 214 214 254>
LayerCount: 2
Back
Fore
SplineSet
164 451 m 1
 106 451 l 1
 106 515 l 1
 164 515 l 1
 164 451 l 1
266 451 m 1
 208 451 l 1
 208 515 l 1
 266 515 l 1
 266 451 l 1
186 407 m 0xf2
 289 407 352 341 352 200 c 0
 352 59 289 -7 186 -7 c 0
 83 -7 20 59 20 200 c 0
 20 341 83 407 186 407 c 0xf2
186 343 m 0
 127 343 97 294 97 214 c 2
 97 185 l 2
 97 105 127 57 186 57 c 0
 245 57 275 105 275 185 c 2
 275 214 l 2
 275 294 245 343 186 343 c 0
EndSplineSet
Position2: "'cpsp' Capital Spacing lookup 0 subtable" dx=5 dy=0 dh=10 dv=0
EndChar

StartChar: Ograve
Encoding: 210 210 78
Width: 372
VWidth: 659
GlyphClass: 2
Flags: MW
HStem: -7 64<156.5 215.5 156.5 237.5> 343 64<156.5 215.5> 438 77<168 176 106 226 168 168>
VStem: 20 77<145 185 185 214 145 270.5> 275 77<185 214 214 254>
LayerCount: 2
Back
Fore
SplineSet
226 438 m 1
 168 438 l 1
 105 513 l 1
 106 515 l 1
 176 515 l 1
 226 438 l 1
186 407 m 0
 289 407 352 341 352 200 c 0
 352 59 289 -7 186 -7 c 0
 83 -7 20 59 20 200 c 0
 20 341 83 407 186 407 c 0
186 343 m 0
 127 343 97 294 97 214 c 2
 97 185 l 2
 97 105 127 57 186 57 c 0
 245 57 275 105 275 185 c 2
 275 214 l 2
 275 294 245 343 186 343 c 0
EndSplineSet
Position2: "'cpsp' Capital Spacing lookup 0 subtable" dx=5 dy=0 dh=10 dv=0
EndChar

StartChar: Ohungarumlaut
Encoding: 336 336 79
Width: 372
VWidth: 659
GlyphClass: 2
Flags: MW
HStem: -7 64<156.5 215.5 156.5 237.5> 343 64<156.5 215.5> 438 77<157 167 121 215 202 202 202 215 239 248>
VStem: 20 77<145 185 185 214 145 270.5> 275 77<185 214 214 254>
LayerCount: 2
Back
Fore
SplineSet
215 513 m 1
 167 438 l 1
 121 438 l 1
 157 515 l 1
 215 515 l 1
 215 513 l 1
297 513 m 1
 248 438 l 1
 202 438 l 1
 239 515 l 1
 297 515 l 1
 297 513 l 1
186 407 m 0
 289 407 352 341 352 200 c 0
 352 59 289 -7 186 -7 c 0
 83 -7 20 59 20 200 c 0
 20 341 83 407 186 407 c 0
186 343 m 0
 127 343 97 294 97 214 c 2
 97 185 l 2
 97 105 127 57 186 57 c 0
 245 57 275 105 275 185 c 2
 275 214 l 2
 275 294 245 343 186 343 c 0
EndSplineSet
Position2: "'cpsp' Capital Spacing lookup 0 subtable" dx=5 dy=0 dh=10 dv=0
EndChar

StartChar: Omacron
Encoding: 332 332 80
Width: 372
VWidth: 659
GlyphClass: 2
Flags: MW
HStem: -7 64<156.5 215.5 156.5 237.5> 343 64<156.5 215.5> 442 51<112 260 112 260>
VStem: 20 77<145 185 185 214 145 270.5> 112 148<442 493 442 493> 275 77<185 214 214 254>
LayerCount: 2
Back
Fore
SplineSet
112 442 m 1
 112 493 l 1
 260 493 l 1
 260 442 l 1
 112 442 l 1
186 407 m 0xf4
 289 407 352 341 352 200 c 0
 352 59 289 -7 186 -7 c 0
 83 -7 20 59 20 200 c 0
 20 341 83 407 186 407 c 0xf4
186 343 m 0
 127 343 97 294 97 214 c 2
 97 185 l 2
 97 105 127 57 186 57 c 0
 245 57 275 105 275 185 c 2
 275 214 l 2
 275 294 245 343 186 343 c 0
EndSplineSet
Position2: "'cpsp' Capital Spacing lookup 0 subtable" dx=5 dy=0 dh=10 dv=0
EndChar

StartChar: Oslash
Encoding: 216 216 81
Width: 372
VWidth: 659
GlyphClass: 2
Flags: MW
HStem: -7 64<175 215.5 175 237.5> 343 64<156.5 197> 355 66<308 308>
VStem: 20 77<171.5 185 185 214 171.5 270.5> 275 77<185 214 214 228>
AnchorPoint: "Anchor-1" 0 0 basechar 0
AnchorPoint: "Anchor-0" 186 399 basechar 0
LayerCount: 2
Back
Fore
SplineSet
308 355 m 1xb8
 336 322 352 270 352 200 c 0
 352 59 289 -7 186 -7 c 0
 151 -7 121 1 96 16 c 1
 72 -22 l 1
 23 -22 l 1
 64 43 l 1
 36 78 20 129 20 200 c 0
 20 341 83 407 186 407 c 0
 221 407 251 399 276 384 c 1xd8
 300 421 l 1
 349 421 l 1
 308 355 l 1xb8
186 343 m 0xd8
 127 343 97 294 97 214 c 2
 97 185 l 2
 97 158 100 133 107 113 c 1
 239 324 l 1
 225 336 208 343 186 343 c 0xd8
133 75 m 1
 146 63 164 57 186 57 c 0
 245 57 275 105 275 185 c 2
 275 214 l 2
 275 242 272 266 264 285 c 1
 133 75 l 1
EndSplineSet
Position2: "'cpsp' Capital Spacing lookup 0 subtable" dx=5 dy=0 dh=10 dv=0
EndChar

StartChar: Oslashacute
Encoding: 510 510 82
Width: 372
VWidth: 659
GlyphClass: 2
Flags: MW
HStem: -7 64<175 215.5 175 237.5> 343 64<156.5 197> 355 66<308 308> 438 77<196 204 146 266>
VStem: 20 77<171.5 185 185 214 171.5 270.5> 275 77<185 214 214 228>
LayerCount: 2
Back
Fore
SplineSet
267 513 m 1xdc
 204 438 l 1
 146 438 l 1
 196 515 l 1
 266 515 l 1
 267 513 l 1xdc
308 355 m 1xbc
 336 322 352 270 352 200 c 0
 352 59 289 -7 186 -7 c 0
 151 -7 121 1 96 16 c 1
 72 -22 l 1
 23 -22 l 1
 64 43 l 1
 36 78 20 129 20 200 c 0
 20 341 83 407 186 407 c 0
 221 407 251 399 276 384 c 1xdc
 300 421 l 1
 349 421 l 1
 308 355 l 1xbc
186 343 m 0xdc
 127 343 97 294 97 214 c 2
 97 185 l 2
 97 158 100 133 107 113 c 1
 239 324 l 1
 225 336 208 343 186 343 c 0xdc
133 75 m 1
 146 63 164 57 186 57 c 0
 245 57 275 105 275 185 c 2
 275 214 l 2
 275 242 272 266 264 285 c 1
 133 75 l 1
EndSplineSet
Position2: "'cpsp' Capital Spacing lookup 0 subtable" dx=5 dy=0 dh=10 dv=0
EndChar

StartChar: Otilde
Encoding: 213 213 83
Width: 372
VWidth: 659
GlyphClass: 2
Flags: MW
HStem: -7 64<156.5 215.5 156.5 237.5> 343 64<156.5 215.5> 444 71<125.5 127 88 153 245 247.5>
VStem: 20 77<145 185 185 214 145 270.5> 245 39<498.5 515> 275 77<185 214 214 254>
LayerCount: 2
Back
Fore
SplineSet
284 515 m 1xf8
 284 482 268 444 227 444 c 0
 212 444 199 450 186 455 c 0
 174 460 163 465 150 465 c 0
 137 465 129 459 127 444 c 1
 88 444 l 1
 88 475 105 515 146 515 c 0
 160 515 173 509 185 504 c 0
 197 498 210 493 223 493 c 0
 235 493 243 498 245 515 c 1
 284 515 l 1xf8
186 407 m 0xf4
 289 407 352 341 352 200 c 0
 352 59 289 -7 186 -7 c 0
 83 -7 20 59 20 200 c 0
 20 341 83 407 186 407 c 0xf4
186 343 m 0
 127 343 97 294 97 214 c 2
 97 185 l 2
 97 105 127 57 186 57 c 0
 245 57 275 105 275 185 c 2
 275 214 l 2
 275 294 245 343 186 343 c 0
EndSplineSet
Position2: "'cpsp' Capital Spacing lookup 0 subtable" dx=5 dy=0 dh=10 dv=0
EndChar

StartChar: OE
Encoding: 338 338 84
Width: 478
VWidth: 659
GlyphClass: 2
Flags: MW
HStem: -7 64<141.5 168> 0 57<141.5 461 141.5 238> 0 67<312 461 312 461> 171 67<312 432 312 432> 333 66<312 457 312 312> 343 56<141.5 457> 343 64<141.5 168 109 189.5>
VStem: 18 76<139.5 185 185 214 139.5 270.5> 238 74<0 171 36 171>
AnchorPoint: "Anchor-1" 0 0 basechar 0
AnchorPoint: "Anchor-0" 239 399 basechar 0
LayerCount: 2
Back
Fore
SplineSet
150 407 m 0x9380
 186 407 215 393 238 364 c 1x3380
 238 399 l 1
 457 399 l 1
 457 333 l 1
 312 333 l 1
 312 238 l 1
 432 238 l 1
 432 171 l 1
 312 171 l 1
 312 67 l 1
 461 67 l 1
 461 0 l 1
 238 0 l 1x3980
 238 36 l 1
 215 7 186 -7 150 -7 c 0
 68 -7 18 59 18 200 c 0
 18 341 68 407 150 407 c 0x9380
165 343 m 0x5580
 118 343 94 306 94 214 c 2
 94 185 l 2
 94 94 118 57 165 57 c 0
 214 57 237 94 237 185 c 2
 237 214 l 2
 237 306 214 343 165 343 c 0x5580
EndSplineSet
Position2: "'cpsp' Capital Spacing lookup 0 subtable" dx=5 dy=0 dh=10 dv=0
EndChar

StartChar: P
Encoding: 80 80 85
Width: 319
VWidth: 659
GlyphClass: 2
Flags: MW
HStem: 0 21G<35 109 35 35> 155 66<109 170 170 178 109 170> 333 66<109 170 109 109>
VStem: 35 74<0 155 221 333> 226 77<261 295.5>
LayerCount: 2
Back
Fore
SplineSet
109 0 m 1
 35 0 l 1
 35 399 l 1
 178 399 l 2
 260 399 303 349 303 279 c 0
 303 204 253 155 178 155 c 2
 109 155 l 1
 109 0 l 1
109 221 m 1
 170 221 l 2
 206 221 226 243 226 279 c 0
 226 312 206 333 170 333 c 2
 109 333 l 1
 109 221 l 1
EndSplineSet
Position2: "'cpsp' Capital Spacing lookup 0 subtable" dx=5 dy=0 dh=10 dv=0
EndChar

StartChar: Thorn
Encoding: 222 222 86
Width: 319
VWidth: 659
GlyphClass: 2
Flags: MW
HStem: 0 150<35 170 35 170> 84 66<109 170 170 178 109 170> 262 67<109 178 109 170> 262 137<35 109 35 170>
VStem: 35 74<0 84 0 150 150 262 329 399> 226 77<190 224.5>
LayerCount: 2
Back
Fore
SplineSet
109 329 m 1xac
 178 329 l 2
 260 329 303 278 303 208 c 0
 303 133 253 84 178 84 c 2
 109 84 l 1x6c
 109 0 l 1
 35 0 l 1
 35 399 l 1
 109 399 l 1x9c
 109 329 l 1xac
109 262 m 1
 109 150 l 1
 170 150 l 2xac
 206 150 226 172 226 208 c 0
 226 241 206 262 170 262 c 2
 109 262 l 1
EndSplineSet
Position2: "'cpsp' Capital Spacing lookup 0 subtable" dx=5 dy=0 dh=10 dv=0
EndChar

StartChar: Q
Encoding: 81 81 87
Width: 372
VWidth: 659
GlyphClass: 2
Flags: MW
HStem: -7 64<156.5 186 186 193> 343 64<156.5 215.5>
VStem: 20 77<145 185 185 214 145 270.5> 275 77<185 214 214 254>
LayerCount: 2
Back
Fore
SplineSet
20 200 m 0
 20 341 83 407 186 407 c 0
 289 407 352 341 352 200 c 0
 352 100 320 38 265 10 c 1
 342 -72 l 1
 250 -72 l 1
 193 -7 l 1
 186 -7 l 2
 83 -7 20 59 20 200 c 0
97 185 m 2
 97 105 127 57 186 57 c 0
 245 57 275 105 275 185 c 2
 275 214 l 2
 275 294 245 343 186 343 c 0
 127 343 97 294 97 214 c 2
 97 185 l 2
EndSplineSet
Position2: "'cpsp' Capital Spacing lookup 0 subtable" dx=5 dy=0 dh=10 dv=0
EndChar

StartChar: R
Encoding: 82 82 88
Width: 345
VWidth: 659
GlyphClass: 2
Flags: MW
HStem: 0 21G<35 109 35 35 254 334 254 254> 167 66<109 187 109 192> 333 66<109 109 109 194>
VStem: 35 74<0 167 0 233 233 333> 244 80<268.5 299.5>
AnchorPoint: "Anchor-1" 173 0 basechar 0
AnchorPoint: "Anchor-0" 173 399 basechar 0
LayerCount: 2
Back
Fore
SplineSet
202 399 m 2
 283 399 324 351 324 285 c 0
 324 237 299 200 258 183 c 1
 334 0 l 1
 254 0 l 1
 187 167 l 1
 109 167 l 1
 109 0 l 1
 35 0 l 1
 35 399 l 1
 202 399 l 2
109 333 m 1
 109 233 l 1
 192 233 l 2
 228 233 244 252 244 285 c 0
 244 314 229 333 194 333 c 2
 109 333 l 1
EndSplineSet
Position2: "'cpsp' Capital Spacing lookup 0 subtable" dx=5 dy=0 dh=10 dv=0
EndChar

StartChar: Racute
Encoding: 340 340 89
Width: 345
VWidth: 659
GlyphClass: 2
Flags: MW
HStem: 0 21G<35 109 35 35 254 334 254 254> 167 66<109 187 109 192> 333 66<109 109 109 194> 438 77<183 190 132 252>
VStem: 35 74<0 167 0 233 233 333> 244 80<268.5 299.5>
LayerCount: 2
Back
Fore
SplineSet
253 513 m 1
 190 438 l 1
 132 438 l 1
 183 515 l 1
 252 515 l 1
 253 513 l 1
202 399 m 2
 283 399 324 351 324 285 c 0
 324 237 299 200 258 183 c 1
 334 0 l 1
 254 0 l 1
 187 167 l 1
 109 167 l 1
 109 0 l 1
 35 0 l 1
 35 399 l 1
 202 399 l 2
109 333 m 1
 109 233 l 1
 192 233 l 2
 228 233 244 252 244 285 c 0
 244 314 229 333 194 333 c 2
 109 333 l 1
EndSplineSet
Position2: "'cpsp' Capital Spacing lookup 0 subtable" dx=5 dy=0 dh=10 dv=0
EndChar

StartChar: Rcaron
Encoding: 344 344 90
Width: 345
VWidth: 659
GlyphClass: 2
Flags: MW
HStem: 0 21G<35 109 35 35 254 334 254 254> 167 66<109 187 109 192> 333 66<109 109 109 194> 436 79<144 146 198 202 144 144>
VStem: 35 74<0 167 0 233 233 333> 244 80<268.5 299.5>
LayerCount: 2
Back
Fore
SplineSet
202 436 m 1
 144 436 l 1
 94 515 l 1
 146 515 l 1
 173 474 l 1
 198 515 l 1
 251 515 l 1
 202 436 l 1
202 399 m 2
 283 399 324 351 324 285 c 0
 324 237 299 200 258 183 c 1
 334 0 l 1
 254 0 l 1
 187 167 l 1
 109 167 l 1
 109 0 l 1
 35 0 l 1
 35 399 l 1
 202 399 l 2
109 333 m 1
 109 233 l 1
 192 233 l 2
 228 233 244 252 244 285 c 0
 244 314 229 333 194 333 c 2
 109 333 l 1
EndSplineSet
Position2: "'cpsp' Capital Spacing lookup 0 subtable" dx=5 dy=0 dh=10 dv=0
EndChar

StartChar: Rcommaaccent
Encoding: 342 342 91
Width: 345
VWidth: 659
GlyphClass: 2
Flags: MW
HStem: -103 71<136 165 136 208> 0 21G<35 109 35 35 254 334 254 254> 167 66<109 187 109 192> 333 66<109 109 109 194>
VStem: 35 74<0 167 0 233 233 333> 136 72<-98 -98 -98 -32 -98 -32> 244 80<268.5 299.5>
LayerCount: 2
Back
Fore
SplineSet
202 399 m 2
 283 399 324 351 324 285 c 0
 324 237 299 200 258 183 c 1
 334 0 l 1
 254 0 l 1
 187 167 l 1
 109 167 l 1
 109 0 l 1
 35 0 l 1
 35 399 l 1
 202 399 l 2
109 333 m 1
 109 233 l 1
 192 233 l 2
 228 233 244 252 244 285 c 0
 244 314 229 333 194 333 c 2
 109 333 l 1
208 -98 m 1xfe
 182 -153 l 1
 144 -153 l 1
 165 -103 l 1
 136 -103 l 1
 136 -32 l 1
 208 -32 l 1
 208 -98 l 1xfe
EndSplineSet
Position2: "'cpsp' Capital Spacing lookup 0 subtable" dx=5 dy=0 dh=10 dv=0
EndChar

StartChar: S
Encoding: 83 83 92
Width: 319
VWidth: 659
GlyphClass: 2
Flags: MW
HStem: -7 64<138.5 181.5 138.5 197.5> 343 64<140.5 175>
VStem: 18 77<117 121 102 130 102 130> 26 77<282.5 312 282.5 332.5> 213 76<282 287 287 289 282 304> 219 78<92.5 125>
AnchorPoint: "Anchor-1" 159 0 basechar 0
AnchorPoint: "Anchor-0" 159 399 basechar 0
LayerCount: 2
Back
Fore
SplineSet
159 407 m 0xd8
 230 407 289 371 289 289 c 2
 289 282 l 1
 213 282 l 1
 213 287 l 2
 213 321 192 343 158 343 c 0
 123 343 103 324 103 300 c 0xd8
 103 265 138 254 179 242 c 0
 233 225 297 204 297 120 c 0
 297 28 239 -7 156 -7 c 0
 82 -7 18 35 18 117 c 2
 18 130 l 1
 96 130 l 1
 95 121 l 1
 95 83 118 57 159 57 c 0
 204 57 219 81 219 104 c 0xe4
 219 146 181 158 139 172 c 0
 86 190 26 210 26 295 c 0
 26 370 88 407 159 407 c 0xd8
EndSplineSet
Position2: "'cpsp' Capital Spacing lookup 0 subtable" dx=5 dy=0 dh=10 dv=0
EndChar

StartChar: Sacute
Encoding: 346 346 93
Width: 319
VWidth: 659
GlyphClass: 2
Flags: MW
HStem: -7 64<138.5 181.5 138.5 197.5> 343 64<140.5 175> 438 77<169 177 119 239>
VStem: 18 77<117 121 102 130 102 130> 26 77<282.5 312 282.5 332.5> 213 76<282 287 287 289 282 304> 219 78<92.5 125>
LayerCount: 2
Back
Fore
SplineSet
240 513 m 1xea
 177 438 l 1
 119 438 l 1
 169 515 l 1
 239 515 l 1
 240 513 l 1xea
159 407 m 0xec
 230 407 289 371 289 289 c 2
 289 282 l 1
 213 282 l 1
 213 287 l 2
 213 321 192 343 158 343 c 0
 123 343 103 324 103 300 c 0xec
 103 265 138 254 179 242 c 0
 233 225 297 204 297 120 c 0
 297 28 239 -7 156 -7 c 0
 82 -7 18 35 18 117 c 2
 18 130 l 1
 96 130 l 1
 95 121 l 1
 95 83 118 57 159 57 c 0
 204 57 219 81 219 104 c 0xf2
 219 146 181 158 139 172 c 0
 86 190 26 210 26 295 c 0
 26 370 88 407 159 407 c 0xec
EndSplineSet
Position2: "'cpsp' Capital Spacing lookup 0 subtable" dx=5 dy=0 dh=10 dv=0
EndChar

StartChar: Scaron
Encoding: 352 352 94
Width: 319
VWidth: 659
GlyphClass: 2
Flags: MW
HStem: -7 64<138.5 181.5 138.5 197.5> 343 64<140.5 175> 436 79<131 131 131 133 185 188>
VStem: 18 77<117 121 102 130 102 130> 26 77<282.5 312 282.5 332.5> 213 76<282 287 287 289 282 304> 219 78<92.5 125>
LayerCount: 2
Back
Fore
SplineSet
131 436 m 1xea
 81 515 l 1
 133 515 l 1
 159 474 l 1
 185 515 l 1
 238 515 l 1
 188 436 l 1
 131 436 l 1xea
159 407 m 0xcc
 230 407 289 371 289 289 c 2
 289 282 l 1
 213 282 l 1
 213 287 l 2
 213 321 192 343 158 343 c 0
 123 343 103 324 103 300 c 0xcc
 103 265 138 254 179 242 c 0
 233 225 297 204 297 120 c 0
 297 28 239 -7 156 -7 c 0
 82 -7 18 35 18 117 c 2
 18 130 l 1
 96 130 l 1
 95 121 l 1
 95 83 118 57 159 57 c 0
 204 57 219 81 219 104 c 0xd2
 219 146 181 158 139 172 c 0
 86 190 26 210 26 295 c 0
 26 370 88 407 159 407 c 0xcc
EndSplineSet
Position2: "'cpsp' Capital Spacing lookup 0 subtable" dx=5 dy=0 dh=10 dv=0
EndChar

StartChar: Scedilla
Encoding: 350 350 95
Width: 319
VWidth: 659
GlyphClass: 2
Flags: MW
HStem: -106 33<144 151 103 164.5> -101 28<103 144> -45 26<127 169> -7 21G<171 171> -5 21G<131 131> -5 62<131 181.5> 343 64<140.5 175>
VStem: 18 77<117 121 102 130 102 130> 26 77<282.5 312> 129 41 165 50<-64.5 -54> 213 76<282 287 287 289 282 304> 219 78<92.5 125>
LayerCount: 2
Back
Fore
SplineSet
159 407 m 0x8a90
 230 407 289 371 289 289 c 2
 289 282 l 1
 213 282 l 1
 213 287 l 2
 213 321 192 343 158 343 c 0
 123 343 103 324 103 300 c 0x8a90
 103 265 138 254 179 242 c 0
 233 225 297 204 297 120 c 0
 297 34 245 -2 171 -7 c 1x92c8
 169 -19 l 1xaaa0
 194 -21 215 -32 215 -59 c 0
 215 -98 177 -106 152 -106 c 0x8aa0
 136 -106 117 -104 103 -101 c 1x4a88
 103 -73 l 1
 144 -73 l 2x8aa0
 158 -73 165 -70 165 -59 c 0
 165 -49 161 -45 146 -45 c 2xaaa0
 127 -45 l 1xaac8
 131 -5 l 1
 68 3 18 43 18 117 c 2
 18 130 l 1
 96 130 l 1
 95 121 l 1
 95 83 118 57 159 57 c 0
 204 57 219 81 219 104 c 0x8708
 219 146 181 158 139 172 c 0
 86 190 26 210 26 295 c 0
 26 370 88 407 159 407 c 0x8a90
EndSplineSet
Substitution2: "'locl' Localized Forms in Latin lookup 6 subtable" Scommaaccent
Substitution2: "'locl' Localized Forms in Latin lookup 5 subtable" Scommaaccent
Substitution2: "'aalt' Access All Alternates lookup 0 subtable" Scommaaccent
Position2: "'cpsp' Capital Spacing lookup 0 subtable" dx=5 dy=0 dh=10 dv=0
EndChar

StartChar: Scircumflex
Encoding: 348 348 96
Width: 319
VWidth: 659
GlyphClass: 2
Flags: MW
HStem: -7 64<138.5 181.5 138.5 197.5> 343 64<140.5 175> 436 79<131 133 81 188 185 188 131 238 185 185>
VStem: 18 77<117 121 102 130 102 130> 26 77<282.5 312 282.5 332.5> 213 76<282 287 287 289 282 304> 219 78<92.5 125>
LayerCount: 2
Back
Fore
SplineSet
185 436 m 1xea
 159 476 l 1
 133 436 l 1
 81 436 l 1
 131 515 l 1
 188 515 l 1
 238 436 l 1
 185 436 l 1xea
159 407 m 0xcc
 230 407 289 371 289 289 c 2
 289 282 l 1
 213 282 l 1
 213 287 l 2
 213 321 192 343 158 343 c 0
 123 343 103 324 103 300 c 0xcc
 103 265 138 254 179 242 c 0
 233 225 297 204 297 120 c 0
 297 28 239 -7 156 -7 c 0
 82 -7 18 35 18 117 c 2
 18 130 l 1
 96 130 l 1
 95 121 l 1
 95 83 118 57 159 57 c 0
 204 57 219 81 219 104 c 0xd2
 219 146 181 158 139 172 c 0
 86 190 26 210 26 295 c 0
 26 370 88 407 159 407 c 0xcc
EndSplineSet
Position2: "'cpsp' Capital Spacing lookup 0 subtable" dx=5 dy=0 dh=10 dv=0
EndChar

StartChar: Scommaaccent
Encoding: 536 536 97
Width: 319
VWidth: 659
GlyphClass: 2
Flags: MW
HStem: -103 71<122 151 122 195> -7 64<138.5 181.5 138.5 197.5> 343 64<140.5 175>
VStem: 18 77<117 121 102 130 102 130> 26 77<282.5 312 282.5 332.5> 122 73<-98 -32 -98 -32 -98 -32> 213 76<282 287 287 289 282 304> 219 78<92.5 125>
AnchorPoint: "Anchor-1" 159 0 basechar 0
AnchorPoint: "Anchor-0" 159 399 basechar 0
LayerCount: 2
Back
Fore
SplineSet
159 407 m 0x6a
 230 407 289 371 289 289 c 2
 289 282 l 1
 213 282 l 1
 213 287 l 2
 213 321 192 343 158 343 c 0
 123 343 103 324 103 300 c 0x6a
 103 265 138 254 179 242 c 0
 233 225 297 204 297 120 c 0
 297 28 239 -7 156 -7 c 0
 82 -7 18 35 18 117 c 2
 18 130 l 1
 96 130 l 1
 95 121 l 1
 95 83 118 57 159 57 c 0
 204 57 219 81 219 104 c 0x71
 219 146 181 158 139 172 c 0
 86 190 26 210 26 295 c 0
 26 370 88 407 159 407 c 0x6a
168 -153 m 1xed
 130 -153 l 1
 151 -103 l 1
 122 -103 l 1
 122 -32 l 1
 195 -32 l 1
 195 -98 l 1
 168 -153 l 1xed
EndSplineSet
Position2: "'cpsp' Capital Spacing lookup 0 subtable" dx=5 dy=0 dh=10 dv=0
EndChar

StartChar: T
Encoding: 84 84 98
Width: 292
VWidth: 659
GlyphClass: 2
Flags: MW
HStem: 0 21G<109 183 109 109> 333 66<10 109 10 283 183 283 183 183>
VStem: 109 74<0 333 0 333>
AnchorPoint: "Anchor-1" 146 0 basechar 0
AnchorPoint: "Anchor-0" 146 399 basechar 0
LayerCount: 2
Back
Fore
SplineSet
283 333 m 1
 183 333 l 1
 183 0 l 1
 109 0 l 1
 109 333 l 1
 10 333 l 1
 10 399 l 1
 283 399 l 1
 283 333 l 1
EndSplineSet
Position2: "'cpsp' Capital Spacing lookup 0 subtable" dx=5 dy=0 dh=10 dv=0
EndChar

StartChar: Tbar
Encoding: 358 358 99
Width: 292
VWidth: 659
GlyphClass: 2
Flags: MW
HStem: 0 21G<109 183 109 109> 179 50<43 109 43 109 183 248> 333 66<10 109 10 283 183 283 183 183>
VStem: 109 74<0 179 0 179 229 333>
LayerCount: 2
Back
Fore
SplineSet
283 333 m 1
 183 333 l 1
 183 229 l 1
 248 229 l 1
 248 179 l 1
 183 179 l 1
 183 0 l 1
 109 0 l 1
 109 179 l 1
 43 179 l 1
 43 229 l 1
 109 229 l 1
 109 333 l 1
 10 333 l 1
 10 399 l 1
 283 399 l 1
 283 333 l 1
EndSplineSet
Position2: "'cpsp' Capital Spacing lookup 0 subtable" dx=5 dy=0 dh=10 dv=0
EndChar

StartChar: Tcaron
Encoding: 356 356 100
Width: 292
VWidth: 659
GlyphClass: 2
Flags: MW
HStem: 0 21G<109 183 109 109> 333 66<10 109 10 283 183 283 183 183> 436 79<118 120 172 175 118 118>
VStem: 109 74<0 333 0 333>
LayerCount: 2
Back
Fore
SplineSet
175 436 m 1
 118 436 l 1
 68 515 l 1
 120 515 l 1
 146 474 l 1
 172 515 l 1
 224 515 l 1
 175 436 l 1
283 333 m 1
 183 333 l 1
 183 0 l 1
 109 0 l 1
 109 333 l 1
 10 333 l 1
 10 399 l 1
 283 399 l 1
 283 333 l 1
EndSplineSet
Position2: "'cpsp' Capital Spacing lookup 0 subtable" dx=5 dy=0 dh=10 dv=0
EndChar

StartChar: uni0162
Encoding: 354 354 101
Width: 292
VWidth: 659
GlyphClass: 2
Flags: MW
HStem: -106 33<129.5 131 131 137 89 150.5> -101 28<89 131> -45 26<112 156> 0 21G<109 118 109 109 157 183 157 157> 333 66<10 109 10 283 183 183 183 283>
VStem: 109 74<0 333> 131 70<-73 -73 -78.5 -45>
AnchorPoint: "Anchor-1" 146 0 basechar 0
AnchorPoint: "Anchor-0" 146 399 basechar 0
LayerCount: 2
Back
Fore
SplineSet
183 0 m 1x9c
 157 0 l 1x9c
 156 -19 l 1xbc
 181 -21 201 -32 201 -59 c 0
 201 -98 163 -106 138 -106 c 0x9a
 121 -106 103 -104 89 -101 c 1x5c
 89 -73 l 1
 131 -73 l 2
 143 -73 151 -70 151 -59 c 0x9a
 151 -49 146 -45 131 -45 c 2
 112 -45 l 1xba
 118 0 l 1
 109 0 l 1
 109 333 l 1
 10 333 l 1
 10 399 l 1
 283 399 l 1
 283 333 l 1
 183 333 l 1
 183 0 l 1x9c
EndSplineSet
Substitution2: "'locl' Localized Forms in Latin lookup 6 subtable" uni021A
Substitution2: "'locl' Localized Forms in Latin lookup 5 subtable" uni021A
Substitution2: "'aalt' Access All Alternates lookup 0 subtable" uni021A
Position2: "'cpsp' Capital Spacing lookup 0 subtable" dx=5 dy=0 dh=10 dv=0
EndChar

StartChar: uni021A
Encoding: 538 538 102
Width: 292
VWidth: 659
GlyphClass: 2
Flags: MW
HStem: -103 71<110 138 110 182> 0 21G<109 183 109 109> 333 66<10 109 10 283 183 283 183 183>
VStem: 109 74<0 333 0 333>
LayerCount: 2
Back
Fore
SplineSet
283 333 m 1
 183 333 l 1
 183 0 l 1
 109 0 l 1
 109 333 l 1
 10 333 l 1
 10 399 l 1
 283 399 l 1
 283 333 l 1
182 -98 m 1
 156 -153 l 1
 118 -153 l 1
 138 -103 l 1
 110 -103 l 1
 110 -32 l 1
 182 -32 l 1
 182 -98 l 1
EndSplineSet
Position2: "'cpsp' Capital Spacing lookup 0 subtable" dx=5 dy=0 dh=10 dv=0
EndChar

StartChar: U
Encoding: 85 85 103
Width: 345
VWidth: 659
GlyphClass: 2
Flags: MW
HStem: -7 64<153 192.5 153 215.5> 379 20G<36 110 110 110 235 310 310 310>
VStem: 36 74<125 128 128 399> 235 75<128 399>
AnchorPoint: "Anchor-1" 0 0 basechar 0
AnchorPoint: "Anchor-0" 173 399 basechar 0
LayerCount: 2
Back
Fore
SplineSet
310 125 m 2
 310 38 258 -7 173 -7 c 0
 87 -7 36 38 36 125 c 2
 36 399 l 1
 110 399 l 1
 110 128 l 2
 110 82 133 57 173 57 c 0
 212 57 235 82 235 128 c 2
 235 399 l 1
 310 399 l 1
 310 125 l 2
EndSplineSet
Position2: "'cpsp' Capital Spacing lookup 0 subtable" dx=5 dy=0 dh=10 dv=0
EndChar

StartChar: Uacute
Encoding: 218 218 104
Width: 345
VWidth: 659
GlyphClass: 2
Flags: MW
HStem: -7 64<153 192.5 153 215.5> 379 20G<36 110 110 110 235 310 310 310> 438 77<183 190 132 252>
VStem: 36 74<125 128 128 399> 235 75<128 399>
LayerCount: 2
Back
Fore
SplineSet
253 513 m 1
 190 438 l 1
 132 438 l 1
 183 515 l 1
 252 515 l 1
 253 513 l 1
310 125 m 2
 310 38 258 -7 173 -7 c 0
 87 -7 36 38 36 125 c 2
 36 399 l 1
 110 399 l 1
 110 128 l 2
 110 82 133 57 173 57 c 0
 212 57 235 82 235 128 c 2
 235 399 l 1
 310 399 l 1
 310 125 l 2
EndSplineSet
Position2: "'cpsp' Capital Spacing lookup 0 subtable" dx=5 dy=0 dh=10 dv=0
EndChar

StartChar: Ubreve
Encoding: 364 364 105
Width: 345
VWidth: 659
GlyphClass: 2
Flags: MW
HStem: -7 64<153 192.5 153 215.5> 379 20G<36 110 110 110 235 310 310 310> 452 63<95 196>
VStem: 36 74<125 128 128 399> 235 75<128 399>
LayerCount: 2
Back
Fore
SplineSet
250 515 m 1
 250 485 220 452 172 452 c 0
 124 452 95 485 95 515 c 1
 138 515 l 1
 140 506 153 495 172 495 c 0
 192 495 206 506 207 515 c 1
 250 515 l 1
310 125 m 2
 310 38 258 -7 173 -7 c 0
 87 -7 36 38 36 125 c 2
 36 399 l 1
 110 399 l 1
 110 128 l 2
 110 82 133 57 173 57 c 0
 212 57 235 82 235 128 c 2
 235 399 l 1
 310 399 l 1
 310 125 l 2
EndSplineSet
Position2: "'cpsp' Capital Spacing lookup 0 subtable" dx=5 dy=0 dh=10 dv=0
EndChar

StartChar: Ucircumflex
Encoding: 219 219 106
Width: 345
VWidth: 659
GlyphClass: 2
Flags: MW
HStem: -7 64<153 192.5 153 215.5> 379 20G<36 110 110 110 235 310 310 310> 436 79<144 146 94 202 198 202 144 251 198 198>
VStem: 36 74<125 128 128 399> 235 75<128 399>
LayerCount: 2
Back
Fore
SplineSet
251 436 m 1
 198 436 l 1
 173 476 l 1
 146 436 l 1
 94 436 l 1
 144 515 l 1
 202 515 l 1
 251 436 l 1
310 125 m 2
 310 38 258 -7 173 -7 c 0
 87 -7 36 38 36 125 c 2
 36 399 l 1
 110 399 l 1
 110 128 l 2
 110 82 133 57 173 57 c 0
 212 57 235 82 235 128 c 2
 235 399 l 1
 310 399 l 1
 310 125 l 2
EndSplineSet
Position2: "'cpsp' Capital Spacing lookup 0 subtable" dx=5 dy=0 dh=10 dv=0
EndChar

StartChar: Udieresis
Encoding: 220 220 107
Width: 345
VWidth: 659
GlyphClass: 2
Flags: MW
HStem: -7 64<153 192.5 153 215.5> 379 20G<36 110 110 110 235 310 310 310> 451 64<93 151 93 151 93 194 194 253>
VStem: 36 74<125 128 128 399> 93 58<451 515> 194 59<451 515> 235 75<128 399>
LayerCount: 2
Back
Fore
SplineSet
151 451 m 1xec
 93 451 l 1
 93 515 l 1
 151 515 l 1
 151 451 l 1xec
253 451 m 1
 194 451 l 1
 194 515 l 1
 253 515 l 1
 253 451 l 1
310 125 m 2xf2
 310 38 258 -7 173 -7 c 0
 87 -7 36 38 36 125 c 2
 36 399 l 1
 110 399 l 1
 110 128 l 2
 110 82 133 57 173 57 c 0
 212 57 235 82 235 128 c 2
 235 399 l 1
 310 399 l 1
 310 125 l 2xf2
EndSplineSet
Position2: "'cpsp' Capital Spacing lookup 0 subtable" dx=5 dy=0 dh=10 dv=0
EndChar

StartChar: Ugrave
Encoding: 217 217 108
Width: 345
VWidth: 659
GlyphClass: 2
Flags: MW
HStem: -7 64<153 192.5 153 215.5> 379 20G<36 110 110 110 235 310 310 310> 438 77<155 163 93 213 155 155>
VStem: 36 74<125 128 128 399> 235 75<128 399>
LayerCount: 2
Back
Fore
SplineSet
213 438 m 1
 155 438 l 1
 92 513 l 1
 93 515 l 1
 163 515 l 1
 213 438 l 1
310 125 m 2
 310 38 258 -7 173 -7 c 0
 87 -7 36 38 36 125 c 2
 36 399 l 1
 110 399 l 1
 110 128 l 2
 110 82 133 57 173 57 c 0
 212 57 235 82 235 128 c 2
 235 399 l 1
 310 399 l 1
 310 125 l 2
EndSplineSet
Position2: "'cpsp' Capital Spacing lookup 0 subtable" dx=5 dy=0 dh=10 dv=0
EndChar

StartChar: Uhungarumlaut
Encoding: 368 368 109
Width: 345
VWidth: 659
GlyphClass: 2
Flags: MW
HStem: -7 64<153 192.5 153 215.5> 379 20G<36 110 110 110 235 310 310 310> 438 77<143 153 107 201 188 188 188 201 224 234>
VStem: 36 74<125 128 128 399> 235 75<128 399>
LayerCount: 2
Back
Fore
SplineSet
202 513 m 1
 153 438 l 1
 107 438 l 1
 143 515 l 1
 201 515 l 1
 202 513 l 1
283 513 m 1
 234 438 l 1
 188 438 l 1
 224 515 l 1
 283 515 l 1
 283 513 l 1
310 125 m 2
 310 38 258 -7 173 -7 c 0
 87 -7 36 38 36 125 c 2
 36 399 l 1
 110 399 l 1
 110 128 l 2
 110 82 133 57 173 57 c 0
 212 57 235 82 235 128 c 2
 235 399 l 1
 310 399 l 1
 310 125 l 2
EndSplineSet
Position2: "'cpsp' Capital Spacing lookup 0 subtable" dx=5 dy=0 dh=10 dv=0
EndChar

StartChar: Umacron
Encoding: 362 362 110
Width: 345
VWidth: 659
GlyphClass: 2
Flags: MW
HStem: -7 64<153 192.5 153 215.5> 379 20G<36 110 110 110 235 310 310 310> 442 51<98 247 98 247>
VStem: 36 74<125 128 128 399> 235 75<128 399>
LayerCount: 2
Back
Fore
SplineSet
247 442 m 1
 98 442 l 1
 98 493 l 1
 247 493 l 1
 247 442 l 1
310 125 m 2
 310 38 258 -7 173 -7 c 0
 87 -7 36 38 36 125 c 2
 36 399 l 1
 110 399 l 1
 110 128 l 2
 110 82 133 57 173 57 c 0
 212 57 235 82 235 128 c 2
 235 399 l 1
 310 399 l 1
 310 125 l 2
EndSplineSet
Position2: "'cpsp' Capital Spacing lookup 0 subtable" dx=5 dy=0 dh=10 dv=0
EndChar

StartChar: Uogonek
Encoding: 370 370 111
Width: 345
VWidth: 659
GlyphClass: 2
Flags: MW
HStem: -108 40<205.5 258> -100 21G<258 258> -7 64<153 173 173 178> 379 20G<36 110 110 110 235 310 310 310>
VStem: 36 74<130 132 132 399> 161 97<-75.5 -68 -100 -44.5> 235 75<132 399>
LayerCount: 2
Back
Fore
SplineSet
235 399 m 1x7a
 310 399 l 1
 310 130 l 2x7a
 310 64 283 21 236 3 c 1
 229 -5 218 -22 218 -38 c 0
 218 -53 225 -68 244 -68 c 2
 258 -68 l 1xbc
 258 -100 l 1
 244 -105 232 -108 219 -108 c 0
 192 -108 161 -96 161 -55 c 0x7c
 161 -34 168 -19 178 -7 c 1
 173 -7 l 2
 87 -7 36 40 36 130 c 2
 36 399 l 1
 110 399 l 1
 110 132 l 2
 110 83 133 57 173 57 c 0
 212 57 235 83 235 132 c 2
 235 399 l 1x7a
EndSplineSet
Position2: "'cpsp' Capital Spacing lookup 0 subtable" dx=5 dy=0 dh=10 dv=0
EndChar

StartChar: Uring
Encoding: 366 366 112
Width: 345
VWidth: 659
GlyphClass: 2
Flags: MW
HStem: -7 64<153 192.5 153 215.5> 379 20G<36 110 110 110 235 310 310 310> 420 29<165.5 180 165.5 188.5> 503 29<165.5 180>
VStem: 36 74<125 128 128 399> 117 29<468.5 483.5 468.5 491.5> 199 30<468.5 483.5> 235 75<128 399>
LayerCount: 2
Back
Fore
SplineSet
173 532 m 0
 204 532 229 506 229 476 c 0
 229 445 204 420 173 420 c 0
 142 420 117 444 117 476 c 0
 117 507 142 532 173 532 c 0
173 503 m 0
 158 503 146 491 146 476 c 0
 146 461 158 449 173 449 c 0
 187 449 199 461 199 476 c 0
 199 491 187 503 173 503 c 0
310 125 m 2xd9
 310 38 258 -7 173 -7 c 0
 87 -7 36 38 36 125 c 2
 36 399 l 1
 110 399 l 1
 110 128 l 2
 110 82 133 57 173 57 c 0
 212 57 235 82 235 128 c 2
 235 399 l 1
 310 399 l 1
 310 125 l 2xd9
EndSplineSet
Position2: "'cpsp' Capital Spacing lookup 0 subtable" dx=5 dy=0 dh=10 dv=0
EndChar

StartChar: Utilde
Encoding: 360 360 113
Width: 345
VWidth: 659
GlyphClass: 2
Flags: MW
HStem: -7 64<153 192.5 153 215.5> 379 20G<36 110 110 110 235 310 310 310> 444 71<111.5 113 74 139 232 233.5>
VStem: 36 74<125 128 128 399> 235 75<128 399>
LayerCount: 2
Back
Fore
SplineSet
270 515 m 1
 270 482 254 444 213 444 c 0
 199 444 186 449 173 455 c 0
 161 460 149 465 136 465 c 0
 123 465 115 459 113 444 c 1
 74 444 l 1
 74 475 91 515 132 515 c 0
 146 515 159 509 172 504 c 0
 184 498 196 493 209 493 c 0
 221 493 229 498 232 515 c 1
 270 515 l 1
310 125 m 2
 310 38 258 -7 173 -7 c 0
 87 -7 36 38 36 125 c 2
 36 399 l 1
 110 399 l 1
 110 128 l 2
 110 82 133 57 173 57 c 0
 212 57 235 82 235 128 c 2
 235 399 l 1
 310 399 l 1
 310 125 l 2
EndSplineSet
Position2: "'cpsp' Capital Spacing lookup 0 subtable" dx=5 dy=0 dh=10 dv=0
EndChar

StartChar: V
Encoding: 86 86 114
Width: 319
VWidth: 659
GlyphClass: 2
Flags: MW
HStem: 0 21G<122 122 122 197> 379 20G<0 77 77 77 246 319 319 319>
VStem: 0 319<399 399>
LayerCount: 2
Back
Fore
SplineSet
122 0 m 1
 0 399 l 1
 77 399 l 1
 161 113 l 1
 163 113 l 1
 246 399 l 1
 319 399 l 1
 197 0 l 1
 122 0 l 1
EndSplineSet
Position2: "'cpsp' Capital Spacing lookup 0 subtable" dx=5 dy=0 dh=10 dv=0
EndChar

StartChar: W
Encoding: 87 87 115
Width: 451
VWidth: 659
GlyphClass: 2
Flags: MW
HStem: 0 21G<87 162 87 87 289 364 289 289> 98 301<0 132 0 132 0 329 0 329> 311 88<223 226 223 223> 379 20G<0 74 74 74 188 272 272 272 386 450 450 450>
VStem: 0 450<399 399>
AnchorPoint: "Anchor-1" 0 0 basechar 0
AnchorPoint: "Anchor-0" 225 399 basechar 0
LayerCount: 2
Back
Fore
SplineSet
289 0 m 1x98
 234 254 l 2
 229 275 226 311 226 311 c 1
 223 311 l 1
 223 311 219 272 215 254 c 2xa8
 162 0 l 1
 87 0 l 1
 0 399 l 1
 74 399 l 1
 122 154 l 2
 125 136 129 98 129 98 c 1
 132 98 l 1
 132 98 136 137 139 154 c 2
 188 399 l 1
 272 399 l 1
 320 154 l 2
 323 138 328 98 328 98 c 1
 329 98 l 1
 329 98 333 134 337 154 c 2xc8
 386 399 l 1
 450 399 l 1
 364 0 l 1
 289 0 l 1x98
EndSplineSet
Position2: "'cpsp' Capital Spacing lookup 0 subtable" dx=5 dy=0 dh=10 dv=0
EndChar

StartChar: Wacute
Encoding: 7810 7810 116
Width: 451
VWidth: 659
GlyphClass: 2
Flags: MW
HStem: 0 21G<87 162 87 87 289 364 289 289> 98 301<0 132 0 132 0 329 0 329> 311 88<223 226 223 223> 379 20G<0 74 74 74 188 272 272 272 386 450 450 450> 438 77<235 243 185 305>
VStem: 0 450<399 399>
LayerCount: 2
Back
Fore
SplineSet
306 513 m 1x9c
 243 438 l 1
 185 438 l 1
 235 515 l 1
 305 515 l 1
 306 513 l 1x9c
364 0 m 1
 289 0 l 1
 234 254 l 2
 229 275 226 311 226 311 c 1
 223 311 l 1
 223 311 219 272 215 254 c 2xac
 162 0 l 1
 87 0 l 1
 0 399 l 1
 74 399 l 1
 122 154 l 2
 125 136 129 98 129 98 c 1
 132 98 l 1
 132 98 136 137 139 154 c 2
 188 399 l 1
 272 399 l 1
 320 154 l 2
 323 138 328 98 328 98 c 1
 329 98 l 1
 329 98 333 134 337 154 c 2xcc
 386 399 l 1
 450 399 l 1
 364 0 l 1
EndSplineSet
Position2: "'cpsp' Capital Spacing lookup 0 subtable" dx=5 dy=0 dh=10 dv=0
EndChar

StartChar: Wcircumflex
Encoding: 372 372 117
Width: 451
VWidth: 659
GlyphClass: 2
Flags: MW
HStem: 0 21G<87 162 87 87 289 364 289 289> 98 301<0 132 0 132 0 329 0 329> 311 88<223 226 223 223> 379 20G<0 74 74 74 188 272 272 272 386 450 450 450> 436 79<198 200 148 254 252 254 198 304 252 252>
VStem: 0 450<399 399>
LayerCount: 2
Back
Fore
SplineSet
252 436 m 1x9c
 226 476 l 1
 200 436 l 1
 148 436 l 1
 198 515 l 1
 254 515 l 1
 304 436 l 1
 252 436 l 1x9c
289 0 m 1
 234 254 l 2
 229 275 226 311 226 311 c 1
 223 311 l 1
 223 311 219 272 215 254 c 2xac
 162 0 l 1
 87 0 l 1
 0 399 l 1
 74 399 l 1
 122 154 l 2
 125 136 129 98 129 98 c 1
 132 98 l 1
 132 98 136 137 139 154 c 2
 188 399 l 1
 272 399 l 1
 320 154 l 2
 323 138 328 98 328 98 c 1
 329 98 l 1
 329 98 333 134 337 154 c 2xcc
 386 399 l 1
 450 399 l 1
 364 0 l 1
 289 0 l 1
EndSplineSet
Position2: "'cpsp' Capital Spacing lookup 0 subtable" dx=5 dy=0 dh=10 dv=0
EndChar

StartChar: Wdieresis
Encoding: 7812 7812 118
Width: 451
VWidth: 659
GlyphClass: 2
Flags: MW
HStem: 0 21G<87 162 87 87 289 364 289 289> 98 301<0 132 0 132 0 329 0 329> 311 88<223 226 223 223> 379 20G<0 74 74 74 188 272 272 272 386 450 450 450> 451 64<146 204 146 204 146 248 248 306>
VStem: 146 58<451 515> 248 58<451 515>
LayerCount: 2
Back
Fore
SplineSet
204 451 m 1x9e
 146 451 l 1
 146 515 l 1
 204 515 l 1
 204 451 l 1x9e
306 451 m 1
 248 451 l 1
 248 515 l 1
 306 515 l 1
 306 451 l 1
364 0 m 1
 289 0 l 1
 234 254 l 2
 229 275 226 311 226 311 c 1
 223 311 l 1
 223 311 219 272 215 254 c 2xae
 162 0 l 1
 87 0 l 1
 0 399 l 1
 74 399 l 1
 122 154 l 2
 125 136 129 98 129 98 c 1
 132 98 l 1
 132 98 136 137 139 154 c 2
 188 399 l 1
 272 399 l 1
 320 154 l 2
 323 138 328 98 328 98 c 1
 329 98 l 1
 329 98 333 134 337 154 c 2xce
 386 399 l 1
 450 399 l 1
 364 0 l 1
EndSplineSet
Position2: "'cpsp' Capital Spacing lookup 0 subtable" dx=5 dy=0 dh=10 dv=0
EndChar

StartChar: Wgrave
Encoding: 7808 7808 119
Width: 451
VWidth: 659
GlyphClass: 2
Flags: MW
HStem: 0 21G<87 162 87 87 289 364 289 289> 98 301<0 132 0 132 0 329 0 329> 311 88<223 226 223 223> 379 20G<0 74 74 74 188 272 272 272 386 450 450 450> 438 77<208 215 146 266 208 208>
VStem: 0 450<399 399>
LayerCount: 2
Back
Fore
SplineSet
266 438 m 1x9c
 208 438 l 1
 145 513 l 1
 146 515 l 1
 215 515 l 1
 266 438 l 1x9c
364 0 m 1
 289 0 l 1
 234 254 l 2
 229 275 226 311 226 311 c 1
 223 311 l 1
 223 311 219 272 215 254 c 2xac
 162 0 l 1
 87 0 l 1
 0 399 l 1
 74 399 l 1
 122 154 l 2
 125 136 129 98 129 98 c 1
 132 98 l 1
 132 98 136 137 139 154 c 2
 188 399 l 1
 272 399 l 1
 320 154 l 2
 323 138 328 98 328 98 c 1
 329 98 l 1
 329 98 333 134 337 154 c 2xcc
 386 399 l 1
 450 399 l 1
 364 0 l 1
EndSplineSet
Position2: "'cpsp' Capital Spacing lookup 0 subtable" dx=5 dy=0 dh=10 dv=0
EndChar

StartChar: X
Encoding: 88 88 120
Width: 319
VWidth: 659
GlyphClass: 2
Flags: MW
HStem: 0 21G<0 78 0 0 235 318 235 235> 379 20G<11 94 94 94 230 308 308 308>
VStem: 0 318<0 0>
LayerCount: 2
Back
Fore
SplineSet
204 211 m 1
 318 0 l 1
 235 0 l 1
 158 151 l 1
 155 151 l 1
 78 0 l 1
 0 0 l 1
 113 210 l 1
 11 399 l 1
 94 399 l 1
 161 269 l 1
 163 269 l 1
 230 399 l 1
 308 399 l 1
 204 211 l 1
EndSplineSet
Position2: "'cpsp' Capital Spacing lookup 0 subtable" dx=5 dy=0 dh=10 dv=0
EndChar

StartChar: Y
Encoding: 89 89 121
Width: 319
VWidth: 659
GlyphClass: 2
Flags: MW
HStem: 0 21G<123 197 123 123> 379 20G<0 78 78 78 244 319 319 319>
VStem: 123 74<0 151>
AnchorPoint: "Anchor-1" 0 0 basechar 0
AnchorPoint: "Anchor-0" 159 399 basechar 0
LayerCount: 2
Back
Fore
SplineSet
197 0 m 1
 123 0 l 1
 123 151 l 1
 0 399 l 1
 78 399 l 1
 160 224 l 1
 163 224 l 1
 244 399 l 1
 319 399 l 1
 197 151 l 1
 197 0 l 1
EndSplineSet
Position2: "'cpsp' Capital Spacing lookup 0 subtable" dx=5 dy=0 dh=10 dv=0
EndChar

StartChar: Yacute
Encoding: 221 221 122
Width: 319
VWidth: 659
GlyphClass: 2
Flags: MW
HStem: 0 21G<123 197 123 123> 379 20G<0 78 78 78 244 319 319 319> 438 77<169 177 119 239>
VStem: 123 74<0 151 0 151>
LayerCount: 2
Back
Fore
SplineSet
240 513 m 1
 177 438 l 1
 119 438 l 1
 169 515 l 1
 239 515 l 1
 240 513 l 1
197 151 m 1
 197 0 l 1
 123 0 l 1
 123 151 l 1
 0 399 l 1
 78 399 l 1
 160 224 l 1
 163 224 l 1
 244 399 l 1
 319 399 l 1
 197 151 l 1
EndSplineSet
Position2: "'cpsp' Capital Spacing lookup 0 subtable" dx=5 dy=0 dh=10 dv=0
EndChar

StartChar: Ycircumflex
Encoding: 374 374 123
Width: 319
VWidth: 659
GlyphClass: 2
Flags: MW
HStem: 0 21G<123 197 123 123> 379 20G<0 78 78 78 244 319 319 319> 436 79<131 133 81 188 185 188 131 238 185 185>
VStem: 123 74<0 151>
LayerCount: 2
Back
Fore
SplineSet
185 436 m 1
 159 476 l 1
 133 436 l 1
 81 436 l 1
 131 515 l 1
 188 515 l 1
 238 436 l 1
 185 436 l 1
197 0 m 1
 123 0 l 1
 123 151 l 1
 0 399 l 1
 78 399 l 1
 160 224 l 1
 163 224 l 1
 244 399 l 1
 319 399 l 1
 197 151 l 1
 197 0 l 1
EndSplineSet
Position2: "'cpsp' Capital Spacing lookup 0 subtable" dx=5 dy=0 dh=10 dv=0
EndChar

StartChar: Ydieresis
Encoding: 376 376 124
Width: 319
VWidth: 659
GlyphClass: 2
Flags: MW
HStem: 0 21G<123 197 123 123> 379 20G<0 78 78 78 244 319 319 319> 451 64<79 138 79 138 79 181 181 239>
VStem: 79 59<451 515> 123 74<0 151 0 151> 181 58<451 515>
LayerCount: 2
Back
Fore
SplineSet
138 451 m 1xf4
 79 451 l 1
 79 515 l 1
 138 515 l 1
 138 451 l 1xf4
239 451 m 1
 181 451 l 1
 181 515 l 1
 239 515 l 1
 239 451 l 1
197 151 m 1xe8
 197 0 l 1
 123 0 l 1
 123 151 l 1
 0 399 l 1
 78 399 l 1
 160 224 l 1
 163 224 l 1
 244 399 l 1
 319 399 l 1
 197 151 l 1xe8
EndSplineSet
Position2: "'cpsp' Capital Spacing lookup 0 subtable" dx=5 dy=0 dh=10 dv=0
EndChar

StartChar: Ygrave
Encoding: 7922 7922 125
Width: 319
VWidth: 659
GlyphClass: 2
Flags: MW
HStem: 0 21G<123 197 123 123> 379 20G<0 78 78 78 244 319 319 319> 438 77<142 149 79 199 142 142>
VStem: 123 74<0 151 0 151>
LayerCount: 2
Back
Fore
SplineSet
199 438 m 1
 142 438 l 1
 78 513 l 1
 79 515 l 1
 149 515 l 1
 199 438 l 1
197 151 m 1
 197 0 l 1
 123 0 l 1
 123 151 l 1
 0 399 l 1
 78 399 l 1
 160 224 l 1
 163 224 l 1
 244 399 l 1
 319 399 l 1
 197 151 l 1
EndSplineSet
Position2: "'cpsp' Capital Spacing lookup 0 subtable" dx=5 dy=0 dh=10 dv=0
EndChar

StartChar: Z
Encoding: 90 90 126
Width: 292
VWidth: 659
GlyphClass: 2
Flags: MW
HStem: 0 67<111 279 111 279> 333 66<22 173 22 275>
VStem: 9 270<0 28 28 28>
AnchorPoint: "Anchor-1" 0 0 basechar 0
AnchorPoint: "Anchor-0" 146 399 basechar 0
LayerCount: 2
Back
Fore
SplineSet
275 370 m 1
 111 67 l 1
 279 67 l 1
 279 0 l 1
 9 0 l 1
 9 28 l 1
 173 333 l 1
 22 333 l 1
 22 399 l 1
 275 399 l 1
 275 370 l 1
EndSplineSet
Position2: "'cpsp' Capital Spacing lookup 0 subtable" dx=5 dy=0 dh=10 dv=0
EndChar

StartChar: Zacute
Encoding: 377 377 127
Width: 292
VWidth: 659
GlyphClass: 2
Flags: MW
HStem: 0 67<111 279 111 279> 333 66<22 173 22 275> 438 77<156 163 106 226>
VStem: 9 270<0 28 28 28>
LayerCount: 2
Back
Fore
SplineSet
227 513 m 1
 163 438 l 1
 106 438 l 1
 156 515 l 1
 226 515 l 1
 227 513 l 1
275 370 m 1
 111 67 l 1
 279 67 l 1
 279 0 l 1
 9 0 l 1
 9 28 l 1
 173 333 l 1
 22 333 l 1
 22 399 l 1
 275 399 l 1
 275 370 l 1
EndSplineSet
Position2: "'cpsp' Capital Spacing lookup 0 subtable" dx=5 dy=0 dh=10 dv=0
EndChar

StartChar: Zcaron
Encoding: 381 381 128
Width: 292
VWidth: 659
GlyphClass: 2
Flags: MW
HStem: 0 67<111 279 111 279> 333 66<22 173 22 275> 436 79<118 120 172 175 118 118>
VStem: 9 270<0 28 28 28>
LayerCount: 2
Back
Fore
SplineSet
175 436 m 1
 118 436 l 1
 68 515 l 1
 120 515 l 1
 146 474 l 1
 172 515 l 1
 224 515 l 1
 175 436 l 1
275 370 m 1
 111 67 l 1
 279 67 l 1
 279 0 l 1
 9 0 l 1
 9 28 l 1
 173 333 l 1
 22 333 l 1
 22 399 l 1
 275 399 l 1
 275 370 l 1
EndSplineSet
Position2: "'cpsp' Capital Spacing lookup 0 subtable" dx=5 dy=0 dh=10 dv=0
EndChar

StartChar: Zdotaccent
Encoding: 379 379 129
Width: 292
VWidth: 659
GlyphClass: 2
Flags: MW
HStem: 0 67<111 279 111 279> 333 66<22 173 22 275> 447 68<115 177 115 177>
VStem: 115 62<447 515>
LayerCount: 2
Back
Fore
SplineSet
177 447 m 1
 115 447 l 1
 115 515 l 1
 177 515 l 1
 177 447 l 1
275 370 m 1
 111 67 l 1
 279 67 l 1
 279 0 l 1
 9 0 l 1
 9 28 l 1
 173 333 l 1
 22 333 l 1
 22 399 l 1
 275 399 l 1
 275 370 l 1
EndSplineSet
Position2: "'cpsp' Capital Spacing lookup 0 subtable" dx=5 dy=0 dh=10 dv=0
EndChar

StartChar: a
Encoding: 97 97 130
Width: 266
VWidth: 659
GlyphClass: 2
Flags: MW
HStem: -7 58<102 105.5> 136 50<139.5 160> 256 58<114 141.5>
VStem: 8 72<75.5 105.5 75.5 120.5> 22 70<215 254> 160 71<118 136 136 136 186 218 218 223>
AnchorPoint: "Anchor-1" 0 0 basechar 0
AnchorPoint: "Anchor-0" 133 306 basechar 0
LayerCount: 2
Back
Fore
SplineSet
127 314 m 0xf4
 198 314 231 280 231 223 c 2
 231 72 l 2
 231 58 239 52 247 52 c 2
 261 52 l 1
 261 3 l 1
 254 -2 241 -7 219 -7 c 0
 192 -7 173 9 165 33 c 1
 163 33 l 1
 145 9 126 -7 85 -7 c 0
 57 -7 8 8 8 79 c 0xf4
 8 162 71 186 160 186 c 1
 160 218 l 2
 160 239 155 256 128 256 c 0
 100 256 92 239 92 224 c 2
 92 215 l 1
 23 215 l 1
 22 219 22 223 22 229 c 0xec
 22 279 63 314 127 314 c 0xf4
160 136 m 1
 119 136 80 125 80 86 c 0
 80 65 90 51 114 51 c 0
 148 51 160 82 160 118 c 2
 160 136 l 1
EndSplineSet
Substitution2: "Single Substitution lookup 42 subtable" ordfeminine
Substitution2: "'aalt' Access All Alternates lookup 0 subtable" ordfeminine
EndChar

StartChar: aacute
Encoding: 225 225 131
Width: 266
VWidth: 659
GlyphClass: 2
Flags: MW
HStem: -7 58<102 105.5> 136 50<139.5 160> 256 58<114 141.5> 344 77<136 144 86 206>
VStem: 8 72<75.5 105.5 75.5 120.5> 22 70<215 254> 160 71<118 136 136 136 186 218 218 223>
LayerCount: 2
Back
Fore
SplineSet
207 419 m 1xda
 144 344 l 1
 86 344 l 1
 136 421 l 1
 206 421 l 1
 207 419 l 1xda
127 314 m 0xf6
 198 314 231 280 231 223 c 2
 231 72 l 2
 231 58 239 52 247 52 c 2
 261 52 l 1
 261 3 l 1
 254 -2 241 -7 219 -7 c 0
 192 -7 173 9 165 33 c 1
 163 33 l 1
 145 9 126 -7 85 -7 c 0
 57 -7 8 8 8 79 c 0xfa
 8 162 71 186 160 186 c 1
 160 218 l 2
 160 239 155 256 128 256 c 0
 100 256 92 239 92 224 c 2
 92 215 l 1
 23 215 l 1
 22 219 22 223 22 229 c 0
 22 279 63 314 127 314 c 0xf6
160 136 m 1xda
 119 136 80 125 80 86 c 0
 80 65 90 51 114 51 c 0
 148 51 160 82 160 118 c 2
 160 136 l 1xda
EndSplineSet
EndChar

StartChar: abreve
Encoding: 259 259 132
Width: 266
VWidth: 659
GlyphClass: 2
Flags: MW
HStem: -7 58<102 105.5> 136 50<139.5 160> 256 58<114 141.5> 359 62<48 150>
VStem: 8 72<75.5 105.5 75.5 120.5> 22 70<215 254> 160 71<118 136 136 136 186 218 218 223>
LayerCount: 2
Back
Fore
SplineSet
204 421 m 1xfa
 204 392 174 359 126 359 c 0
 78 359 48 392 48 421 c 1
 92 421 l 1
 94 413 107 402 126 402 c 0
 146 402 159 413 161 421 c 1xf6
 204 421 l 1xfa
127 314 m 0
 198 314 231 280 231 223 c 2
 231 72 l 2
 231 58 239 52 247 52 c 2
 261 52 l 1
 261 3 l 1
 254 -2 241 -7 219 -7 c 0
 192 -7 173 9 165 33 c 1
 163 33 l 1
 145 9 126 -7 85 -7 c 0
 57 -7 8 8 8 79 c 0xfa
 8 162 71 186 160 186 c 1
 160 218 l 2
 160 239 155 256 128 256 c 0
 100 256 92 239 92 224 c 2
 92 215 l 1
 23 215 l 1
 22 219 22 223 22 229 c 0xf6
 22 279 63 314 127 314 c 0
160 136 m 1
 119 136 80 125 80 86 c 0
 80 65 90 51 114 51 c 0
 148 51 160 82 160 118 c 2
 160 136 l 1
EndSplineSet
EndChar

StartChar: acircumflex
Encoding: 226 226 133
Width: 266
VWidth: 659
GlyphClass: 2
Flags: MW
HStem: -7 58<102 105.5> 136 50<139.5 160> 256 58<114 141.5> 343 78<98 100 48 156 153 156 98 205 153 153> 383 38<127 127>
VStem: 8 72<75.5 105.5 75.5 120.5> 22 70<215 254> 160 71<118 136 136 136 186 218 218 223>
LayerCount: 2
Back
Fore
SplineSet
153 343 m 1xd5
 127 383 l 1xeb
 100 343 l 1
 48 343 l 1
 98 421 l 1
 156 421 l 1
 205 343 l 1
 153 343 l 1xd5
127 314 m 0
 198 314 231 280 231 223 c 2
 231 72 l 2
 231 58 239 52 247 52 c 2
 261 52 l 1
 261 3 l 1
 254 -2 241 -7 219 -7 c 0
 192 -7 173 9 165 33 c 1
 163 33 l 1
 145 9 126 -7 85 -7 c 0
 57 -7 8 8 8 79 c 0xf5
 8 162 71 186 160 186 c 1
 160 218 l 2
 160 239 155 256 128 256 c 0
 100 256 92 239 92 224 c 2
 92 215 l 1
 23 215 l 1
 22 219 22 223 22 229 c 0
 22 279 63 314 127 314 c 0
160 136 m 1xd5
 119 136 80 125 80 86 c 0
 80 65 90 51 114 51 c 0
 148 51 160 82 160 118 c 2
 160 136 l 1xd5
EndSplineSet
EndChar

StartChar: adieresis
Encoding: 228 228 134
Width: 266
VWidth: 659
GlyphClass: 2
Flags: MW
HStem: -7 58<102 105.5> 136 50<139.5 160> 256 58<114 141.5> 358 63<47 105 47 105 47 148 148 206>
VStem: 8 72<75.5 105.5 75.5 120.5> 22 70<215 254> 47 58<358 421> 148 58<358 421> 160 71<118 136 136 136 186 218 218 223>
LayerCount: 2
Back
Fore
SplineSet
105 358 m 1xf3
 47 358 l 1
 47 421 l 1
 105 421 l 1
 105 358 l 1xf3
206 358 m 1
 148 358 l 1
 148 421 l 1
 206 421 l 1
 206 358 l 1
127 314 m 0xf480
 198 314 231 280 231 223 c 2
 231 72 l 2
 231 58 239 52 247 52 c 2
 261 52 l 1
 261 3 l 1
 254 -2 241 -7 219 -7 c 0
 192 -7 173 9 165 33 c 1
 163 33 l 1
 145 9 126 -7 85 -7 c 0
 57 -7 8 8 8 79 c 0xf880
 8 162 71 186 160 186 c 1
 160 218 l 2
 160 239 155 256 128 256 c 0
 100 256 92 239 92 224 c 2
 92 215 l 1
 23 215 l 1
 22 219 22 223 22 229 c 0
 22 279 63 314 127 314 c 0xf480
160 136 m 1xf880
 119 136 80 125 80 86 c 0
 80 65 90 51 114 51 c 0
 148 51 160 82 160 118 c 2
 160 136 l 1xf880
EndSplineSet
EndChar

StartChar: agrave
Encoding: 224 224 135
Width: 266
VWidth: 659
GlyphClass: 2
Flags: MW
HStem: -7 58<102 105.5> 136 50<139.5 160> 256 58<114 141.5> 344 77<109 117 47 167 109 109>
VStem: 8 72<75.5 105.5 75.5 120.5> 22 70<215 254> 160 71<118 136 136 136 186 218 218 223>
LayerCount: 2
Back
Fore
SplineSet
167 344 m 1xda
 109 344 l 1
 46 419 l 1
 47 421 l 1
 117 421 l 1
 167 344 l 1xda
127 314 m 0xf6
 198 314 231 280 231 223 c 2
 231 72 l 2
 231 58 239 52 247 52 c 2
 261 52 l 1
 261 3 l 1
 254 -2 241 -7 219 -7 c 0
 192 -7 173 9 165 33 c 1
 163 33 l 1
 145 9 126 -7 85 -7 c 0
 57 -7 8 8 8 79 c 0xfa
 8 162 71 186 160 186 c 1
 160 218 l 2
 160 239 155 256 128 256 c 0
 100 256 92 239 92 224 c 2
 92 215 l 1
 23 215 l 1
 22 219 22 223 22 229 c 0
 22 279 63 314 127 314 c 0xf6
160 136 m 1xda
 119 136 80 125 80 86 c 0
 80 65 90 51 114 51 c 0
 148 51 160 82 160 118 c 2
 160 136 l 1xda
EndSplineSet
EndChar

StartChar: amacron
Encoding: 257 257 136
Width: 266
VWidth: 659
GlyphClass: 2
Flags: MW
HStem: -7 58<102 105.5> 136 50<139.5 160> 256 58<114 141.5> 349 50<52 201 52 201>
VStem: 8 72<75.5 105.5 75.5 120.5> 22 70<215 254> 52 149<349 399 349 399> 160 71<118 136 136 136 186 218 218 223>
LayerCount: 2
Back
Fore
SplineSet
52 349 m 1xf2
 52 399 l 1
 201 399 l 1
 201 349 l 1
 52 349 l 1xf2
127 314 m 0xf5
 198 314 231 280 231 223 c 2
 231 72 l 2
 231 58 239 52 247 52 c 2
 261 52 l 1
 261 3 l 1
 254 -2 241 -7 219 -7 c 0
 192 -7 173 9 165 33 c 1
 163 33 l 1
 145 9 126 -7 85 -7 c 0
 57 -7 8 8 8 79 c 0xf9
 8 162 71 186 160 186 c 1
 160 218 l 2
 160 239 155 256 128 256 c 0
 100 256 92 239 92 224 c 2
 92 215 l 1
 23 215 l 1
 22 219 22 223 22 229 c 0
 22 279 63 314 127 314 c 0xf5
160 136 m 1xf9
 119 136 80 125 80 86 c 0
 80 65 90 51 114 51 c 0
 148 51 160 82 160 118 c 2
 160 136 l 1xf9
EndSplineSet
EndChar

StartChar: aogonek
Encoding: 261 261 137
Width: 266
VWidth: 659
GlyphClass: 2
Flags: MW
HStem: -108 40<231 283> -100 21G<283 283> -7 58<102 105.5> 136 50<139.5 160> 256 58<114 141.5>
VStem: 8 72<75.5 105.5 75.5 120.5> 22 70<215 254> 160 71<118 136 136 136 186 218 218 223> 186 97<-76 -68 -100 -44.5>
LayerCount: 2
Back
Fore
SplineSet
283 -100 m 1x7c80
 269 -105 257 -108 244 -108 c 0
 218 -108 186 -96 186 -56 c 0
 186 -33 194 -18 204 -5 c 1
 185 -1 171 14 165 33 c 1
 163 33 l 1
 145 9 126 -7 85 -7 c 0
 57 -7 8 8 8 79 c 0x7c80
 8 162 71 186 160 186 c 1
 160 218 l 2
 160 239 155 256 128 256 c 0
 100 256 92 239 92 224 c 2
 92 215 l 1
 23 215 l 1
 22 219 22 223 22 229 c 0
 22 279 63 314 127 314 c 0
 198 314 231 280 231 223 c 2
 231 72 l 2
 231 58 239 52 247 52 c 2x7b
 261 52 l 1
 261 3 l 1
 254 -6 244 -22 244 -38 c 0
 244 -53 250 -68 270 -68 c 2
 283 -68 l 1xbc80
 283 -100 l 1x7c80
160 136 m 1x7d
 119 136 80 125 80 86 c 0
 80 65 90 51 114 51 c 0
 148 51 160 82 160 118 c 2
 160 136 l 1x7d
EndSplineSet
EndChar

StartChar: aring
Encoding: 229 229 138
Width: 266
VWidth: 659
GlyphClass: 2
Flags: MW
HStem: -7 58<102 105.5> 136 50<139.5 160> 256 58<114 141.5> 327 29<119 134 119 142.5> 409 30<119 134>
VStem: 8 72<75.5 105.5 75.5 120.5> 22 70<215 254> 71 29<375.5 390.5 375.5 398.5> 153 30<375.5 390.5> 160 71<118 136 136 136 186 218 218 223>
LayerCount: 2
Back
Fore
SplineSet
127 439 m 0xf980
 158 439 183 413 183 383 c 0
 183 352 158 327 127 327 c 0
 96 327 71 351 71 383 c 0
 71 414 96 439 127 439 c 0xf980
127 409 m 0
 111 409 100 398 100 383 c 0
 100 368 111 356 127 356 c 0
 141 356 153 368 153 383 c 0
 153 398 141 409 127 409 c 0
127 314 m 0xea40
 198 314 231 280 231 223 c 2
 231 72 l 2
 231 58 239 52 247 52 c 2
 261 52 l 1
 261 3 l 1
 254 -2 241 -7 219 -7 c 0
 192 -7 173 9 165 33 c 1
 163 33 l 1
 145 9 126 -7 85 -7 c 0
 57 -7 8 8 8 79 c 0xec40
 8 162 71 186 160 186 c 1
 160 218 l 2
 160 239 155 256 128 256 c 0
 100 256 92 239 92 224 c 2
 92 215 l 1
 23 215 l 1
 22 219 22 223 22 229 c 0
 22 279 63 314 127 314 c 0xea40
160 136 m 1xec40
 119 136 80 125 80 86 c 0
 80 65 90 51 114 51 c 0
 148 51 160 82 160 118 c 2
 160 136 l 1xec40
EndSplineSet
EndChar

StartChar: aringacute
Encoding: 507 507 139
Width: 291
VWidth: 659
GlyphClass: 2
Flags: MW
HStem: -7 58<102 105.5> 136 50<139.5 160> 256 58<114 141.5> 327 28<119 134 119 142.5> 407 28<119 134> 447 68<145 159 101 215>
VStem: 8 72<75.5 105.5 75.5 120.5> 22 70<215 254> 71 29<373.5 388 373.5 396> 153 30<373.5 388> 160 71<118 136 136 136 186 218 218 223>
LayerCount: 2
Back
Fore
SplineSet
215 513 m 1xe620
 159 447 l 1
 101 447 l 1
 145 515 l 1
 215 515 l 1
 215 513 l 1xe620
127 435 m 0xfcc0
 158 435 183 410 183 381 c 0
 183 351 158 327 127 327 c 0
 96 327 71 351 71 381 c 0
 71 411 96 435 127 435 c 0xfcc0
127 407 m 0
 111 407 100 395 100 381 c 0
 100 366 111 355 127 355 c 0
 141 355 153 366 153 381 c 0
 153 395 141 407 127 407 c 0
127 314 m 0xe520
 198 314 231 280 231 223 c 2
 231 72 l 2
 231 58 239 52 247 52 c 2
 261 52 l 1
 261 3 l 1
 254 -2 241 -7 219 -7 c 0
 192 -7 173 9 165 33 c 1
 163 33 l 1
 145 9 126 -7 85 -7 c 0
 57 -7 8 8 8 79 c 0xe620
 8 162 71 186 160 186 c 1
 160 218 l 2
 160 239 155 256 128 256 c 0
 100 256 92 239 92 224 c 2
 92 215 l 1
 23 215 l 1
 22 219 22 223 22 229 c 0
 22 279 63 314 127 314 c 0xe520
160 136 m 1xe620
 119 136 80 125 80 86 c 0
 80 65 90 51 114 51 c 0
 148 51 160 82 160 118 c 2
 160 136 l 1xe620
EndSplineSet
EndChar

StartChar: atilde
Encoding: 227 227 140
Width: 266
VWidth: 659
GlyphClass: 2
Flags: MW
HStem: -7 58<102 105.5> 136 50<139.5 160> 256 58<114 141.5> 350 49<159.5 169 156.5 187.5> 350 71<65.5 67 28 93 186 187.5> 372 49<84 93 65.5 96.5>
VStem: 8 72<75.5 105.5 75.5 120.5> 22 70<215 254> 160 71<118 136 136 136 186 218 218 223>
LayerCount: 2
Back
Fore
SplineSet
224 421 m 1xea80
 224 389 208 350 167 350 c 0xea80
 152 350 139 356 126 361 c 0
 114 367 103 372 90 372 c 0xe680
 78 372 69 366 67 350 c 1
 28 350 l 1
 28 382 45 421 86 421 c 0xea80
 100 421 113 415 126 410 c 0
 138 404 150 399 163 399 c 0xf280
 175 399 183 405 186 421 c 1
 224 421 l 1xea80
127 314 m 0
 198 314 231 280 231 223 c 2
 231 72 l 2
 231 58 239 52 247 52 c 2
 261 52 l 1
 261 3 l 1
 254 -2 241 -7 219 -7 c 0
 192 -7 173 9 165 33 c 1
 163 33 l 1
 145 9 126 -7 85 -7 c 0
 57 -7 8 8 8 79 c 0xea80
 8 162 71 186 160 186 c 1
 160 218 l 2
 160 239 155 256 128 256 c 0
 100 256 92 239 92 224 c 2
 92 215 l 1
 23 215 l 1
 22 219 22 223 22 229 c 0xe980
 22 279 63 314 127 314 c 0
160 136 m 1
 119 136 80 125 80 86 c 0
 80 65 90 51 114 51 c 0
 148 51 160 82 160 118 c 2
 160 136 l 1
EndSplineSet
EndChar

StartChar: ae
Encoding: 230 230 141
Width: 424
VWidth: 659
GlyphClass: 2
Flags: MW
HStem: -7 57<276.5 306 276.5 325> 136 50<153 173 247 329> 256 58<127.5 155 276.5 304>
VStem: 22 71<75.5 105.5 75.5 120.5> 36 69<215 254> 173 74<118 186 136 186 186 218 186 228.5> 329 73
AnchorPoint: "Anchor-1" 0 0 basechar 0
AnchorPoint: "Anchor-0" 213 306 basechar 0
LayerCount: 2
Back
Fore
SplineSet
291 314 m 0xf6
 365 314 402 264 402 153 c 2
 402 136 l 1
 246 136 l 1
 247 81 259 50 294 50 c 0
 318 50 333 72 333 108 c 1
 402 108 l 1
 402 30 356 -7 294 -7 c 0
 253 -7 222 7 202 34 c 1
 180 10 153 -7 110 -7 c 0
 77 -7 22 8 22 79 c 0xf6
 22 162 84 186 173 186 c 1
 173 218 l 2
 173 239 168 256 142 256 c 0
 113 256 105 239 105 224 c 2
 105 215 l 1
 37 215 l 1
 36 219 36 223 36 229 c 0xee
 36 279 77 314 140 314 c 0
 175 314 201 303 218 284 c 1
 237 304 262 314 291 314 c 0xf6
291 256 m 0
 262 256 249 231 247 186 c 1
 329 186 l 1
 329 231 317 256 291 256 c 0
173 136 m 1
 133 136 93 125 93 86 c 0
 93 65 103 51 128 51 c 0
 161 51 173 82 173 118 c 2
 173 136 l 1
EndSplineSet
EndChar

StartChar: aeacute
Encoding: 509 509 142
Width: 424
VWidth: 659
GlyphClass: 2
Flags: MW
HStem: -7 57<276.5 306 276.5 325> 136 50<153 173 247 329> 256 58<127.5 155 276.5 304> 344 77<223 230 173 293>
VStem: 22 71<75.5 105.5 75.5 120.5> 36 69<215 254> 173 74<118 186 136 186 186 218 186 228.5> 329 73
LayerCount: 2
Back
Fore
SplineSet
293 419 m 1xfb
 230 344 l 1
 173 344 l 1
 223 421 l 1
 293 421 l 1
 293 419 l 1xfb
291 314 m 0xe7
 365 314 402 264 402 153 c 2
 402 136 l 1
 246 136 l 1
 247 81 259 50 294 50 c 0
 318 50 333 72 333 108 c 1
 402 108 l 1
 402 30 356 -7 294 -7 c 0
 253 -7 222 7 202 34 c 1
 180 10 153 -7 110 -7 c 0
 77 -7 22 8 22 79 c 0xeb
 22 162 84 186 173 186 c 1
 173 218 l 2
 173 239 168 256 142 256 c 0
 113 256 105 239 105 224 c 2
 105 215 l 1
 37 215 l 1
 36 219 36 223 36 229 c 0
 36 279 77 314 140 314 c 0
 175 314 201 303 218 284 c 1
 237 304 262 314 291 314 c 0xe7
291 256 m 0
 262 256 249 231 247 186 c 1
 329 186 l 1
 329 231 317 256 291 256 c 0
173 136 m 1xeb
 133 136 93 125 93 86 c 0
 93 65 103 51 128 51 c 0
 161 51 173 82 173 118 c 2
 173 136 l 1xeb
EndSplineSet
EndChar

StartChar: b
Encoding: 98 98 143
Width: 292
VWidth: 659
GlyphClass: 2
Flags: MW
HStem: -7 64<154.5 165.5 131.5 199.5> 0 57<32 165.5> 38 19 250 25 250 64<157.5 165.5> 401 20G<32 102 102 102>
VStem: 32 70<114.5 142 142 163 275 421> 195 73<142 164 164 191.5>
LayerCount: 2
Back
Fore
SplineSet
102 275 m 1x57
 105 275 l 1x57
 116 299 142 314 173 314 c 0
 227 314 268 265 268 154 c 0
 268 43 230 -7 169 -7 c 0x8f
 140 -7 115 8 100 38 c 1
 98 38 l 1x2f
 90 0 l 1
 32 0 l 1
 32 421 l 1
 102 421 l 1
 102 275 l 1x57
148 250 m 0x8f
 115 250 102 218 102 163 c 2
 102 142 l 2
 102 87 115 57 148 57 c 0
 183 57 195 87 195 142 c 2
 195 164 l 2
 195 219 183 250 148 250 c 0x8f
EndSplineSet
EndChar

StartChar: c
Encoding: 99 99 144
Width: 266
VWidth: 659
GlyphClass: 2
Flags: MW
HStem: -7 59<124 152.5 124 172> 254 60<123 149.5>
VStem: 24 73<112.5 142 142 164 112.5 208.5> 175 69<94 115>
AnchorPoint: "Anchor-1" 133 0 basechar 0
AnchorPoint: "Anchor-0" 133 306 basechar 0
LayerCount: 2
Back
Fore
SplineSet
138 314 m 0
 203 314 244 277 244 191 c 1
 173 191 l 1
 173 234 161 254 138 254 c 0
 108 254 97 223 97 164 c 2
 97 142 l 2
 97 83 108 52 140 52 c 0
 165 52 175 73 175 115 c 1
 244 115 l 1
 244 30 204 -7 140 -7 c 0
 60 -7 24 43 24 153 c 0
 24 264 62 314 138 314 c 0
EndSplineSet
EndChar

StartChar: cacute
Encoding: 263 263 145
Width: 266
VWidth: 659
GlyphClass: 2
Flags: MW
HStem: -7 59<124 152.5 124 172> 254 60<123 149.5> 344 77<148 156 98 218>
VStem: 24 73<112.5 142 142 164 112.5 208.5> 175 69<94 115>
LayerCount: 2
Back
Fore
SplineSet
218 419 m 1
 156 344 l 1
 98 344 l 1
 148 421 l 1
 218 421 l 1
 218 419 l 1
138 314 m 0xf8
 203 314 244 277 244 191 c 1
 173 191 l 1
 173 234 161 254 138 254 c 0
 108 254 97 223 97 164 c 2
 97 142 l 2
 97 83 108 52 140 52 c 0
 165 52 175 73 175 115 c 1
 244 115 l 1
 244 30 204 -7 140 -7 c 0
 60 -7 24 43 24 153 c 0
 24 264 62 314 138 314 c 0xf8
EndSplineSet
EndChar

StartChar: ccaron
Encoding: 269 269 146
Width: 266
VWidth: 659
GlyphClass: 2
Flags: MW
HStem: -7 59<124 152.5 124 172> 254 60<123 149.5> 343 78<110 110 110 113 164 167>
VStem: 24 73<112.5 142 142 164 112.5 208.5> 175 69<94 115>
LayerCount: 2
Back
Fore
SplineSet
110 343 m 1
 60 421 l 1
 113 421 l 1
 138 381 l 1
 164 421 l 1
 217 421 l 1
 167 343 l 1
 110 343 l 1
138 314 m 0xf8
 203 314 244 277 244 191 c 1
 173 191 l 1
 173 234 161 254 138 254 c 0
 108 254 97 223 97 164 c 2
 97 142 l 2
 97 83 108 52 140 52 c 0
 165 52 175 73 175 115 c 1
 244 115 l 1
 244 30 204 -7 140 -7 c 0
 60 -7 24 43 24 153 c 0
 24 264 62 314 138 314 c 0xf8
EndSplineSet
EndChar

StartChar: ccedilla
Encoding: 231 231 147
Width: 266
VWidth: 659
GlyphClass: 2
Flags: MW
HStem: -106 33<126 127 127 133 85 146.5> -101 28<85 127> -45 26<109 152> -7 21G<153 153> -5 21G<113 113> 254 60<123 149.5>
VStem: 24 73<112.5 142 142 164 112.5 208.5> 111 41.5 148 50<-64.5 -54> 173 71<191 212.5>
LayerCount: 2
Back
Fore
SplineSet
138 314 m 0x8e40
 203 314 244 277 244 191 c 1
 173 191 l 1
 173 234 161 254 138 254 c 0
 108 254 97 223 97 164 c 2
 97 142 l 2
 97 83 108 52 140 52 c 0
 165 52 175 73 175 115 c 1
 244 115 l 1xae40
 244 36 209 -1 153 -7 c 1x9740
 152 -19 l 1xae80
 177 -21 198 -32 198 -59 c 0
 198 -98 159 -106 134 -106 c 0x8e80
 118 -106 99 -104 85 -101 c 1x4f40
 85 -73 l 1x8f40
 127 -73 l 2x8e80
 139 -73 148 -70 148 -59 c 0
 148 -49 143 -45 128 -45 c 2xae80
 109 -45 l 1xaf40
 113 -5 l 1
 52 5 24 56 24 153 c 0
 24 264 62 314 138 314 c 0x8e40
EndSplineSet
EndChar

StartChar: ccircumflex
Encoding: 265 265 148
Width: 266
VWidth: 659
GlyphClass: 2
Flags: MW
HStem: -7 59<124 152.5 124 172> 254 60<123 149.5> 343 78<110 113 60 167 164 167 110 217 164 164> 383 38<138 138>
VStem: 24 73<112.5 142 142 164 112.5 208.5> 175 69<94 115>
LayerCount: 2
Back
Fore
SplineSet
164 343 m 1xac
 138 383 l 1xdc
 113 343 l 1
 60 343 l 1
 110 421 l 1
 167 421 l 1
 217 343 l 1
 164 343 l 1xac
138 314 m 0
 203 314 244 277 244 191 c 1
 173 191 l 1
 173 234 161 254 138 254 c 0
 108 254 97 223 97 164 c 2
 97 142 l 2
 97 83 108 52 140 52 c 0
 165 52 175 73 175 115 c 1
 244 115 l 1
 244 30 204 -7 140 -7 c 0
 60 -7 24 43 24 153 c 0
 24 264 62 314 138 314 c 0
EndSplineSet
EndChar

StartChar: cdotaccent
Encoding: 267 267 149
Width: 266
VWidth: 659
GlyphClass: 2
Flags: MW
HStem: -7 59<124 152.5 124 172> 254 60<123 149.5> 354 67<107 169 107 169>
VStem: 24 73<112.5 142 142 164 112.5 208.5> 107 62<354 421 354 421> 175 69<94 115>
LayerCount: 2
Back
Fore
SplineSet
107 354 m 1
 107 421 l 1
 169 421 l 1
 169 354 l 1
 107 354 l 1
138 314 m 0xf4
 203 314 244 277 244 191 c 1
 173 191 l 1
 173 234 161 254 138 254 c 0
 108 254 97 223 97 164 c 2
 97 142 l 2
 97 83 108 52 140 52 c 0
 165 52 175 73 175 115 c 1
 244 115 l 1
 244 30 204 -7 140 -7 c 0
 60 -7 24 43 24 153 c 0
 24 264 62 314 138 314 c 0xf4
EndSplineSet
EndChar

StartChar: d
Encoding: 100 100 150
Width: 292
VWidth: 659
GlyphClass: 2
Flags: MW
HStem: -7 64<126 137.5> 0 57<126 202 126 260> 250 25 250 64<126 134.5 92 160> 401 20G<190 260 260 260>
VStem: 24 73<114.5 142 142 164 114.5 209.5> 190 70<142 163 163 190.5 275 421 0 421>
LayerCount: 2
Back
Fore
SplineSet
202 0 m 1x6e
 194 38 l 1
 192 38 l 1
 177 8 152 -7 123 -7 c 0
 62 -7 24 43 24 154 c 0
 24 265 65 314 119 314 c 0x9e
 150 314 176 299 187 275 c 1
 190 275 l 1
 190 421 l 1
 260 421 l 1
 260 0 l 1
 202 0 l 1x6e
143 250 m 0
 109 250 97 219 97 164 c 2
 97 142 l 2
 97 87 109 57 143 57 c 0
 177 57 190 87 190 142 c 2
 190 163 l 2
 190 218 177 250 143 250 c 0
EndSplineSet
EndChar

StartChar: eth
Encoding: 240 240 151
Width: 292
VWidth: 659
GlyphClass: 2
Flags: MW
HStem: -7 59<128 164.5 128 187> 254 60<128 134 97.5 164.5> 291 20G<160 160> 343.5 41.5 343.5 77.5 356 44 387 34<107 107>
VStem: 24 73<112.5 142 142 164 112.5 205.5> 63 192<358 383 383 383> 196 73<142 164 164 193.5>
LayerCount: 2
Back
Fore
SplineSet
150 421 m 1xa880
 158 415 168 405 179 393 c 1
 255 400 l 1
 255 358 l 1xa480
 212 354 l 1
 242 309 269 245 269 153 c 0
 269 43 228 -7 146 -7 c 0
 65 -7 24 43 24 153 c 0xc540
 24 258 65 314 130 314 c 0xc880
 138 314 150 312 158 309 c 1
 160 311 l 1
 154 322 146 335 138 347 c 1
 63 340 l 1xa880
 63 383 l 1xb080
 107 387 l 1
 101 394 95 400 90 405 c 0xa280
 84 410 80 415 76 419 c 1
 77 421 l 1
 150 421 l 1xa880
146 254 m 0xc940
 110 254 97 223 97 164 c 2
 97 142 l 2
 97 83 110 52 146 52 c 0
 183 52 196 83 196 142 c 2
 196 164 l 2
 196 223 183 254 146 254 c 0xc940
EndSplineSet
EndChar

StartChar: dcaron
Encoding: 271 271 152
Width: 343
VWidth: 659
GlyphClass: 2
Flags: MW
HStem: -7 64<126 137.5> 0 57<126 202 126 260> 250 25 250 64<126 134.5 92 160> 320 79<278 310 278 358> 320 101<190 310 190 278>
VStem: 24 73<114.5 142 142 164 114.5 209.5> 190 70<142 163 163 190.5 275 421 0 421> 278 80<327 399 327 399 327 399>
LayerCount: 2
Back
Fore
SplineSet
202 0 m 1x67
 194 38 l 1
 192 38 l 1
 177 8 152 -7 123 -7 c 0
 62 -7 24 43 24 154 c 0
 24 265 65 314 119 314 c 0x93
 150 314 176 299 187 275 c 1
 190 275 l 1
 190 421 l 1
 260 421 l 1
 260 0 l 1
 202 0 l 1x67
320 229 m 1xab80
 278 229 l 1
 310 320 l 1
 278 320 l 1
 278 399 l 1
 358 399 l 1
 358 327 l 1
 320 229 l 1xab80
143 250 m 0x93
 109 250 97 219 97 164 c 2
 97 142 l 2
 97 87 109 57 143 57 c 0
 177 57 190 87 190 142 c 2
 190 163 l 2
 190 218 177 250 143 250 c 0x93
EndSplineSet
EndChar

StartChar: dcroat
Encoding: 273 273 153
Width: 294
VWidth: 659
GlyphClass: 2
Flags: MW
HStem: -7 64<126 137.5> 0 57<126 260 126 202> 250 25 250 64<126 134.5 92 160> 339 51<113 190 113 190 260 291> 339 82<113 260 113 260 190 291 190 260>
VStem: 24 73<114.5 142 142 164 114.5 209.5> 190 70<142 163 163 190.5 275 339 0 339 390 421>
LayerCount: 2
Back
Fore
SplineSet
260 390 m 1xab
 291 390 l 1xab
 291 339 l 1
 260 339 l 1
 260 0 l 1
 202 0 l 1x67
 194 38 l 1
 192 38 l 1
 177 8 152 -7 123 -7 c 0
 62 -7 24 43 24 154 c 0
 24 265 65 314 119 314 c 0x97
 150 314 176 299 187 275 c 1
 190 275 l 1
 190 339 l 1
 113 339 l 1xa7
 113 390 l 1
 190 390 l 1xab
 190 421 l 1
 260 421 l 1xa7
 260 390 l 1xab
143 250 m 0x97
 109 250 97 219 97 164 c 2
 97 142 l 2
 97 87 109 57 143 57 c 0
 177 57 190 87 190 142 c 2
 190 163 l 2
 190 218 177 250 143 250 c 0x97
EndSplineSet
EndChar

StartChar: e
Encoding: 101 101 154
Width: 266
VWidth: 659
GlyphClass: 2
Flags: MW
HStem: -7 57<120.5 150 120.5 169> 136 50<92 173 92 246 91 173> 256 58<121 148.5>
VStem: 18 74<186 186 186 208.5> 173 73
AnchorPoint: "Anchor-1" 133 0 basechar 0
AnchorPoint: "Anchor-0" 133 306 basechar 0
LayerCount: 2
Back
Fore
SplineSet
136 314 m 0
 210 314 246 264 246 153 c 2
 246 136 l 1
 91 136 l 1
 92 81 103 50 138 50 c 0
 162 50 177 72 177 108 c 1
 246 108 l 1
 246 30 200 -7 138 -7 c 0
 59 -7 18 43 18 153 c 0
 18 264 60 314 136 314 c 0
136 256 m 0
 106 256 94 231 92 186 c 1
 173 186 l 1
 173 231 161 256 136 256 c 0
EndSplineSet
EndChar

StartChar: eacute
Encoding: 233 233 155
Width: 266
VWidth: 659
GlyphClass: 2
Flags: MW
HStem: -7 57<120.5 150 120.5 169> 136 50<92 173 92 246 91 173> 256 58<121 148.5> 344 77<143 150 93 213>
VStem: 18 74<186 186 186 208.5> 173 73
LayerCount: 2
Back
Fore
SplineSet
214 419 m 1
 150 344 l 1
 93 344 l 1
 143 421 l 1
 213 421 l 1
 214 419 l 1
136 314 m 0xec
 210 314 246 264 246 153 c 2
 246 136 l 1
 91 136 l 1
 92 81 103 50 138 50 c 0
 162 50 177 72 177 108 c 1
 246 108 l 1
 246 30 200 -7 138 -7 c 0
 59 -7 18 43 18 153 c 0
 18 264 60 314 136 314 c 0xec
136 256 m 0
 106 256 94 231 92 186 c 1
 173 186 l 1
 173 231 161 256 136 256 c 0
EndSplineSet
EndChar

StartChar: ebreve
Encoding: 277 277 156
Width: 266
VWidth: 659
GlyphClass: 2
Flags: MW
HStem: -7 57<120.5 150 120.5 169> 136 50<92 173 92 246 91 173> 256 58<121 148.5> 359 62<55 157>
VStem: 18 74<186 186 186 208.5> 173 73
LayerCount: 2
Back
Fore
SplineSet
211 421 m 1
 211 392 181 359 133 359 c 0
 85 359 55 392 55 421 c 1
 98 421 l 1
 100 413 113 402 133 402 c 0
 153 402 167 413 168 421 c 1
 211 421 l 1
136 314 m 0
 210 314 246 264 246 153 c 2
 246 136 l 1
 91 136 l 1
 92 81 103 50 138 50 c 0
 162 50 177 72 177 108 c 1
 246 108 l 1
 246 30 200 -7 138 -7 c 0
 59 -7 18 43 18 153 c 0
 18 264 60 314 136 314 c 0
136 256 m 0
 106 256 94 231 92 186 c 1
 173 186 l 1
 173 231 161 256 136 256 c 0
EndSplineSet
EndChar

StartChar: ecaron
Encoding: 283 283 157
Width: 266
VWidth: 659
GlyphClass: 2
Flags: MW
HStem: -7 57<120.5 150 120.5 169> 136 50<92 173 92 246 91 173> 256 58<121 148.5> 343 78<105 105 105 107 159 162>
VStem: 18 74<186 186 186 208.5> 173 73
LayerCount: 2
Back
Fore
SplineSet
105 343 m 1
 55 421 l 1
 107 421 l 1
 133 381 l 1
 159 421 l 1
 212 421 l 1
 162 343 l 1
 105 343 l 1
136 314 m 0xfc
 210 314 246 264 246 153 c 2
 246 136 l 1
 91 136 l 1
 92 81 103 50 138 50 c 0
 162 50 177 72 177 108 c 1
 246 108 l 1
 246 30 200 -7 138 -7 c 0
 59 -7 18 43 18 153 c 0
 18 264 60 314 136 314 c 0xfc
136 256 m 0
 106 256 94 231 92 186 c 1
 173 186 l 1
 173 231 161 256 136 256 c 0
EndSplineSet
EndChar

StartChar: ecircumflex
Encoding: 234 234 158
Width: 266
VWidth: 659
GlyphClass: 2
Flags: MW
HStem: -7 57<120.5 150 120.5 169> 136 50<92 173 92 246 91 173> 256 58<121 148.5> 343 78<105 107 55 162 159 162 105 212 159 159> 383 38<133 133>
VStem: 18 74<186 186 186 208.5> 173 73
LayerCount: 2
Back
Fore
SplineSet
159 343 m 1xd6
 133 383 l 1xee
 107 343 l 1
 55 343 l 1
 105 421 l 1
 162 421 l 1
 212 343 l 1
 159 343 l 1xd6
136 314 m 0
 210 314 246 264 246 153 c 2
 246 136 l 1
 91 136 l 1
 92 81 103 50 138 50 c 0
 162 50 177 72 177 108 c 1
 246 108 l 1
 246 30 200 -7 138 -7 c 0
 59 -7 18 43 18 153 c 0
 18 264 60 314 136 314 c 0
136 256 m 0
 106 256 94 231 92 186 c 1
 173 186 l 1
 173 231 161 256 136 256 c 0
EndSplineSet
EndChar

StartChar: edieresis
Encoding: 235 235 159
Width: 266
VWidth: 659
GlyphClass: 2
Flags: MW
HStem: -7 57<120.5 150 120.5 169> 136 50<92 173 92 246 91 173> 256 58<121 148.5> 358 63<53 111 53 111 53 155 155 214>
VStem: 18 74<186 186 186 208.5> 53 58<358 421> 155 59<358 421> 173 73
LayerCount: 2
Back
Fore
SplineSet
111 358 m 1xf6
 53 358 l 1
 53 421 l 1
 111 421 l 1
 111 358 l 1xf6
214 358 m 1
 155 358 l 1
 155 421 l 1
 214 421 l 1
 214 358 l 1
136 314 m 0xf9
 210 314 246 264 246 153 c 2
 246 136 l 1
 91 136 l 1
 92 81 103 50 138 50 c 0
 162 50 177 72 177 108 c 1
 246 108 l 1
 246 30 200 -7 138 -7 c 0
 59 -7 18 43 18 153 c 0
 18 264 60 314 136 314 c 0xf9
136 256 m 0
 106 256 94 231 92 186 c 1
 173 186 l 1
 173 231 161 256 136 256 c 0
EndSplineSet
EndChar

StartChar: edotaccent
Encoding: 279 279 160
Width: 266
VWidth: 659
GlyphClass: 2
Flags: MW
HStem: -7 57<120.5 150 120.5 169> 136 50<92 173 92 246 91 173> 256 58<121 148.5> 354 67<102 164 102 164>
VStem: 18 74<186 186 186 208.5> 102 62<354 421 354 421> 173 73
LayerCount: 2
Back
Fore
SplineSet
102 354 m 1
 102 421 l 1
 164 421 l 1
 164 354 l 1
 102 354 l 1
136 314 m 0xfa
 210 314 246 264 246 153 c 2
 246 136 l 1
 91 136 l 1
 92 81 103 50 138 50 c 0
 162 50 177 72 177 108 c 1
 246 108 l 1
 246 30 200 -7 138 -7 c 0
 59 -7 18 43 18 153 c 0
 18 264 60 314 136 314 c 0xfa
136 256 m 0
 106 256 94 231 92 186 c 1
 173 186 l 1
 173 231 161 256 136 256 c 0
EndSplineSet
EndChar

StartChar: egrave
Encoding: 232 232 161
Width: 266
VWidth: 659
GlyphClass: 2
Flags: MW
HStem: -7 57<120.5 150 120.5 169> 136 50<92 173 92 246 91 173> 256 58<121 148.5> 344 77<115 123 53 173 115 115>
VStem: 18 74<186 186 186 208.5> 173 73
LayerCount: 2
Back
Fore
SplineSet
173 344 m 1
 115 344 l 1
 53 419 l 1
 53 421 l 1
 123 421 l 1
 173 344 l 1
136 314 m 0xec
 210 314 246 264 246 153 c 2
 246 136 l 1
 91 136 l 1
 92 81 103 50 138 50 c 0
 162 50 177 72 177 108 c 1
 246 108 l 1
 246 30 200 -7 138 -7 c 0
 59 -7 18 43 18 153 c 0
 18 264 60 314 136 314 c 0xec
136 256 m 0
 106 256 94 231 92 186 c 1
 173 186 l 1
 173 231 161 256 136 256 c 0
EndSplineSet
EndChar

StartChar: emacron
Encoding: 275 275 162
Width: 266
VWidth: 659
GlyphClass: 2
Flags: MW
HStem: -7 57<120.5 150 120.5 169> 136 50<92 173 92 246 91 173> 256 58<121 148.5> 349 50<59 208 59 208>
VStem: 18 74<186 186 186 208.5> 59 149<349 399 349 399> 173 73
LayerCount: 2
Back
Fore
SplineSet
59 349 m 1xf4
 59 399 l 1
 208 399 l 1
 208 349 l 1
 59 349 l 1xf4
136 314 m 0xfa
 210 314 246 264 246 153 c 2
 246 136 l 1
 91 136 l 1
 92 81 103 50 138 50 c 0
 162 50 177 72 177 108 c 1
 246 108 l 1
 246 30 200 -7 138 -7 c 0
 59 -7 18 43 18 153 c 0
 18 264 60 314 136 314 c 0xfa
136 256 m 0
 106 256 94 231 92 186 c 1
 173 186 l 1
 173 231 161 256 136 256 c 0
EndSplineSet
EndChar

StartChar: eogonek
Encoding: 281 281 163
Width: 266
VWidth: 659
GlyphClass: 2
Flags: MW
HStem: -108 40<159 210> -100 21G<210 210> -7 57 136 50<92 173 92 246 91 173> 256 58<121 148.5>
VStem: 18 74<186 186 186 208.5> 114 96<-75.5 -68 -100 -44> 173 73
LayerCount: 2
Back
Fore
SplineSet
246 153 m 2x7d
 246 136 l 1
 91 136 l 1
 92 81 103 50 138 50 c 0
 162 50 177 72 177 108 c 1
 246 108 l 1x7d
 246 53 223 18 188 3 c 1
 182 -5 171 -22 171 -38 c 0
 171 -53 179 -68 198 -68 c 2
 210 -68 l 1xbe
 210 -100 l 1
 197 -105 185 -108 172 -108 c 0
 146 -108 114 -96 114 -55 c 0x7e
 114 -33 121 -19 131 -7 c 1
 57 -4 18 46 18 153 c 0
 18 264 60 314 136 314 c 0
 210 314 246 264 246 153 c 2x7d
92 186 m 1
 173 186 l 1
 173 231 161 256 136 256 c 0
 106 256 94 231 92 186 c 1
EndSplineSet
EndChar

StartChar: f
Encoding: 102 102 164
Width: 159
VWidth: 659
GlyphClass: 2
Flags: MW
HStem: 0 21G<36 106 36 36> 248 58<5 36 5 36 106 159> 367 59<80.5 130 80.5 159>
VStem: 36 70<0 248 0 248 306 342>
LayerCount: 2
Back
Fore
SplineSet
108 426 m 0
 125 426 148 422 159 419 c 1
 159 367 l 1
 130 367 l 2
 115 367 106 358 106 342 c 2
 106 306 l 1
 159 306 l 1
 159 248 l 1
 106 248 l 1
 106 0 l 1
 36 0 l 1
 36 248 l 1
 5 248 l 1
 5 306 l 1
 36 306 l 1
 36 344 l 2
 36 384 53 426 108 426 c 0
EndSplineSet
EndChar

StartChar: g
Encoding: 103 103 165
Width: 292
VWidth: 659
GlyphClass: 2
Flags: MW
HStem: -106 53<58.5 186 108 186 186 189> 3 65<100 218 113 189> 105 52<109 158.5 130 144> 262 52<130 153.5 107.5 158.5>
VStem: 9 71<-33 -20.5> 24 70<81 86> 32 69<193 225.5 193 240.5> 188 70<193 223.5 177.5 225.5> 218 71<-33 -15.5 -40.5 68> 225 58<352.5 358>
AnchorPoint: "Anchor-1" 0 0 basechar 0
AnchorPoint: "Anchor-0" 146 306 basechar 0
LayerCount: 2
Back
Fore
SplineSet
283 358 m 1xf240
 283 314 264 289 233 279 c 1
 249 262 258 238 258 209 c 0
 258 146 218 105 144 105 c 2
 115 105 l 2
 103 105 94 97 94 86 c 0
 94 76 102 68 113 68 c 2xf5
 218 68 l 2
 257 68 289 38 289 -12 c 0
 289 -69 244 -106 189 -106 c 2
 77 -106 l 2
 40 -106 9 -78 9 -36 c 0xf880
 9 -5 26 14 48 27 c 1
 33 36 24 52 24 72 c 0xf5
 24 100 44 118 69 127 c 1
 44 144 32 173 32 209 c 0
 32 272 71 314 144 314 c 0
 163 314 181 310 196 304 c 1
 219 322 225 347 225 358 c 1
 283 358 l 1xf240
144 262 m 0xf3
 116 262 101 242 101 209 c 0
 101 177 116 157 144 157 c 0
 173 157 188 177 188 209 c 0
 188 242 173 262 144 262 c 0xf3
108 3 m 2xf880
 92 3 80 -9 80 -24 c 0
 80 -42 92 -53 108 -53 c 2
 186 -53 l 2
 204 -53 218 -42 218 -24 c 0
 218 -7 205 3 189 3 c 2
 108 3 l 2xf880
EndSplineSet
EndChar

StartChar: gbreve
Encoding: 287 287 166
Width: 292
VWidth: 659
GlyphClass: 2
Flags: MW
HStem: -106 53<58.5 186 108 186 186 189> 3 65<100 218 113 189> 105 52<109 158.5 130 144> 262 52<130 153.5 107.5 158.5> 359 62<68 170>
VStem: 9 71<-33 -20.5> 24 70<81 86> 32 69<193 225.5 193 240.5> 188 70<193 223.5 177.5 225.5> 218 71<-33 -15.5 -40.5 68> 225 58<352.5 358>
LayerCount: 2
Back
Fore
SplineSet
223 421 m 1xfa80
 223 392 194 359 146 359 c 0
 98 359 68 392 68 421 c 1
 111 421 l 1
 113 413 127 402 146 402 c 0
 165 402 179 413 181 421 c 1
 223 421 l 1xfa80
283 358 m 1xf920
 283 314 264 289 233 279 c 1
 249 262 258 238 258 209 c 0
 258 146 218 105 144 105 c 2
 115 105 l 2
 103 105 94 97 94 86 c 0
 94 76 102 68 113 68 c 2xfa80
 218 68 l 2
 257 68 289 38 289 -12 c 0
 289 -69 244 -106 189 -106 c 2
 77 -106 l 2
 40 -106 9 -78 9 -36 c 0xfc40
 9 -5 26 14 48 27 c 1
 33 36 24 52 24 72 c 0xfa80
 24 100 44 118 69 127 c 1
 44 144 32 173 32 209 c 0
 32 272 71 314 144 314 c 0
 163 314 181 310 196 304 c 1
 219 322 225 347 225 358 c 1
 283 358 l 1xf920
144 262 m 0xf980
 116 262 101 242 101 209 c 0
 101 177 116 157 144 157 c 0
 173 157 188 177 188 209 c 0
 188 242 173 262 144 262 c 0xf980
108 3 m 2xfc40
 92 3 80 -9 80 -24 c 0
 80 -42 92 -53 108 -53 c 2
 186 -53 l 2
 204 -53 218 -42 218 -24 c 0
 218 -7 205 3 189 3 c 2
 108 3 l 2xfc40
EndSplineSet
EndChar

StartChar: gcircumflex
Encoding: 285 285 167
Width: 292
VWidth: 659
GlyphClass: 2
Flags: MW
HStem: -106 53<58.5 186 108 186 186 189> 3 65<100 218 113 189> 105 52<109 158.5 130 144> 262 52<130 153.5 107.5 158.5> 343 15<172 283> 343 78<118 120 68 175 172 175 118 224 172 172> 383 38<146 146>
VStem: 9 71<-33 -20.5> 24 70<81 86> 32 69<193 225.5 193 240.5> 188 70<193 223.5 177.5 225.5> 218 71<-33 -15.5 -40.5 68> 238 45<357 358 336 358>
LayerCount: 2
Back
Fore
SplineSet
172 343 m 1xe4a0
 146 383 l 1xe2a0
 120 343 l 1
 68 343 l 1
 118 421 l 1
 175 421 l 1
 224 343 l 1
 172 343 l 1xe4a0
283 358 m 1xe888
 283 314 264 289 233 279 c 1
 249 262 258 238 258 209 c 0
 258 146 218 105 144 105 c 2
 115 105 l 2
 103 105 94 97 94 86 c 0
 94 76 102 68 113 68 c 2xe8a0
 218 68 l 2
 257 68 289 38 289 -12 c 0
 289 -69 244 -106 189 -106 c 2
 77 -106 l 2
 40 -106 9 -78 9 -36 c 0xe510
 9 -5 26 14 48 27 c 1
 33 36 24 52 24 72 c 0xe4a0
 24 100 44 118 69 127 c 1
 44 144 32 173 32 209 c 0
 32 272 71 314 144 314 c 0
 163 314 181 310 196 304 c 1xf448
 238 306 238 345 238 357 c 0
 238 358 238 358 238 358 c 1
 283 358 l 1xe888
144 262 m 0xf460
 116 262 101 242 101 209 c 0
 101 177 116 157 144 157 c 0
 173 157 188 177 188 209 c 0
 188 242 173 262 144 262 c 0xf460
108 3 m 2xe510
 92 3 80 -9 80 -24 c 0
 80 -42 92 -53 108 -53 c 2
 186 -53 l 2
 204 -53 218 -42 218 -24 c 0
 218 -7 205 3 189 3 c 2
 108 3 l 2xe510
EndSplineSet
EndChar

StartChar: gcommaaccent
Encoding: 291 291 168
Width: 292
VWidth: 659
GlyphClass: 2
Flags: MW
HStem: -106 53<58.5 186 108 186 186 189> 3 65<100 218 113 189> 105 52<109 158.5 130 144> 262 52<130 153.5 107.5 158.5> 344 71<147 175 147 175 103 175>
VStem: 9 71<-33 -20.5> 24 70<81 86> 32 69<193 225.5 193 240.5> 103 72<344 409 409 409> 188 70<193 223.5 177.5 225.5> 218 71<-33 -15.5 -40.5 68> 225 58<352.5 358>
LayerCount: 2
Back
Fore
SplineSet
147 415 m 1xf890
 175 415 l 1
 175 344 l 1
 103 344 l 1
 103 409 l 1
 130 465 l 1
 168 465 l 1
 147 415 l 1xf890
283 358 m 1
 283 314 264 289 233 279 c 1
 249 262 258 238 258 209 c 0
 258 146 218 105 144 105 c 2
 115 105 l 2
 103 105 94 97 94 86 c 0
 94 76 102 68 113 68 c 2xfac0
 218 68 l 2
 257 68 289 38 289 -12 c 0
 289 -69 244 -106 189 -106 c 2
 77 -106 l 2
 40 -106 9 -78 9 -36 c 0xf4a0
 9 -5 26 14 48 27 c 1
 33 36 24 52 24 72 c 0xf2a0
 24 100 44 118 69 127 c 1
 44 144 32 173 32 209 c 0
 32 272 71 314 144 314 c 0
 163 314 181 310 196 304 c 1xf110
 219 322 225 347 225 358 c 1
 283 358 l 1
144 262 m 0xf140
 116 262 101 242 101 209 c 0
 101 177 116 157 144 157 c 0
 173 157 188 177 188 209 c 0
 188 242 173 262 144 262 c 0xf140
108 3 m 2xf4a0
 92 3 80 -9 80 -24 c 0
 80 -42 92 -53 108 -53 c 2
 186 -53 l 2
 204 -53 218 -42 218 -24 c 0
 218 -7 205 3 189 3 c 2
 108 3 l 2xf4a0
EndSplineSet
EndChar

StartChar: gdotaccent
Encoding: 289 289 169
Width: 292
VWidth: 659
GlyphClass: 2
Flags: MW
HStem: -106 53<58.5 186 108 186 186 189> 3 65<100 218 113 189> 105 52<109 158.5 130 144> 262 52<130 153.5 107.5 158.5> 354 67<115 177 115 177>
VStem: 9 71<-33 -20.5> 24 70<81 86> 32 69<193 225.5 193 240.5> 115 62<354 421 354 421> 188 70<193 223.5 177.5 225.5> 218 71<-33 -15.5 -40.5 68> 225 58<352.5 358>
LayerCount: 2
Back
Fore
SplineSet
115 354 m 1xfa90
 115 421 l 1
 177 421 l 1
 177 354 l 1
 115 354 l 1xfa90
283 358 m 1
 283 314 264 289 233 279 c 1
 249 262 258 238 258 209 c 0
 258 146 218 105 144 105 c 2
 115 105 l 2
 103 105 94 97 94 86 c 0
 94 76 102 68 113 68 c 2xfa40
 218 68 l 2
 257 68 289 38 289 -12 c 0
 289 -69 244 -106 189 -106 c 2
 77 -106 l 2
 40 -106 9 -78 9 -36 c 0xfc20
 9 -5 26 14 48 27 c 1
 33 36 24 52 24 72 c 0xfa40
 24 100 44 118 69 127 c 1
 44 144 32 173 32 209 c 0xf940
 32 272 71 314 144 314 c 0
 163 314 181 310 196 304 c 1
 219 322 225 347 225 358 c 1
 283 358 l 1
144 262 m 0xf940
 116 262 101 242 101 209 c 0
 101 177 116 157 144 157 c 0
 173 157 188 177 188 209 c 0
 188 242 173 262 144 262 c 0xf940
108 3 m 2xfc20
 92 3 80 -9 80 -24 c 0
 80 -42 92 -53 108 -53 c 2
 186 -53 l 2
 204 -53 218 -42 218 -24 c 0
 218 -7 205 3 189 3 c 2
 108 3 l 2xfc20
EndSplineSet
EndChar

StartChar: h
Encoding: 104 104 170
Width: 292
VWidth: 659
GlyphClass: 2
Flags: MW
HStem: 0 21G<32 102 32 32 190 260 190 190> 250 64<160.5 162.5> 401 20G<32 102 102 102>
VStem: 32 70<0 188 273 421> 190 70<0 196 196 215 0 215.5>
AnchorPoint: "Anchor-1" 0 0 basechar 0
AnchorPoint: "Anchor-0" 146 306 basechar 0
LayerCount: 2
Back
Fore
SplineSet
104 273 m 1
 118 293 142 314 179 314 c 0
 225 314 260 287 260 215 c 2
 260 0 l 1
 190 0 l 1
 190 196 l 2
 190 235 175 250 150 250 c 0
 123 250 102 223 102 188 c 2
 102 0 l 1
 32 0 l 1
 32 421 l 1
 102 421 l 1
 102 273 l 1
 104 273 l 1
EndSplineSet
EndChar

StartChar: hbar
Encoding: 295 295 171
Width: 292
VWidth: 659
GlyphClass: 2
Flags: MW
HStem: 0 21G<32 102 32 32 190 260 190 190> 250 23 250 64<160.5 162.5> 339 51<0 32 0 32 102 179> 339 82<0 102 0 102 32 179 32 102>
VStem: 32 70<0 188 273 339 390 421> 190 70<0 196 196 215 0 215.5>
LayerCount: 2
Back
Fore
SplineSet
102 390 m 1xd6
 179 390 l 1xd6
 179 339 l 1
 102 339 l 1xce
 102 273 l 1
 104 273 l 1
 118 293 142 314 179 314 c 0
 225 314 260 287 260 215 c 2
 260 0 l 1
 190 0 l 1
 190 196 l 2
 190 235 175 250 150 250 c 0
 123 250 102 223 102 188 c 2xae
 102 0 l 1
 32 0 l 1
 32 339 l 1
 0 339 l 1xce
 0 390 l 1
 32 390 l 1xd6
 32 421 l 1
 102 421 l 1xce
 102 390 l 1xd6
EndSplineSet
EndChar

StartChar: hcircumflex
Encoding: 293 293 172
Width: 292
VWidth: 659
GlyphClass: 2
Flags: MW
HStem: 0 21G<32 102 32 32 190 260 190 190> 250 64<160.5 162.5> 401 20G<32 102 102 102> 436 79<38 40 -13 94 92 94 38 144 92 92>
VStem: 32 70<0 188 273 421> 190 70<0 196 196 215 0 215.5>
LayerCount: 2
Back
Fore
SplineSet
92 436 m 1
 66 476 l 1
 40 436 l 1
 -13 436 l 1
 38 515 l 1
 94 515 l 1
 144 436 l 1
 92 436 l 1
104 273 m 1
 118 293 142 314 179 314 c 0
 225 314 260 287 260 215 c 2
 260 0 l 1
 190 0 l 1
 190 196 l 2
 190 235 175 250 150 250 c 0
 123 250 102 223 102 188 c 2
 102 0 l 1
 32 0 l 1
 32 421 l 1
 102 421 l 1xec
 102 273 l 1
 104 273 l 1
EndSplineSet
EndChar

StartChar: i
Encoding: 105 105 173
Width: 133
VWidth: 659
GlyphClass: 2
Flags: MW
HStem: 0 21G<32 32 32 101> 286 20G<32 101 101 101> 358 63<32 101 32 101>
VStem: 32 69<0 306 0 306 358 421>
LayerCount: 2
Back
Fore
SplineSet
32 358 m 1
 32 421 l 1
 101 421 l 1
 101 358 l 1
 32 358 l 1
32 0 m 1
 32 306 l 1
 101 306 l 1
 101 0 l 1
 32 0 l 1
EndSplineSet
EndChar

StartChar: dotlessi
Encoding: 305 305 174
Width: 133
VWidth: 659
GlyphClass: 2
Flags: MW
HStem: 0 21G<32 32 32 101> 286 20G<32 101 101 101>
VStem: 32 69<0 306 0 306>
AnchorPoint: "Anchor-1" 0 0 basechar 0
AnchorPoint: "Anchor-0" 67 306 basechar 0
LayerCount: 2
Back
Fore
SplineSet
32 0 m 1
 32 306 l 1
 101 306 l 1
 101 0 l 1
 32 0 l 1
EndSplineSet
EndChar

StartChar: iacute
Encoding: 237 237 175
Width: 133
VWidth: 659
GlyphClass: 2
Flags: MW
HStem: 0 21G<32 101 32 32> 286 20G<32 101 101 101> 344 77<76 84 26 146>
VStem: 32 69<0 306>
LayerCount: 2
Back
Fore
SplineSet
147 419 m 1
 84 344 l 1
 26 344 l 1
 76 421 l 1
 146 421 l 1
 147 419 l 1
101 0 m 1
 32 0 l 1
 32 306 l 1
 101 306 l 1
 101 0 l 1
EndSplineSet
EndChar

StartChar: ibreve
Encoding: 301 301 176
Width: 133
VWidth: 659
GlyphClass: 2
Flags: MW
HStem: 0 21G<32 32 32 101> 286 20G<32 101 101 101> 359 62<-12 91>
VStem: 32 69<0 306 0 306>
LayerCount: 2
Back
Fore
SplineSet
144 421 m 1
 144 392 115 359 67 359 c 0
 18 359 -12 392 -12 421 c 1
 32 421 l 1
 34 413 47 402 67 402 c 0
 86 402 100 413 101 421 c 1
 144 421 l 1
32 0 m 1
 32 306 l 1
 101 306 l 1
 101 0 l 1
 32 0 l 1
EndSplineSet
EndChar

StartChar: icircumflex
Encoding: 238 238 177
Width: 133
VWidth: 659
GlyphClass: 2
Flags: MW
HStem: 0 21G<32 32 32 101> 286 20G<32 101 101 101> 343 78<38 41 -13 96 93 96 38 145 93 93> 383 38<67 67>
VStem: 32 69<0 306 0 306>
LayerCount: 2
Back
Fore
SplineSet
93 343 m 1xe8
 67 383 l 1xd8
 41 343 l 1
 -13 343 l 1
 38 421 l 1
 96 421 l 1
 145 343 l 1
 93 343 l 1xe8
32 0 m 1
 32 306 l 1
 101 306 l 1
 101 0 l 1
 32 0 l 1
EndSplineSet
EndChar

StartChar: idieresis
Encoding: 239 239 178
Width: 133
VWidth: 659
GlyphClass: 2
Flags: MW
HStem: 0 21G<32 101 32 32> 286 20G<32 101 101 101> 358 63<-13 45 -13 45 -13 88 88 147>
VStem: -13 58<358 421> 32 69<0 306> 88 59<358 421>
LayerCount: 2
Back
Fore
SplineSet
45 358 m 1xf4
 -13 358 l 1
 -13 421 l 1
 45 421 l 1
 45 358 l 1xf4
147 358 m 1
 88 358 l 1
 88 421 l 1
 147 421 l 1
 147 358 l 1
101 0 m 1xe8
 32 0 l 1
 32 306 l 1
 101 306 l 1
 101 0 l 1xe8
EndSplineSet
EndChar

StartChar: igrave
Encoding: 236 236 179
Width: 133
VWidth: 659
GlyphClass: 2
Flags: MW
HStem: 0 21G<32 101 32 32> 286 20G<32 101 101 101> 344 77<49 57 -13 107 49 49>
VStem: 32 69<0 306>
LayerCount: 2
Back
Fore
SplineSet
107 344 m 1
 49 344 l 1
 -14 419 l 1
 -13 421 l 1
 57 421 l 1
 107 344 l 1
101 0 m 1
 32 0 l 1
 32 306 l 1
 101 306 l 1
 101 0 l 1
EndSplineSet
EndChar

StartChar: ij
Encoding: 307 307 180
Width: 266
VWidth: 659
GlyphClass: 2
Flags: MW
HStem: -106 59<111 191> 0 21G<32 101 32 32> 286 20G<32 101 101 101 164 234 234 234> 358 63<32 101 32 101 164 234>
VStem: 32 69<0 306 358 421> 164 70<-19 306 358 421>
LayerCount: 2
Back
Fore
SplineSet
101 358 m 1
 32 358 l 1
 32 421 l 1
 101 421 l 1
 101 358 l 1
234 358 m 1
 164 358 l 1
 164 421 l 1
 234 421 l 1
 234 358 l 1
101 0 m 1
 32 0 l 1
 32 306 l 1
 101 306 l 1
 101 0 l 1
234 -24 m 2
 234 -65 219 -106 163 -106 c 0
 146 -106 123 -103 111 -99 c 1
 111 -47 l 1
 137 -47 l 2
 155 -47 164 -38 164 -19 c 2
 164 306 l 1
 234 306 l 1
 234 -24 l 2
EndSplineSet
EndChar

StartChar: imacron
Encoding: 299 299 181
Width: 133
VWidth: 659
GlyphClass: 2
Flags: MW
HStem: 0 21G<32 32 32 101> 286 20G<32 101 101 101> 349 50<-8 141 -8 141>
VStem: 32 69<0 306 0 306>
LayerCount: 2
Back
Fore
SplineSet
-8 349 m 1
 -8 399 l 1
 141 399 l 1
 141 349 l 1
 -8 349 l 1
32 0 m 1
 32 306 l 1
 101 306 l 1
 101 0 l 1
 32 0 l 1
EndSplineSet
EndChar

StartChar: iogonek
Encoding: 303 303 182
Width: 133
VWidth: 659
GlyphClass: 2
Flags: MW
HStem: -111 40<71 123> -103 21G<123 123> 0 21G<32 53 32 32 101 101> 286 20G<32 101 101 101> 354 67<36 98 36 98>
VStem: 32 69<0 306> 36 62<354 421>
LayerCount: 2
Back
Fore
SplineSet
98 354 m 1x7a
 36 354 l 1
 36 421 l 1
 98 421 l 1
 98 354 l 1x7a
101 0 m 1x7c
 94 -8 84 -24 84 -41 c 0
 84 -56 91 -71 110 -71 c 2
 123 -71 l 1xbc
 123 -103 l 1
 109 -108 98 -111 84 -111 c 0
 58 -111 27 -98 27 -58 c 0
 27 -31 38 -14 53 0 c 1
 32 0 l 1
 32 306 l 1
 101 306 l 1
 101 0 l 1x7c
EndSplineSet
EndChar

StartChar: itilde
Encoding: 297 297 183
Width: 133
VWidth: 659
GlyphClass: 2
Flags: MW
HStem: 0 21G<32 32 32 101> 286 20G<32 101 101 101> 350 49<100 109.5 96.5 127.5> 350 71<5.5 7 -32 33.5 126 127.5> 372 49<24 33.5 5.5 36.5>
VStem: 32 69<0 306 0 306>
LayerCount: 2
Back
Fore
SplineSet
165 421 m 1xd4
 165 389 148 350 107 350 c 0xd4
 93 350 80 356 68 361 c 0
 56 367 43 372 30 372 c 0xcc
 18 372 10 366 7 350 c 1
 -32 350 l 1
 -32 382 -15 421 26 421 c 0xd4
 41 421 54 415 67 410 c 0
 79 404 90 399 103 399 c 0xe4
 116 399 123 405 126 421 c 1
 165 421 l 1xd4
32 0 m 1
 32 306 l 1
 101 306 l 1
 101 0 l 1
 32 0 l 1
EndSplineSet
EndChar

StartChar: j
Encoding: 106 106 184
Width: 133
VWidth: 659
GlyphClass: 2
Flags: MW
HStem: -106 59<-22 58> 286 20G<32 101 101 101> 358 63<32 101 32 101>
VStem: 32 69<-19 306 358 421>
LayerCount: 2
Back
Fore
SplineSet
32 358 m 1
 32 421 l 1
 101 421 l 1
 101 358 l 1
 32 358 l 1
101 -24 m 2
 101 -65 86 -106 30 -106 c 0
 13 -106 -9 -103 -22 -99 c 1
 -22 -47 l 1
 4 -47 l 2
 22 -47 32 -38 32 -19 c 2
 32 306 l 1
 101 306 l 1
 101 -24 l 2
EndSplineSet
EndChar

StartChar: jcircumflex
Encoding: 309 309 185
Width: 133
VWidth: 659
GlyphClass: 2
Flags: MW
HStem: -106 59<-22 58> 286 20G<32 101 101 101> 343 78<39 42 -11 97 94 97 39 146 94 94> 383 38<68 68>
VStem: 32 69<-19 306>
LayerCount: 2
Back
Fore
SplineSet
94 343 m 1xe8
 68 383 l 1xd8
 42 343 l 1
 -11 343 l 1
 39 421 l 1
 97 421 l 1
 146 343 l 1
 94 343 l 1xe8
101 -24 m 2
 101 -65 86 -106 30 -106 c 0
 13 -106 -9 -103 -22 -99 c 1
 -22 -47 l 1
 4 -47 l 2
 22 -47 32 -38 32 -19 c 2
 32 306 l 1
 101 306 l 1
 101 -24 l 2
EndSplineSet
EndChar

StartChar: k
Encoding: 107 107 186
Width: 266
VWidth: 659
GlyphClass: 2
Flags: MW
HStem: 0 21G<32 101 32 32 188 266 188 188> 286 20G<187 262 262 262> 401 20G<32 101 101 101>
VStem: 32 69<0 96 185 421>
AnchorPoint: "Anchor-1" 133 0 basechar 0
AnchorPoint: "Anchor-0" 0 0 basechar 0
LayerCount: 2
Back
Fore
SplineSet
187 306 m 1
 262 306 l 1
 171 182 l 1
 266 0 l 1
 188 0 l 1
 127 127 l 1
 101 96 l 1
 101 0 l 1
 32 0 l 1
 32 421 l 1
 101 421 l 1
 101 185 l 1
 187 306 l 1
EndSplineSet
EndChar

StartChar: kcommaaccent
Encoding: 311 311 187
Width: 266
VWidth: 659
GlyphClass: 2
Flags: MW
HStem: -103 71<98 125 98 169> 0 21G<32 101 32 32 188 266 188 188> 286 20G<187 262 262 262> 401 20G<32 101 101 101>
VStem: 32 69<0 96 185 421> 98 71<-98 -32 -98 -32 -98 -32>
LayerCount: 2
Back
Fore
SplineSet
187 306 m 1xf8
 262 306 l 1
 171 182 l 1
 266 0 l 1
 188 0 l 1
 127 127 l 1
 101 96 l 1
 101 0 l 1
 32 0 l 1
 32 421 l 1
 101 421 l 1
 101 185 l 1
 187 306 l 1xf8
143 -153 m 1xf4
 105 -153 l 1
 125 -103 l 1
 98 -103 l 1
 98 -32 l 1
 169 -32 l 1
 169 -98 l 1
 143 -153 l 1xf4
EndSplineSet
EndChar

StartChar: kgreenlandic
Encoding: 312 312 188
Width: 266
VWidth: 659
GlyphClass: 2
Flags: MW
HStem: 0 21G<32 101 32 32 188 266 188 188> 286 20G<32 101 101 101 187 262 262 262>
VStem: 32 69<0 96 185 306>
LayerCount: 2
Back
Fore
SplineSet
266 0 m 1
 188 0 l 1
 127 127 l 1
 101 96 l 1
 101 0 l 1
 32 0 l 1
 32 306 l 1
 101 306 l 1
 101 185 l 1
 187 306 l 1
 262 306 l 1
 171 182 l 1
 266 0 l 1
EndSplineSet
EndChar

StartChar: l
Encoding: 108 108 189
Width: 133
VWidth: 659
GlyphClass: 2
Flags: MW
HStem: 0 21G<32 32 32 101> 401 20G<32 101 101 101>
VStem: 32 69<0 421 0 421>
AnchorPoint: "Anchor-1" 67 0 basechar 0
AnchorPoint: "Anchor-0" 67 306 basechar 0
LayerCount: 2
Back
Fore
SplineSet
32 0 m 1
 32 421 l 1
 101 421 l 1
 101 0 l 1
 32 0 l 1
EndSplineSet
EndChar

StartChar: lacute
Encoding: 314 314 190
Width: 133
VWidth: 659
GlyphClass: 2
Flags: MW
HStem: 0 21G<32 101 32 32> 401 20G<32 101 101 101> 438 77<76 84 26 146>
VStem: 32 69<0 421>
LayerCount: 2
Back
Fore
SplineSet
147 513 m 1
 84 438 l 1
 26 438 l 1
 76 515 l 1
 146 515 l 1
 147 513 l 1
101 0 m 1
 32 0 l 1
 32 421 l 1
 101 421 l 1xd0
 101 0 l 1
EndSplineSet
EndChar

StartChar: lcaron
Encoding: 318 318 191
Width: 184
VWidth: 659
GlyphClass: 2
Flags: MW
HStem: 0 21G<32 32 32 101> 320 79<132 163 132 212> 320 101<32 163 32 132>
VStem: 32 69<0 421 0 421> 132 80<327 399 327 399 327 399>
LayerCount: 2
Back
Fore
SplineSet
32 0 m 1xd8
 32 421 l 1
 101 421 l 1xb8
 101 0 l 1
 32 0 l 1xd8
173 229 m 1
 132 229 l 1
 163 320 l 1
 132 320 l 1
 132 399 l 1
 212 399 l 1
 212 327 l 1xd8
 173 229 l 1
EndSplineSet
EndChar

StartChar: lcommaaccent
Encoding: 316 316 192
Width: 133
VWidth: 659
GlyphClass: 2
Flags: MW
HStem: -103 71<31 59 31 103> 0 21G<32 32 32 101> 401 20G<32 101 101 101>
VStem: 32 69<0 421 0 421>
LayerCount: 2
Back
Fore
SplineSet
32 0 m 1
 32 421 l 1
 101 421 l 1
 101 0 l 1
 32 0 l 1
76 -153 m 1
 38 -153 l 1
 59 -103 l 1
 31 -103 l 1
 31 -32 l 1
 103 -32 l 1
 103 -98 l 1
 76 -153 l 1
EndSplineSet
EndChar

StartChar: ldot
Encoding: 320 320 193
Width: 194
VWidth: 659
GlyphClass: 2
Flags: MW
HStem: 0 21G<32 32 32 101> 162 77<124 194 124 194> 401 20G<32 101 101 101>
VStem: 32 69<0 421 0 421> 124 70<162 239 162 239>
LayerCount: 2
Back
Fore
SplineSet
32 0 m 1
 32 421 l 1
 101 421 l 1
 101 0 l 1
 32 0 l 1
124 162 m 1xe8
 124 239 l 1
 194 239 l 1
 194 162 l 1
 124 162 l 1xe8
EndSplineSet
Ligature2: "Ligature Substitution lookup 41 subtable" l periodcentered
EndChar

StartChar: lslash
Encoding: 322 322 194
Width: 133
VWidth: 659
GlyphClass: 2
Flags: MW
HStem: 0 21G<32 101 32 32> 401 20G<32 101 101 101>
VStem: 32 69<0 134 134 134 190 197 0 253 253 421>
LayerCount: 2
Back
Fore
SplineSet
148 294 m 1
 148 238 l 1
 101 197 l 1
 101 0 l 1
 32 0 l 1
 32 134 l 1
 -8 100 l 1
 -8 156 l 1
 32 190 l 1
 32 421 l 1
 101 421 l 1
 101 253 l 1
 148 294 l 1
EndSplineSet
EndChar

StartChar: m
Encoding: 109 109 195
Width: 424
VWidth: 659
GlyphClass: 2
Flags: MW
HStem: 0 21G<32 102 32 32 179 248 179 179 324 394 324 324> 250 56<32 155.5> 250 64<132 188.5 300.5 302>
VStem: 32 70<0 188 0 306> 179 69<0 193 0 196 0 215.5> 324 70<0 196 196 215 0 215.5>
LayerCount: 2
Back
Fore
SplineSet
319 314 m 0xbc
 362 314 394 289 394 215 c 2
 394 0 l 1
 324 0 l 1
 324 196 l 2
 324 235 314 250 290 250 c 0
 268 250 248 227 248 193 c 2
 248 0 l 1
 179 0 l 1
 179 196 l 2
 179 235 167 250 144 250 c 0
 120 250 102 225 102 188 c 2xbc
 102 0 l 1
 32 0 l 1
 32 306 l 1
 90 306 l 1xdc
 98 269 l 1
 101 269 l 1
 115 293 140 314 173 314 c 0
 204 314 227 301 239 269 c 1
 255 293 282 314 319 314 c 0xbc
EndSplineSet
EndChar

StartChar: n
Encoding: 110 110 196
Width: 292
VWidth: 659
GlyphClass: 2
Flags: MW
HStem: 0 21G<32 102 32 32 190 260 190 190> 250 56<32 162.5> 250 64<160.5 162.5>
VStem: 32 70<0 188 0 306> 190 70<0 196 196 215 0 215.5>
AnchorPoint: "Anchor-1" 146 0 basechar 0
AnchorPoint: "Anchor-0" 146 306 basechar 0
LayerCount: 2
Back
Fore
SplineSet
179 314 m 0xb8
 225 314 260 287 260 215 c 2
 260 0 l 1
 190 0 l 1
 190 196 l 2
 190 235 175 250 150 250 c 0
 123 250 102 223 102 188 c 2xb8
 102 0 l 1
 32 0 l 1
 32 306 l 1
 90 306 l 1xd8
 98 269 l 1
 101 269 l 1
 117 293 142 314 179 314 c 0xb8
EndSplineSet
Substitution2: "'sups' Superscript lookup 11 subtable" uni207F
Substitution2: "'aalt' Access All Alternates lookup 0 subtable" uni207F
EndChar

StartChar: nacute
Encoding: 324 324 197
Width: 292
VWidth: 659
GlyphClass: 2
Flags: MW
HStem: 0 21G<32 102 32 32 190 260 190 190> 250 56<32 162.5> 250 64<160.5 162.5> 344 77<156 163 106 226>
VStem: 32 70<0 188 0 306> 190 70<0 196 196 215 0 215.5>
LayerCount: 2
Back
Fore
SplineSet
227 419 m 1xdc
 163 344 l 1
 106 344 l 1
 156 421 l 1
 226 421 l 1
 227 419 l 1xdc
179 314 m 0xbc
 225 314 260 287 260 215 c 2
 260 0 l 1
 190 0 l 1
 190 196 l 2
 190 235 175 250 150 250 c 0
 123 250 102 223 102 188 c 2xbc
 102 0 l 1
 32 0 l 1
 32 306 l 1
 90 306 l 1xdc
 98 269 l 1
 101 269 l 1
 117 293 142 314 179 314 c 0xbc
EndSplineSet
EndChar

StartChar: napostrophe
Encoding: 329 329 198
Width: 394
VWidth: 659
GlyphClass: 2
Flags: MW
HStem: 0 21G<134 204 134 134 292 362 292 292> 250 19 250 64<262 264.5> 279 27 328 71<39 68 39 111>
VStem: 39 72<334 334 334 399 334 399> 134 70<0 188 0 306> 292 70<0 196 196 215 0 215.5>
LayerCount: 2
Back
Fore
SplineSet
111 334 m 1xcf
 85 279 l 1
 47 279 l 1xdf
 68 328 l 1
 39 328 l 1
 39 399 l 1
 111 399 l 1
 111 334 l 1xcf
280 314 m 0xab
 328 314 362 287 362 215 c 2
 362 0 l 1
 292 0 l 1
 292 196 l 2
 292 235 277 250 252 250 c 0
 224 250 204 223 204 188 c 2xab
 204 0 l 1
 134 0 l 1
 134 306 l 1
 192 306 l 1xdb
 199 269 l 1
 203 269 l 1xcb
 218 293 244 314 280 314 c 0xab
EndSplineSet
EndChar

StartChar: ncaron
Encoding: 328 328 199
Width: 292
VWidth: 659
GlyphClass: 2
Flags: MW
HStem: 0 21G<32 102 32 32 190 260 190 190> 250 56<32 162.5> 250 64<160.5 162.5> 343 78<118 118 118 120 172 175>
VStem: 32 70<0 188 0 306> 190 70<0 196 196 215 0 215.5>
LayerCount: 2
Back
Fore
SplineSet
118 343 m 1xdc
 68 421 l 1
 120 421 l 1
 146 381 l 1
 172 421 l 1
 224 421 l 1
 175 343 l 1
 118 343 l 1xdc
179 314 m 0xbc
 225 314 260 287 260 215 c 2
 260 0 l 1
 190 0 l 1
 190 196 l 2
 190 235 175 250 150 250 c 0
 123 250 102 223 102 188 c 2xbc
 102 0 l 1
 32 0 l 1
 32 306 l 1
 90 306 l 1xdc
 98 269 l 1
 101 269 l 1
 117 293 142 314 179 314 c 0xbc
EndSplineSet
EndChar

StartChar: ncommaaccent
Encoding: 326 326 200
Width: 292
VWidth: 659
GlyphClass: 2
Flags: MW
HStem: -103 71<110 138 110 182> 0 21G<32 102 32 32 190 260 190 190> 250 56<32 162.5> 250 64<160.5 162.5>
VStem: 32 70<0 188 0 306> 110 72<-98 -32 -98 -32 -98 -32> 190 70<0 196 196 215 0 215.5>
LayerCount: 2
Back
Fore
SplineSet
179 314 m 0xda
 225 314 260 287 260 215 c 2
 260 0 l 1
 190 0 l 1
 190 196 l 2
 190 235 175 250 150 250 c 0
 123 250 102 223 102 188 c 2xda
 102 0 l 1
 32 0 l 1
 32 306 l 1
 90 306 l 1xea
 98 269 l 1
 101 269 l 1
 117 293 142 314 179 314 c 0xda
156 -153 m 1xde
 118 -153 l 1
 138 -103 l 1
 110 -103 l 1
 110 -32 l 1
 182 -32 l 1
 182 -98 l 1
 156 -153 l 1xde
EndSplineSet
EndChar

StartChar: eng
Encoding: 331 331 201
Width: 292
VWidth: 659
GlyphClass: 2
Flags: MW
HStem: -106 59<137 216> 0 21G<32 102 32 32> 250 56<32 162.5> 250 64<160.5 162.5>
VStem: 32 70<0 188 0 306> 190 70<-19 196 196 215>
LayerCount: 2
Back
Fore
SplineSet
179 314 m 0xdc
 225 314 260 287 260 215 c 2
 260 -24 l 2
 260 -65 244 -106 188 -106 c 0
 171 -106 149 -103 137 -99 c 1
 137 -47 l 1
 163 -47 l 2
 181 -47 190 -38 190 -19 c 2
 190 196 l 2
 190 235 175 250 150 250 c 0
 123 250 102 223 102 188 c 2xdc
 102 0 l 1
 32 0 l 1
 32 306 l 1
 90 306 l 1xec
 98 269 l 1
 101 269 l 1
 117 293 142 314 179 314 c 0xdc
EndSplineSet
EndChar

StartChar: ntilde
Encoding: 241 241 202
Width: 292
VWidth: 659
GlyphClass: 2
Flags: MW
HStem: 0 21G<32 102 32 32 190 260 190 190> 250 56<32 162.5> 250 64<160.5 162.5> 350 49<179 189 176.5 207> 350 71<85 87 48 112.5 206 207> 372 49<103.5 112.5 85 115.5>
VStem: 32 70<0 188 0 306> 48 39<350 366> 190 70<0 196 196 215 0 215.5>
LayerCount: 2
Back
Fore
SplineSet
244 421 m 1xaa80
 244 389 228 350 186 350 c 0xaa80
 172 350 159 356 147 361 c 0
 135 367 122 372 109 372 c 0xa680
 98 372 89 366 87 350 c 1xaa80
 48 350 l 1
 48 382 65 421 105 421 c 0xa980
 120 421 133 415 146 410 c 0
 158 404 170 399 183 399 c 0xb180
 195 399 204 405 206 421 c 1
 244 421 l 1xaa80
179 314 m 0
 225 314 260 287 260 215 c 2
 260 0 l 1
 190 0 l 1
 190 196 l 2
 190 235 175 250 150 250 c 0
 123 250 102 223 102 188 c 2xaa80
 102 0 l 1
 32 0 l 1
 32 306 l 1
 90 306 l 1xca80
 98 269 l 1
 101 269 l 1
 117 293 142 314 179 314 c 0
EndSplineSet
EndChar

StartChar: o
Encoding: 111 111 203
Width: 292
VWidth: 659
GlyphClass: 2
Flags: MW
HStem: -7 59<128 164.5 128 187> 254 60<128 164.5>
VStem: 24 73<112.5 142 142 164 112.5 208.5> 196 73<142 164 164 193.5>
AnchorPoint: "Anchor-1" 0 0 basechar 0
AnchorPoint: "Anchor-0" 146 306 basechar 0
LayerCount: 2
Back
Fore
SplineSet
146 314 m 0
 228 314 269 264 269 153 c 0
 269 43 228 -7 146 -7 c 0
 65 -7 24 43 24 153 c 0
 24 264 65 314 146 314 c 0
146 254 m 0
 110 254 97 223 97 164 c 2
 97 142 l 2
 97 83 110 52 146 52 c 0
 183 52 196 83 196 142 c 2
 196 164 l 2
 196 223 183 254 146 254 c 0
EndSplineSet
Substitution2: "Single Substitution lookup 42 subtable" ordmasculine
Substitution2: "'aalt' Access All Alternates lookup 0 subtable" ordmasculine
EndChar

StartChar: oacute
Encoding: 243 243 204
Width: 292
VWidth: 659
GlyphClass: 2
Flags: MW
HStem: -7 59<128 164.5 128 187> 254 60<128 164.5> 344 77<156 163 106 226>
VStem: 24 73<112.5 142 142 164 112.5 208.5> 196 73<142 164 164 193.5>
LayerCount: 2
Back
Fore
SplineSet
227 419 m 1
 163 344 l 1
 106 344 l 1
 156 421 l 1
 226 421 l 1
 227 419 l 1
146 314 m 0xd8
 228 314 269 264 269 153 c 0
 269 43 228 -7 146 -7 c 0
 65 -7 24 43 24 153 c 0
 24 264 65 314 146 314 c 0xd8
146 254 m 0
 110 254 97 223 97 164 c 2
 97 142 l 2
 97 83 110 52 146 52 c 0
 183 52 196 83 196 142 c 2
 196 164 l 2
 196 223 183 254 146 254 c 0
EndSplineSet
EndChar

StartChar: obreve
Encoding: 335 335 205
Width: 292
VWidth: 659
GlyphClass: 2
Flags: MW
HStem: -7 59<128 164.5 128 187> 254 60<128 164.5> 359 62<68 170>
VStem: 24 73<112.5 142 142 164 112.5 208.5> 196 73<142 164 164 193.5>
LayerCount: 2
Back
Fore
SplineSet
223 421 m 1
 223 392 194 359 146 359 c 0
 98 359 68 392 68 421 c 1
 111 421 l 1
 113 413 127 402 146 402 c 0
 165 402 179 413 181 421 c 1
 223 421 l 1
146 314 m 0
 228 314 269 264 269 153 c 0
 269 43 228 -7 146 -7 c 0
 65 -7 24 43 24 153 c 0
 24 264 65 314 146 314 c 0
146 254 m 0
 110 254 97 223 97 164 c 2
 97 142 l 2
 97 83 110 52 146 52 c 0
 183 52 196 83 196 142 c 2
 196 164 l 2
 196 223 183 254 146 254 c 0
EndSplineSet
EndChar

StartChar: ocircumflex
Encoding: 244 244 206
Width: 292
VWidth: 659
GlyphClass: 2
Flags: MW
HStem: -7 59<128 164.5 128 187> 254 60<128 164.5> 343 78<118 120 68 175 172 175 118 224 172 172> 383 38<146 146>
VStem: 24 73<112.5 142 142 164 112.5 208.5> 196 73<142 164 164 193.5>
LayerCount: 2
Back
Fore
SplineSet
172 343 m 1xec
 146 383 l 1xdc
 120 343 l 1
 68 343 l 1
 118 421 l 1
 175 421 l 1
 224 343 l 1
 172 343 l 1xec
146 314 m 0
 228 314 269 264 269 153 c 0
 269 43 228 -7 146 -7 c 0
 65 -7 24 43 24 153 c 0
 24 264 65 314 146 314 c 0
146 254 m 0
 110 254 97 223 97 164 c 2
 97 142 l 2
 97 83 110 52 146 52 c 0
 183 52 196 83 196 142 c 2
 196 164 l 2
 196 223 183 254 146 254 c 0
EndSplineSet
EndChar

StartChar: odieresis
Encoding: 246 246 207
Width: 292
VWidth: 659
GlyphClass: 2
Flags: MW
HStem: -7 59<128 164.5 128 187> 254 60<128 164.5> 358 63<66 124 66 124 66 168 168 226>
VStem: 24 73<112.5 142 142 164 112.5 208.5> 66 58<358 421> 168 58<358 421> 196 73<142 164 164 193.5>
LayerCount: 2
Back
Fore
SplineSet
124 358 m 1xec
 66 358 l 1
 66 421 l 1
 124 421 l 1
 124 358 l 1xec
226 358 m 1
 168 358 l 1
 168 421 l 1
 226 421 l 1
 226 358 l 1
146 314 m 0xf2
 228 314 269 264 269 153 c 0
 269 43 228 -7 146 -7 c 0
 65 -7 24 43 24 153 c 0
 24 264 65 314 146 314 c 0xf2
146 254 m 0
 110 254 97 223 97 164 c 2
 97 142 l 2
 97 83 110 52 146 52 c 0
 183 52 196 83 196 142 c 2
 196 164 l 2
 196 223 183 254 146 254 c 0
EndSplineSet
EndChar

StartChar: ograve
Encoding: 242 242 208
Width: 292
VWidth: 659
GlyphClass: 2
Flags: MW
HStem: -7 59<128 164.5 128 187> 254 60<128 164.5> 344 77<128 136 66 186 128 128>
VStem: 24 73<112.5 142 142 164 112.5 208.5> 196 73<142 164 164 193.5>
LayerCount: 2
Back
Fore
SplineSet
186 344 m 1
 128 344 l 1
 65 419 l 1
 66 421 l 1
 136 421 l 1
 186 344 l 1
146 314 m 0xd8
 228 314 269 264 269 153 c 0
 269 43 228 -7 146 -7 c 0
 65 -7 24 43 24 153 c 0
 24 264 65 314 146 314 c 0xd8
146 254 m 0
 110 254 97 223 97 164 c 2
 97 142 l 2
 97 83 110 52 146 52 c 0
 183 52 196 83 196 142 c 2
 196 164 l 2
 196 223 183 254 146 254 c 0
EndSplineSet
EndChar

StartChar: ohungarumlaut
Encoding: 337 337 209
Width: 292
VWidth: 659
GlyphClass: 2
Flags: MW
HStem: -7 59<128 164.5 128 187> 254 60<128 164.5> 344 77<117 127 80 175 162 162 162 175 198 208>
VStem: 24 73<112.5 142 142 164 112.5 208.5> 196 73<142 164 164 193.5>
LayerCount: 2
Back
Fore
SplineSet
127 344 m 1
 80 344 l 1
 117 421 l 1
 175 421 l 1
 175 419 l 1
 127 344 l 1
208 344 m 1
 162 344 l 1
 198 421 l 1
 256 421 l 1
 257 419 l 1
 208 344 l 1
146 314 m 0xf8
 228 314 269 264 269 153 c 0
 269 43 228 -7 146 -7 c 0
 65 -7 24 43 24 153 c 0
 24 264 65 314 146 314 c 0xf8
146 254 m 0
 110 254 97 223 97 164 c 2
 97 142 l 2
 97 83 110 52 146 52 c 0
 183 52 196 83 196 142 c 2
 196 164 l 2
 196 223 183 254 146 254 c 0
EndSplineSet
EndChar

StartChar: omacron
Encoding: 333 333 210
Width: 292
VWidth: 659
GlyphClass: 2
Flags: MW
HStem: -7 59<128 164.5 128 187> 254 60<128 164.5> 349 50<72 220 72 220>
VStem: 24 73<112.5 142 142 164 112.5 208.5> 72 148<349 399 349 399> 196 73<142 164 164 193.5>
LayerCount: 2
Back
Fore
SplineSet
72 349 m 1xe8
 72 399 l 1
 220 399 l 1
 220 349 l 1
 72 349 l 1xe8
146 314 m 0xf4
 228 314 269 264 269 153 c 0
 269 43 228 -7 146 -7 c 0
 65 -7 24 43 24 153 c 0
 24 264 65 314 146 314 c 0xf4
146 254 m 0
 110 254 97 223 97 164 c 2
 97 142 l 2
 97 83 110 52 146 52 c 0
 183 52 196 83 196 142 c 2
 196 164 l 2
 196 223 183 254 146 254 c 0
EndSplineSet
EndChar

StartChar: oslash
Encoding: 248 248 211
Width: 292
VWidth: 659
GlyphClass: 2
Flags: MW
HStem: -7 59<140 164.5 140 187> 254 60<128 152> 278 47<235 235>
VStem: 24 73<138.5 142 142 164 138.5 208.5> 196 73<142 164 164 169>
AnchorPoint: "Anchor-1" 0 0 basechar 0
AnchorPoint: "Anchor-0" 146 306 basechar 0
LayerCount: 2
Back
Fore
SplineSet
235 278 m 1xb8
 258 252 269 210 269 153 c 0
 269 43 228 -7 146 -7 c 0
 123 -7 103 -3 87 5 c 1
 74 -18 l 1
 30 -18 l 1
 57 29 l 1
 35 55 24 96 24 153 c 0
 24 264 65 314 146 314 c 0
 169 314 188 309 204 301 c 1xd8
 217 325 l 1
 261 325 l 1
 235 278 l 1xb8
146 254 m 0xd8
 110 254 97 223 97 164 c 2
 97 142 l 2
 97 135 97 128 98 122 c 0
 98 117 98 112 98 107 c 2
 173 245 l 1
 167 251 158 254 146 254 c 0xd8
118 62 m 1
 125 55 134 52 146 52 c 0
 183 52 196 83 196 142 c 2
 196 164 l 2
 196 174 195 183 194 191 c 0
 194 195 193 198 193 201 c 2
 118 62 l 1
EndSplineSet
EndChar

StartChar: oslashacute
Encoding: 511 511 212
Width: 292
VWidth: 659
GlyphClass: 2
Flags: MW
HStem: -7 59<140 164.5 140 187> 254 60<128 152> 278 47<235 235> 344 77<156 163 106 226>
VStem: 24 73<138.5 142 142 164 138.5 208.5> 196 73<142 164 164 169>
LayerCount: 2
Back
Fore
SplineSet
227 419 m 1x9c
 163 344 l 1
 106 344 l 1
 156 421 l 1
 226 421 l 1
 227 419 l 1x9c
235 278 m 1xbc
 258 252 269 210 269 153 c 0
 269 43 228 -7 146 -7 c 0
 123 -7 103 -3 87 5 c 1
 74 -18 l 1
 30 -18 l 1
 57 29 l 1
 35 55 24 96 24 153 c 0
 24 264 65 314 146 314 c 0
 169 314 188 309 204 301 c 1xdc
 217 325 l 1
 261 325 l 1
 235 278 l 1xbc
146 254 m 0xdc
 110 254 97 223 97 164 c 2
 97 142 l 2
 97 135 97 128 98 122 c 0
 98 117 98 112 98 107 c 2
 173 245 l 1
 167 251 158 254 146 254 c 0xdc
118 62 m 1
 125 55 134 52 146 52 c 0
 183 52 196 83 196 142 c 2
 196 164 l 2
 196 174 195 183 194 191 c 0
 194 195 193 198 193 201 c 2
 118 62 l 1
EndSplineSet
EndChar

StartChar: otilde
Encoding: 245 245 213
Width: 292
VWidth: 659
GlyphClass: 2
Flags: MW
HStem: -7 59<128 164.5 128 187> 254 60<128 164.5> 350 49<179 189 176.5 207> 350 71<85 87 48 112.5 206 207> 372 49<103.5 112.5 85 115.5>
VStem: 24 73<112.5 142 142 164 112.5 208.5> 48 39<350 366> 196 73<142 164 164 193.5>
LayerCount: 2
Back
Fore
SplineSet
244 421 m 1xd5
 244 389 228 350 186 350 c 0xd5
 172 350 159 356 147 361 c 0
 135 367 122 372 109 372 c 0xcb
 98 372 89 366 87 350 c 1
 48 350 l 1
 48 382 65 421 105 421 c 0xd3
 120 421 133 415 146 410 c 0
 158 404 170 399 183 399 c 0xe3
 195 399 204 405 206 421 c 1
 244 421 l 1xd5
146 314 m 0
 228 314 269 264 269 153 c 0
 269 43 228 -7 146 -7 c 0
 65 -7 24 43 24 153 c 0
 24 264 65 314 146 314 c 0
146 254 m 0
 110 254 97 223 97 164 c 2
 97 142 l 2
 97 83 110 52 146 52 c 0
 183 52 196 83 196 142 c 2
 196 164 l 2
 196 223 183 254 146 254 c 0
EndSplineSet
EndChar

StartChar: oe
Encoding: 339 339 214
Width: 451
VWidth: 659
GlyphClass: 2
Flags: MW
HStem: -7 59<128 164.5 128 164.5> 136 50<270 351 270 424 269 351> 254 60<128 164.5>
VStem: 24 73<112.5 142 142 164 112.5 208.5> 196 74<142 186 186 186 186 193.5> 351 73
AnchorPoint: "Anchor-1" 0 0 basechar 0
AnchorPoint: "Anchor-0" 225 306 basechar 0
LayerCount: 2
Back
Fore
SplineSet
314 314 m 0
 388 314 424 264 424 153 c 2
 424 136 l 1
 269 136 l 1
 270 81 282 50 316 50 c 0
 340 50 355 72 355 108 c 1
 424 108 l 1
 424 30 379 -7 316 -7 c 0
 280 -7 252 5 233 31 c 1
 212 5 183 -7 146 -7 c 0
 65 -7 24 43 24 153 c 0
 24 264 65 314 146 314 c 0
 183 314 212 301 232 275 c 1
 252 301 279 314 314 314 c 0
314 256 m 0
 284 256 272 231 270 186 c 1
 351 186 l 1
 351 231 339 256 314 256 c 0
146 254 m 0
 110 254 97 223 97 164 c 2
 97 142 l 2
 97 83 110 52 146 52 c 0
 183 52 196 83 196 142 c 2
 196 164 l 2
 196 223 183 254 146 254 c 0
EndSplineSet
EndChar

StartChar: p
Encoding: 112 112 215
Width: 292
VWidth: 659
GlyphClass: 2
Flags: MW
HStem: -101 21G<32 102 32 32> -7 64<157.5 165.5 131.5 200> 32 25 250 56<32 165.5> 250 64<154.5 165.5>
VStem: 32 70<-101 32 115.5 143 143 164> 195 73<142 164 164 191.5>
LayerCount: 2
Back
Fore
SplineSet
169 314 m 0xce
 230 314 268 264 268 153 c 0
 268 42 227 -7 173 -7 c 0xce
 142 -7 116 7 105 32 c 1
 102 32 l 1
 102 -101 l 1
 32 -101 l 1
 32 306 l 1
 90 306 l 1xb6
 98 269 l 1
 100 269 l 1
 115 299 140 314 169 314 c 0xce
148 250 m 0
 115 250 102 219 102 164 c 2
 102 143 l 2
 102 88 115 57 148 57 c 0
 183 57 195 87 195 142 c 2
 195 164 l 2
 195 219 183 250 148 250 c 0
EndSplineSet
EndChar

StartChar: thorn
Encoding: 254 254 216
Width: 292
VWidth: 659
GlyphClass: 2
Flags: MW
HStem: -101 21G<32 102 32 32> -7 64<157.5 165.5 131.5 200> 32 25 250 64<155 165.5> 401 20G<32 102 102 102>
VStem: 32 70<-101 32 115.5 143 143 164 272 421> 195 73<142 164 164 191.5>
LayerCount: 2
Back
Fore
SplineSet
169 314 m 0xde
 230 314 268 264 268 153 c 0
 268 42 227 -7 173 -7 c 0xde
 142 -7 116 7 105 32 c 1
 102 32 l 1xbe
 102 -101 l 1
 32 -101 l 1
 32 421 l 1
 102 421 l 1
 102 272 l 1
 117 300 141 314 169 314 c 0xde
195 142 m 2
 195 164 l 2
 195 219 183 250 148 250 c 0
 115 250 102 219 102 164 c 2
 102 143 l 2
 102 88 115 57 148 57 c 0
 183 57 195 87 195 142 c 2
EndSplineSet
EndChar

StartChar: q
Encoding: 113 113 217
Width: 292
VWidth: 659
GlyphClass: 2
Flags: MW
HStem: -101 21G<190 260 190 190> -7 64<126 134.5> 32 25 250 19 250 56<126 260> 250 64<126 137.5 92.5 160>
VStem: 24 73<114.5 142 142 164 114.5 208.5> 190 70<-101 32 32 32 143 164 164 191.5>
LayerCount: 2
Back
Fore
SplineSet
123 314 m 0xc7
 152 314 177 299 192 269 c 1
 194 269 l 1xd3
 202 306 l 1
 260 306 l 1
 260 -101 l 1
 190 -101 l 1
 190 32 l 1
 187 32 l 1xab
 176 7 150 -7 119 -7 c 0
 65 -7 24 42 24 153 c 0
 24 264 62 314 123 314 c 0xc7
143 250 m 0
 109 250 97 219 97 164 c 2
 97 142 l 2
 97 87 109 57 143 57 c 0
 177 57 190 88 190 143 c 2
 190 164 l 2
 190 219 177 250 143 250 c 0
EndSplineSet
EndChar

StartChar: r
Encoding: 114 114 218
Width: 186
VWidth: 659
GlyphClass: 2
Flags: MW
HStem: 0 21G<32 102 32 32> 241 65<32 159> 241 73<144 159 159 164 139.5 184> 289 20G<184 184>
VStem: 32 70<0 171>
AnchorPoint: "Anchor-1" 93 0 basechar 0
AnchorPoint: "Anchor-0" 93 306 basechar 0
LayerCount: 2
Back
Fore
SplineSet
155 314 m 0xa8
 173 314 184 309 184 309 c 1x98
 184 241 l 1
 159 241 l 2
 129 241 102 225 102 171 c 2xa8
 102 0 l 1
 32 0 l 1
 32 306 l 1
 90 306 l 1xc8
 98 262 l 1
 102 262 l 1
 110 287 124 314 155 314 c 0xa8
EndSplineSet
EndChar

StartChar: racute
Encoding: 341 341 219
Width: 186
VWidth: 659
GlyphClass: 2
Flags: MW
HStem: 0 21G<32 102 32 32> 241 65<32 159> 241 73<144 159 159 164 139.5 184> 289 20G<184 184> 344 77<74 83 24 145>
VStem: 32 70<0 171>
LayerCount: 2
Back
Fore
SplineSet
146 419 m 1x9c
 83 344 l 1
 24 344 l 1
 74 421 l 1
 145 421 l 1
 146 419 l 1x9c
155 314 m 0xac
 173 314 184 309 184 309 c 1x9c
 184 241 l 1
 159 241 l 2
 129 241 102 225 102 171 c 2xac
 102 0 l 1
 32 0 l 1
 32 306 l 1
 90 306 l 1xcc
 98 262 l 1
 102 262 l 1
 110 287 124 314 155 314 c 0xac
EndSplineSet
EndChar

StartChar: rcaron
Encoding: 345 345 220
Width: 186
VWidth: 659
GlyphClass: 2
Flags: MW
HStem: 0 21G<32 102 32 32> 241 65<32 159> 241 73<144 159 159 164 139.5 184> 289 20G<184 184> 343 78<37 37 37 39 91 94>
VStem: 32 70<0 171>
LayerCount: 2
Back
Fore
SplineSet
37 343 m 1x9c
 -13 421 l 1
 39 421 l 1
 65 381 l 1
 91 421 l 1
 143 421 l 1
 94 343 l 1
 37 343 l 1x9c
155 314 m 0xac
 173 314 184 309 184 309 c 1x9c
 184 241 l 1
 159 241 l 2
 129 241 102 225 102 171 c 2xac
 102 0 l 1
 32 0 l 1
 32 306 l 1
 90 306 l 1xcc
 98 262 l 1
 102 262 l 1
 110 287 124 314 155 314 c 0xac
EndSplineSet
EndChar

StartChar: rcommaaccent
Encoding: 343 343 221
Width: 186
VWidth: 659
GlyphClass: 2
Flags: MW
HStem: -103 71<34 63 34 107> 0 21G<32 102 32 32> 241 65<32 159> 241 73<144 159 159 164 139.5 184> 289 20G<184 184>
VStem: 32 70<0 171>
LayerCount: 2
Back
Fore
SplineSet
155 314 m 0xd4
 173 314 184 309 184 309 c 1xcc
 184 241 l 1
 159 241 l 2
 129 241 102 225 102 171 c 2xd4
 102 0 l 1
 32 0 l 1
 32 306 l 1
 90 306 l 1xe4
 98 262 l 1
 102 262 l 1
 110 287 124 314 155 314 c 0xd4
80 -153 m 1
 42 -153 l 1
 63 -103 l 1
 34 -103 l 1
 34 -32 l 1
 107 -32 l 1
 107 -98 l 1xcc
 80 -153 l 1
EndSplineSet
EndChar

StartChar: s
Encoding: 115 115 222
Width: 266
VWidth: 659
GlyphClass: 2
Flags: MW
HStem: -7 57<123 142.5 123 163> -7 105<20 163> 217 97<102.5 237 102.5 165> 256 58<120 141.5>
VStem: 19 72<61 98> 24 71<214 235 214 251.5> 165 72<217 218 218 230 217 231> 173 71<70.5 97>
AnchorPoint: "Anchor-1" 133 0 basechar 0
AnchorPoint: "Anchor-0" 133 306 basechar 0
LayerCount: 2
Back
Fore
SplineSet
133 314 m 0x9a
 192 314 237 283 237 230 c 2x9a
 237 217 l 1xaa
 165 217 l 1
 165 218 l 2
 165 244 152 256 131 256 c 0
 109 256 95 244 95 226 c 0x96
 95 202 120 195 150 188 c 0
 192 177 244 164 244 92 c 0
 244 18 196 -7 130 -7 c 0x99
 60 -7 19 32 19 90 c 0
 19 93 20 98 20 98 c 1x5a
 91 98 l 1
 91 93 l 2x9a
 92 61 113 50 133 50 c 0
 152 50 173 58 173 83 c 0
 173 111 146 118 115 127 c 0
 73 139 24 152 24 220 c 0x95
 24 283 72 314 133 314 c 0x9a
EndSplineSet
EndChar

StartChar: sacute
Encoding: 347 347 223
Width: 266
VWidth: 659
GlyphClass: 2
Flags: MW
HStem: -7 57<123 142.5 123 163> -7 105<20 163> 217 97<102.5 237 102.5 165> 256 58<120 141.5> 344 77<143 150 93 213>
VStem: 19 72<61 98> 24 71<214 235 214 251.5> 165 72<217 218 218 230 217 231> 173 71<70.5 97>
LayerCount: 2
Back
Fore
SplineSet
214 419 m 1x8d
 150 344 l 1
 93 344 l 1
 143 421 l 1
 213 421 l 1
 214 419 l 1x8d
133 314 m 0x9b
 192 314 237 283 237 230 c 2x9d
 237 217 l 1xad
 165 217 l 1
 165 218 l 2
 165 244 152 256 131 256 c 0
 109 256 95 244 95 226 c 0x9b
 95 202 120 195 150 188 c 0
 192 177 244 164 244 92 c 0
 244 18 196 -7 130 -7 c 0x9c80
 60 -7 19 32 19 90 c 0
 19 93 20 98 20 98 c 1x4d
 91 98 l 1
 91 93 l 2
 92 61 113 50 133 50 c 0
 152 50 173 58 173 83 c 0x8c80
 173 111 146 118 115 127 c 0
 73 139 24 152 24 220 c 0
 24 283 72 314 133 314 c 0x9b
EndSplineSet
EndChar

StartChar: scaron
Encoding: 353 353 224
Width: 266
VWidth: 659
GlyphClass: 2
Flags: MW
HStem: -7 57<123 142.5 123 163> -7 105<20 163> 217 97<102.5 237 102.5 165> 256 58<120 141.5> 343 78<105 107 159 162 105 105>
VStem: 19 72<61 98> 24 71<214 235 214 251.5> 165 72<217 218 218 230 217 231> 173 71<70.5 97>
LayerCount: 2
Back
Fore
SplineSet
162 343 m 1x8d
 105 343 l 1
 55 421 l 1
 107 421 l 1
 133 381 l 1
 159 421 l 1
 212 421 l 1
 162 343 l 1x8d
133 314 m 0x9b
 192 314 237 283 237 230 c 2x9d
 237 217 l 1xad
 165 217 l 1
 165 218 l 2
 165 244 152 256 131 256 c 0
 109 256 95 244 95 226 c 0x9b
 95 202 120 195 150 188 c 0
 192 177 244 164 244 92 c 0
 244 18 196 -7 130 -7 c 0x9c80
 60 -7 19 32 19 90 c 0
 19 93 20 98 20 98 c 1x4d
 91 98 l 1
 91 93 l 2
 92 61 113 50 133 50 c 0
 152 50 173 58 173 83 c 0x8c80
 173 111 146 118 115 127 c 0
 73 139 24 152 24 220 c 0
 24 283 72 314 133 314 c 0x9b
EndSplineSet
EndChar

StartChar: scedilla
Encoding: 351 351 225
Width: 266
VWidth: 659
GlyphClass: 2
Flags: MW
HStem: -106 33<117.5 118 118 124.5 77 138.5> -101 21G<77 77> -45 26<100 143> -7 21G<144 144> -5 21G<105 105> 217 97<102.5 237 102.5 165> 256 58<120 141.5>
VStem: 19 72<64.5 98> 24 71<214 235 214 251.5> 102.5 41 139 50<-64.5 -54> 165 72<217 218 218 230 217 231> 173 71<70.5 97>
LayerCount: 2
Back
Fore
SplineSet
133 314 m 0x8b10
 192 314 237 283 237 230 c 2x8b10
 237 217 l 1x8d10
 165 217 l 1
 165 218 l 2x8b10
 165 244 152 256 131 256 c 0
 109 256 95 244 95 226 c 0
 95 202 120 195 150 188 c 0
 192 177 244 164 244 92 c 0x9288
 244 22 202 -3 144 -7 c 1x9350
 143 -19 l 1xab20
 168 -21 189 -32 189 -59 c 0
 189 -98 151 -106 126 -106 c 0x8b20
 109 -106 91 -104 77 -101 c 1x4b50
 77 -73 l 1x8b50
 118 -73 l 2x8b20
 131 -73 139 -70 139 -59 c 0
 139 -49 134 -45 119 -45 c 2xab20
 100 -45 l 1xab50
 105 -5 l 1x8b10
 50 3 19 39 19 90 c 0
 19 93 20 98 20 98 c 1
 91 98 l 1
 91 93 l 2xab10
 92 61 113 50 133 50 c 0
 152 50 173 58 173 83 c 0
 173 111 146 118 115 127 c 0
 73 139 24 152 24 220 c 0xaa88
 24 283 72 314 133 314 c 0x8b10
EndSplineSet
Substitution2: "'locl' Localized Forms in Latin lookup 6 subtable" scommaaccent
Substitution2: "'locl' Localized Forms in Latin lookup 5 subtable" scommaaccent
Substitution2: "'aalt' Access All Alternates lookup 0 subtable" scommaaccent
EndChar

StartChar: scircumflex
Encoding: 349 349 226
Width: 266
VWidth: 659
GlyphClass: 2
Flags: MW
HStem: -7 57<123 142.5 123 163> -7 105<20 163> 217 97<102.5 237 102.5 165> 256 58<120 141.5> 343 78<105 107 55 162 159 162 105 212 159 159> 383 38<133 133>
VStem: 19 72<61 98> 24 71<214 235 214 251.5> 165 72<217 218 218 230 217 231> 173 71<70.5 97>
LayerCount: 2
Back
Fore
SplineSet
212 343 m 1x8a80
 159 343 l 1x8a80
 133 383 l 1x8680
 107 343 l 1
 55 343 l 1
 105 421 l 1
 162 421 l 1
 212 343 l 1x8a80
133 314 m 0x9980
 192 314 237 283 237 230 c 2x9a80
 237 217 l 1xaa80
 165 217 l 1
 165 218 l 2
 165 244 152 256 131 256 c 0
 109 256 95 244 95 226 c 0x9980
 95 202 120 195 150 188 c 0
 192 177 244 164 244 92 c 0
 244 18 196 -7 130 -7 c 0x9a40
 60 -7 19 32 19 90 c 0
 19 93 20 98 20 98 c 1x4a80
 91 98 l 1
 91 93 l 2
 92 61 113 50 133 50 c 0
 152 50 173 58 173 83 c 0x8a40
 173 111 146 118 115 127 c 0
 73 139 24 152 24 220 c 0
 24 283 72 314 133 314 c 0x9980
EndSplineSet
EndChar

StartChar: scommaaccent
Encoding: 537 537 227
Width: 266
VWidth: 659
GlyphClass: 2
Flags: MW
HStem: -103 71<96 125 96 169> -7 57<123 142.5 123 163> -7 105<20 163> 217 97<102.5 237 102.5 165> 256 58<120 141.5>
VStem: 19 72<61 98> 24 71<214 235 214 251.5> 96 73<-98 -32 -98 -32 -98 -32> 165 72<217 218 218 230 217 231> 173 71<70.5 97>
AnchorPoint: "Anchor-1" 133 0 basechar 0
AnchorPoint: "Anchor-0" 133 306 basechar 0
LayerCount: 2
Back
Fore
SplineSet
133 314 m 0x8c80
 192 314 237 283 237 230 c 2x8c80
 237 217 l 1x9480
 165 217 l 1
 165 218 l 2
 165 244 152 256 131 256 c 0
 109 256 95 244 95 226 c 0x8a80
 95 202 120 195 150 188 c 0
 192 177 244 164 244 92 c 0
 244 18 196 -7 130 -7 c 0xcc40
 60 -7 19 32 19 90 c 0
 19 93 20 98 20 98 c 1xac80
 91 98 l 1
 91 93 l 2xcc80
 92 61 113 50 133 50 c 0
 152 50 173 58 173 83 c 0
 173 111 146 118 115 127 c 0
 73 139 24 152 24 220 c 0xca40
 24 283 72 314 133 314 c 0x8c80
142 -153 m 1x89
 104 -153 l 1
 125 -103 l 1
 96 -103 l 1
 96 -32 l 1
 169 -32 l 1
 169 -98 l 1
 142 -153 l 1x89
EndSplineSet
EndChar

StartChar: germandbls
Encoding: 223 223 228
Width: 292
VWidth: 659
GlyphClass: 2
Flags: MW
HStem: 0 59<23 152 121 152 152 159 121 152> 188 66<121 150 150 152 121 150> 369 59<129.5 161>
VStem: 23 70<0 303 303 308 0 347.5> 121 87<228 230 228 254 228 254> 193 71<300.5 333> 205 70<107.5 142.5>
LayerCount: 2
Back
Fore
SplineSet
148 428 m 0xf4
 214 428 264 387 264 319 c 0xf4
 264 281 241 243 208 230 c 1
 208 228 l 1
 248 214 275 169 275 125 c 0
 275 49 224 0 159 0 c 2
 121 0 l 1
 121 59 l 1
 152 59 l 2
 181 59 205 90 205 125 c 0
 205 160 181 188 152 188 c 2xf2
 121 188 l 1
 121 254 l 1xf8
 150 254 l 2
 173 254 193 283 193 318 c 0
 193 348 177 369 145 369 c 0
 114 369 93 347 93 308 c 2
 93 0 l 1
 23 0 l 1
 23 303 l 2
 23 392 78 428 148 428 c 0xf4
EndSplineSet
EndChar

StartChar: longs
Encoding: 383 383 229
Width: 133
VWidth: 659
GlyphClass: 2
Flags: MW
HStem: 0 21G<36 106 36 36> 248 58<5 36 5 36> 367 59<80.5 130 80.5 159>
VStem: 36 70<0 248 248 248 306 342 0 344 0 364>
LayerCount: 2
Back
Fore
SplineSet
108 426 m 0
 125 426 148 422 159 419 c 1
 159 367 l 1
 130 367 l 2
 115 367 106 358 106 342 c 2
 106 0 l 1
 36 0 l 1
 36 248 l 1
 5 248 l 1
 5 306 l 1
 36 306 l 1
 36 344 l 2
 36 384 53 426 108 426 c 0
EndSplineSet
EndChar

StartChar: t
Encoding: 116 116 230
Width: 159
VWidth: 659
GlyphClass: 2
Flags: MW
HStem: -7 59<80.5 150> 0 21G<150 150> 248 58<5 36 5 36 106 150>
VStem: 36 70<75 77 77 248>
AnchorPoint: "Anchor-1" 96 0 basechar 0
AnchorPoint: "Anchor-0" 0 0 basechar 0
LayerCount: 2
Back
Fore
SplineSet
150 306 m 1x70
 150 248 l 1
 106 248 l 1
 106 77 l 2
 106 61 115 52 130 52 c 2
 150 52 l 1
 150 0 l 1
 140 -3 122 -7 108 -7 c 0
 53 -7 36 34 36 75 c 2xb0
 36 248 l 1
 5 248 l 1
 5 306 l 1
 36 306 l 1
 47 393 l 1
 106 393 l 1
 106 306 l 1
 150 306 l 1x70
EndSplineSet
EndChar

StartChar: tbar
Encoding: 359 359 231
Width: 159
VWidth: 659
GlyphClass: 2
Flags: MW
HStem: -7 59<80.5 150> 0 21G<150 150> 153 51<7 36 7 36 106 148> 248 58<5 36 5 36 106 150>
VStem: 36 70<75 77 77 153 204 248>
LayerCount: 2
Back
Fore
SplineSet
106 306 m 1x78
 150 306 l 1
 150 248 l 1
 106 248 l 1
 106 204 l 1
 148 204 l 1
 148 153 l 1
 106 153 l 1
 106 77 l 2
 106 61 115 52 130 52 c 2
 150 52 l 1
 150 0 l 1
 140 -3 122 -7 108 -7 c 0
 53 -7 36 34 36 75 c 2xb8
 36 153 l 1
 7 153 l 1
 7 204 l 1
 36 204 l 1
 36 248 l 1
 5 248 l 1
 5 306 l 1
 36 306 l 1
 47 393 l 1
 106 393 l 1
 106 306 l 1x78
EndSplineSet
EndChar

StartChar: tcaron
Encoding: 357 357 232
Width: 229
VWidth: 659
GlyphClass: 2
Flags: MW
HStem: -7 59<80.5 150> 0 21G<150 150> 248 58<5 36 5 36 106 150> 320 79<175 207 175 255>
VStem: 36 70<75 77 77 248> 175 80<327 399 327 399 327 399>
LayerCount: 2
Back
Fore
SplineSet
223 248 m 1x6c
 182 248 l 1xac
 207 320 l 1
 175 320 l 1
 175 399 l 1
 255 399 l 1
 255 327 l 1x7c
 223 248 l 1x6c
150 306 m 1
 150 248 l 1
 106 248 l 1
 106 77 l 2
 106 61 115 52 130 52 c 2
 150 52 l 1
 150 0 l 1
 140 -3 122 -7 108 -7 c 0
 53 -7 36 34 36 75 c 2
 36 248 l 1
 5 248 l 1
 5 306 l 1
 36 306 l 1
 47 393 l 1
 106 393 l 1
 106 306 l 1
 150 306 l 1
EndSplineSet
EndChar

StartChar: uni0163
Encoding: 355 355 233
Width: 159
VWidth: 659
GlyphClass: 2
Flags: MW
HStem: -106 33<79.5 81 81 87 39 100.5> -101 28<39 81> -45 26<62 106> -7 21G<107 114.5> -7 59<107 150> 0 21G<150 150> 248 58<5 36 5 36 106 150>
VStem: 36 70<75 77 77 248> 81 70<-73 -73 -78.5 -45>
AnchorPoint: "Anchor-1" 96 0 basechar 0
AnchorPoint: "Anchor-0" 0 0 basechar 0
LayerCount: 2
Back
Fore
SplineSet
106 -19 m 1x93
 131 -21 151 -32 151 -59 c 0
 151 -98 113 -106 88 -106 c 0x8680
 71 -106 53 -104 39 -101 c 1x47
 39 -73 l 1
 81 -73 l 2
 93 -73 101 -70 101 -59 c 0x8680
 101 -49 96 -45 81 -45 c 2
 62 -45 l 1xa680
 68 3 l 1xa7
 44 17 36 46 36 75 c 2
 36 248 l 1
 5 248 l 1
 5 306 l 1
 36 306 l 1
 47 393 l 1
 106 393 l 1
 106 306 l 1
 150 306 l 1
 150 248 l 1
 106 248 l 1
 106 77 l 2
 106 61 115 52 130 52 c 2x8b
 150 52 l 1x8a80
 150 0 l 1x8680
 140 -3 122 -7 107 -7 c 1
 106 -19 l 1x93
EndSplineSet
Substitution2: "'locl' Localized Forms in Latin lookup 6 subtable" uni021B
Substitution2: "'locl' Localized Forms in Latin lookup 5 subtable" uni021B
Substitution2: "'aalt' Access All Alternates lookup 0 subtable" uni021B
EndChar

StartChar: uni021B
Encoding: 539 539 234
Width: 159
VWidth: 659
GlyphClass: 2
Flags: MW
HStem: -103 71<43 72 43 116> -7 59<80.5 150> 0 21G<150 150> 248 58<5 36 5 36 106 150>
VStem: 36 70<75 77 77 248> 43 73<-98 -32 -98 -32 -98 -32>
LayerCount: 2
Back
Fore
SplineSet
150 306 m 1xb8
 150 248 l 1
 106 248 l 1
 106 77 l 2
 106 61 115 52 130 52 c 2
 150 52 l 1
 150 0 l 1
 140 -3 122 -7 108 -7 c 0
 53 -7 36 34 36 75 c 2xd8
 36 248 l 1
 5 248 l 1
 5 306 l 1
 36 306 l 1
 47 393 l 1
 106 393 l 1
 106 306 l 1
 150 306 l 1xb8
89 -153 m 1xb4
 51 -153 l 1
 72 -103 l 1
 43 -103 l 1
 43 -32 l 1
 116 -32 l 1
 116 -98 l 1
 89 -153 l 1xb4
EndSplineSet
EndChar

StartChar: u
Encoding: 117 117 235
Width: 292
VWidth: 659
GlyphClass: 2
Flags: MW
HStem: -7 64<129 131.5> 0 57<129 202 129 260> 286 20G<32 102 102 102 190 260 260 260>
VStem: 32 70<92 111 111 306> 190 70<117 306 0 306>
AnchorPoint: "Anchor-1" 0 0 basechar 0
AnchorPoint: "Anchor-0" 146 306 basechar 0
LayerCount: 2
Back
Fore
SplineSet
202 0 m 1x78
 194 38 l 1
 191 38 l 1
 175 14 150 -7 113 -7 c 0
 67 -7 32 19 32 92 c 2
 32 306 l 1
 102 306 l 1
 102 111 l 2
 102 71 116 57 142 57 c 0
 169 57 190 82 190 117 c 2xb8
 190 306 l 1
 260 306 l 1
 260 0 l 1
 202 0 l 1x78
EndSplineSet
EndChar

StartChar: uacute
Encoding: 250 250 236
Width: 292
VWidth: 659
GlyphClass: 2
Flags: MW
HStem: -7 64<129 131.5> 0 57<129 260 129 202> 286 20G<32 102 102 102 190 260 260 260> 344 77<156 163 106 226>
VStem: 32 70<92 111 111 306> 190 70<117 306>
LayerCount: 2
Back
Fore
SplineSet
227 419 m 1xbc
 163 344 l 1
 106 344 l 1
 156 421 l 1
 226 421 l 1
 227 419 l 1xbc
260 0 m 1x7c
 202 0 l 1x7c
 194 38 l 1
 191 38 l 1
 175 14 150 -7 113 -7 c 0
 67 -7 32 19 32 92 c 2
 32 306 l 1
 102 306 l 1
 102 111 l 2
 102 71 116 57 142 57 c 0
 169 57 190 82 190 117 c 2xbc
 190 306 l 1
 260 306 l 1
 260 0 l 1x7c
EndSplineSet
EndChar

StartChar: ubreve
Encoding: 365 365 237
Width: 292
VWidth: 659
GlyphClass: 2
Flags: MW
HStem: -7 64<129 131.5> 0 57<129 202 129 260> 286 20G<32 102 102 102 190 260 260 260> 359 62<68 170>
VStem: 32 70<92 111 111 306> 190 70<117 306 0 306>
LayerCount: 2
Back
Fore
SplineSet
223 421 m 1xbc
 223 392 194 359 146 359 c 0
 98 359 68 392 68 421 c 1
 111 421 l 1
 113 413 127 402 146 402 c 0
 165 402 179 413 181 421 c 1
 223 421 l 1xbc
202 0 m 1x7c
 194 38 l 1
 191 38 l 1
 175 14 150 -7 113 -7 c 0
 67 -7 32 19 32 92 c 2
 32 306 l 1
 102 306 l 1
 102 111 l 2
 102 71 116 57 142 57 c 0
 169 57 190 82 190 117 c 2xbc
 190 306 l 1
 260 306 l 1
 260 0 l 1
 202 0 l 1x7c
EndSplineSet
EndChar

StartChar: ucircumflex
Encoding: 251 251 238
Width: 292
VWidth: 659
GlyphClass: 2
Flags: MW
HStem: -7 64<129 131.5> 0 57<129 202 129 260> 286 20G<32 102 102 102 190 260 260 260> 343 78<118 120 68 175 172 175 118 224 172 172> 383 38<146 146>
VStem: 32 70<92 111 111 306> 190 70<117 306 0 306>
LayerCount: 2
Back
Fore
SplineSet
172 343 m 1xb6
 146 383 l 1x6e
 120 343 l 1
 68 343 l 1
 118 421 l 1
 175 421 l 1
 224 343 l 1
 172 343 l 1xb6
202 0 m 1
 194 38 l 1
 191 38 l 1
 175 14 150 -7 113 -7 c 0
 67 -7 32 19 32 92 c 2
 32 306 l 1
 102 306 l 1
 102 111 l 2
 102 71 116 57 142 57 c 0
 169 57 190 82 190 117 c 2xb6
 190 306 l 1
 260 306 l 1
 260 0 l 1
 202 0 l 1
EndSplineSet
EndChar

StartChar: udieresis
Encoding: 252 252 239
Width: 292
VWidth: 659
GlyphClass: 2
Flags: MW
HStem: -7 64<129 131.5> 0 57<129 260 129 202> 286 20G<32 102 102 102 190 260 260 260> 358 63<66 124 66 124 66 168 168 226>
VStem: 32 70<92 111 111 306> 66 58<358 421> 168 58<358 421> 190 70<117 306>
LayerCount: 2
Back
Fore
SplineSet
124 358 m 1xb6
 66 358 l 1
 66 421 l 1
 124 421 l 1
 124 358 l 1xb6
226 358 m 1
 168 358 l 1
 168 421 l 1
 226 421 l 1
 226 358 l 1
260 0 m 1x79
 202 0 l 1x79
 194 38 l 1
 191 38 l 1
 175 14 150 -7 113 -7 c 0
 67 -7 32 19 32 92 c 2
 32 306 l 1
 102 306 l 1
 102 111 l 2
 102 71 116 57 142 57 c 0
 169 57 190 82 190 117 c 2xb9
 190 306 l 1
 260 306 l 1
 260 0 l 1x79
EndSplineSet
EndChar

StartChar: ugrave
Encoding: 249 249 240
Width: 292
VWidth: 659
GlyphClass: 2
Flags: MW
HStem: -7 64<129 131.5> 0 57<129 260 129 202> 286 20G<32 102 102 102 190 260 260 260> 344 77<128 136 66 186 128 128>
VStem: 32 70<92 111 111 306> 190 70<117 306>
LayerCount: 2
Back
Fore
SplineSet
186 344 m 1xbc
 128 344 l 1
 65 419 l 1
 66 421 l 1
 136 421 l 1
 186 344 l 1xbc
260 0 m 1x7c
 202 0 l 1x7c
 194 38 l 1
 191 38 l 1
 175 14 150 -7 113 -7 c 0
 67 -7 32 19 32 92 c 2
 32 306 l 1
 102 306 l 1
 102 111 l 2
 102 71 116 57 142 57 c 0
 169 57 190 82 190 117 c 2xbc
 190 306 l 1
 260 306 l 1
 260 0 l 1x7c
EndSplineSet
EndChar

StartChar: uhungarumlaut
Encoding: 369 369 241
Width: 292
VWidth: 659
GlyphClass: 2
Flags: MW
HStem: -7 64<129 131.5> 0 57<129 260 129 202> 286 20G<32 102 102 102 190 260 260 260> 344 77<117 127 80 175 162 162 162 175 198 208>
VStem: 32 70<92 111 111 306> 190 70<117 306>
LayerCount: 2
Back
Fore
SplineSet
175 419 m 1xbc
 127 344 l 1
 80 344 l 1
 117 421 l 1
 175 421 l 1
 175 419 l 1xbc
257 419 m 1
 208 344 l 1
 162 344 l 1
 198 421 l 1
 256 421 l 1
 257 419 l 1
260 0 m 1x7c
 202 0 l 1x7c
 194 38 l 1
 191 38 l 1
 175 14 150 -7 113 -7 c 0
 67 -7 32 19 32 92 c 2
 32 306 l 1
 102 306 l 1
 102 111 l 2
 102 71 116 57 142 57 c 0
 169 57 190 82 190 117 c 2xbc
 190 306 l 1
 260 306 l 1
 260 0 l 1x7c
EndSplineSet
EndChar

StartChar: umacron
Encoding: 363 363 242
Width: 292
VWidth: 659
GlyphClass: 2
Flags: MW
HStem: -7 64<129 131.5> 0 57<129 202 129 260> 286 20G<32 102 102 102 190 260 260 260> 349 50<72 220 72 220>
VStem: 32 70<92 111 111 306> 190 70<117 306 0 306>
LayerCount: 2
Back
Fore
SplineSet
72 349 m 1xbc
 72 399 l 1
 220 399 l 1
 220 349 l 1
 72 349 l 1xbc
202 0 m 1x7c
 194 38 l 1
 191 38 l 1
 175 14 150 -7 113 -7 c 0
 67 -7 32 19 32 92 c 2
 32 306 l 1
 102 306 l 1
 102 111 l 2
 102 71 116 57 142 57 c 0
 169 57 190 82 190 117 c 2xbc
 190 306 l 1
 260 306 l 1
 260 0 l 1
 202 0 l 1x7c
EndSplineSet
EndChar

StartChar: uogonek
Encoding: 371 371 243
Width: 292
VWidth: 659
GlyphClass: 2
Flags: MW
HStem: -111 40<229.5 281> -103 21G<281 281> -7 64<129 131.5> 0 21G<202 211 202 202 260 260> 286 20G<32 102 102 102 190 260 260 260>
VStem: 32 70<92 111 111 306> 185 58<-48.5 -44.5> 190 70<117 306 0 306>
LayerCount: 2
Back
Fore
SplineSet
269 -71 m 2x9e
 281 -71 l 1x9e
 281 -103 l 1x5e
 268 -108 256 -111 243 -111 c 0
 216 -111 185 -98 185 -58 c 0
 185 -31 196 -15 211 0 c 1
 202 0 l 1x5d
 194 38 l 1
 191 38 l 1
 175 14 150 -7 113 -7 c 0
 67 -7 32 19 32 92 c 2
 32 306 l 1
 102 306 l 1
 102 111 l 2
 102 71 116 57 142 57 c 0
 169 57 190 82 190 117 c 2
 190 306 l 1
 260 306 l 1
 260 0 l 1x6d
 253 -8 243 -24 243 -41 c 0
 243 -56 249 -71 269 -71 c 2x9e
EndSplineSet
EndChar

StartChar: uring
Encoding: 367 367 244
Width: 292
VWidth: 659
GlyphClass: 2
Flags: MW
HStem: -7 64<129 131.5> 0 57<129 202 129 260> 286 20G<32 102 102 102 190 260 260 260> 327 29<138.5 153.5 138.5 161.5> 409 30<138.5 153.5>
VStem: 32 70<92 111 111 306> 90 29<375.5 390.5 375.5 398.5> 173 29<375.5 390.5> 190 70<117 306 0 306>
LayerCount: 2
Back
Fore
SplineSet
146 439 m 0xbb
 178 439 202 413 202 383 c 0
 202 352 177 327 146 327 c 0
 116 327 90 351 90 383 c 0
 90 414 115 439 146 439 c 0xbb
146 409 m 0
 131 409 119 398 119 383 c 0
 119 368 131 356 146 356 c 0
 161 356 173 368 173 383 c 0
 173 398 161 409 146 409 c 0
202 0 m 1x6c80
 194 38 l 1
 191 38 l 1
 175 14 150 -7 113 -7 c 0
 67 -7 32 19 32 92 c 2
 32 306 l 1
 102 306 l 1
 102 111 l 2
 102 71 116 57 142 57 c 0
 169 57 190 82 190 117 c 2xac80
 190 306 l 1
 260 306 l 1
 260 0 l 1
 202 0 l 1x6c80
EndSplineSet
EndChar

StartChar: utilde
Encoding: 361 361 245
Width: 292
VWidth: 659
GlyphClass: 2
Flags: MW
HStem: -7 64<129 131.5> 0 57<129 202 129 260> 286 20G<32 102 102 102 190 260 260 260> 350 49<179 189 176.5 207> 350 71<85 87 48 112.5 206 207> 372 49<103.5 112.5 85 115.5>
VStem: 32 70<92 111 111 306> 190 70<117 306 0 306>
LayerCount: 2
Back
Fore
SplineSet
244 421 m 1xab
 244 389 228 350 186 350 c 0xab
 172 350 159 356 147 361 c 0
 135 367 122 372 109 372 c 0xa7
 98 372 89 366 87 350 c 1
 48 350 l 1
 48 382 65 421 105 421 c 0xab
 120 421 133 415 146 410 c 0
 158 404 170 399 183 399 c 0xb3
 195 399 204 405 206 421 c 1
 244 421 l 1xab
202 0 m 1x6b
 194 38 l 1
 191 38 l 1
 175 14 150 -7 113 -7 c 0
 67 -7 32 19 32 92 c 2
 32 306 l 1
 102 306 l 1
 102 111 l 2
 102 71 116 57 142 57 c 0
 169 57 190 82 190 117 c 2xab
 190 306 l 1
 260 306 l 1
 260 0 l 1
 202 0 l 1x6b
EndSplineSet
EndChar

StartChar: v
Encoding: 118 118 246
Width: 266
VWidth: 659
GlyphClass: 2
Flags: MW
HStem: 0 83<134 137 134 168 98 137> 286 20G<3 76 76 76 193 264 264 264>
VStem: 3 261<306 306>
LayerCount: 2
Back
Fore
SplineSet
168 0 m 1
 98 0 l 1
 3 306 l 1
 76 306 l 1
 115 175 l 2
 122 154 125 132 129 111 c 0
 131 102 132 92 134 83 c 1
 137 83 l 1
 139 95 141 106 143 118 c 0
 146 137 149 156 154 175 c 2
 193 306 l 1
 264 306 l 1
 168 0 l 1
EndSplineSet
EndChar

StartChar: w
Encoding: 119 119 247
Width: 372
VWidth: 659
GlyphClass: 2
Flags: MW
HStem: 0 21G<75 146 75 75 227 297 227 227> 84 222<1 114 1 114 1 264 1 264> 222 84<184 188 184 184> 286 20G<1 71 71 71 153 223 223 223 306 371 371 371>
VStem: 1 370<306 306>
AnchorPoint: "Anchor-1" 0 0 basechar 0
AnchorPoint: "Anchor-0" 186 306 basechar 0
LayerCount: 2
Back
Fore
SplineSet
227 0 m 1x98
 196 146 l 2
 190 177 188 222 188 222 c 1
 184 222 l 1
 184 222 182 179 175 147 c 2xa8
 146 0 l 1
 75 0 l 1
 1 306 l 1
 71 306 l 1
 100 181 l 2
 109 139 112 84 112 84 c 1
 114 84 l 1
 114 84 118 136 127 180 c 2
 153 306 l 1
 223 306 l 1
 249 179 l 2
 256 150 262 84 262 84 c 1
 264 84 l 1
 264 84 273 145 279 179 c 2xc8
 306 306 l 1
 371 306 l 1
 297 0 l 1
 227 0 l 1x98
EndSplineSet
EndChar

StartChar: wacute
Encoding: 7811 7811 248
Width: 372
VWidth: 659
GlyphClass: 2
Flags: MW
HStem: 0 21G<75 146 75 75 227 297 227 227> 84 222<1 114 1 114 1 264 1 264> 222 84<184 188 184 184> 286 20G<1 71 71 71 153 223 223 223 306 371 371 371> 344 77<196 204 146 266>
VStem: 1 370<306 306>
LayerCount: 2
Back
Fore
SplineSet
267 419 m 1x9c
 204 344 l 1
 146 344 l 1
 196 421 l 1
 266 421 l 1
 267 419 l 1x9c
297 0 m 1
 227 0 l 1
 196 146 l 2
 190 177 188 222 188 222 c 1
 184 222 l 1
 184 222 182 179 175 147 c 2xac
 146 0 l 1
 75 0 l 1
 1 306 l 1
 71 306 l 1
 100 181 l 2
 109 139 112 84 112 84 c 1
 114 84 l 1
 114 84 118 136 127 180 c 2
 153 306 l 1
 223 306 l 1
 249 179 l 2
 256 150 262 84 262 84 c 1
 264 84 l 1
 264 84 273 145 279 179 c 2xcc
 306 306 l 1
 371 306 l 1
 297 0 l 1
EndSplineSet
EndChar

StartChar: wcircumflex
Encoding: 373 373 249
Width: 372
VWidth: 659
GlyphClass: 2
Flags: MW
HStem: 0 21G<75 146 75 75 227 297 227 227> 84 222<1 114 1 114 1 264 1 264> 222 84<184 188 184 184> 286 20G<1 71 71 71 153 223 223 223 306 371 371 371> 343 78<158 160 108 215 212 215 158 264 212 212> 383 38<186 186>
VStem: 1 370<306 306>
LayerCount: 2
Back
Fore
SplineSet
212 343 m 1x9a
 186 383 l 1x96
 160 343 l 1
 108 343 l 1
 158 421 l 1
 215 421 l 1
 264 343 l 1
 212 343 l 1x9a
227 0 m 1
 196 146 l 2
 190 177 188 222 188 222 c 1
 184 222 l 1
 184 222 182 179 175 147 c 2xaa
 146 0 l 1
 75 0 l 1
 1 306 l 1
 71 306 l 1
 100 181 l 2
 109 139 112 84 112 84 c 1
 114 84 l 1
 114 84 118 136 127 180 c 2
 153 306 l 1
 223 306 l 1
 249 179 l 2
 256 150 262 84 262 84 c 1
 264 84 l 1
 264 84 273 145 279 179 c 2xca
 306 306 l 1
 371 306 l 1
 297 0 l 1
 227 0 l 1
EndSplineSet
EndChar

StartChar: wdieresis
Encoding: 7813 7813 250
Width: 372
VWidth: 659
GlyphClass: 2
Flags: MW
HStem: 0 21G<75 146 75 75 227 297 227 227> 84 222<1 114 1 114 1 264 1 264> 222 84<184 188 184 184> 286 20G<1 71 71 71 153 223 223 223 306 371 371 371> 358 63<106 164 106 164 106 208 208 266>
VStem: 106 58<358 421> 208 58<358 421>
LayerCount: 2
Back
Fore
SplineSet
164 358 m 1x9e
 106 358 l 1
 106 421 l 1
 164 421 l 1
 164 358 l 1x9e
266 358 m 1
 208 358 l 1
 208 421 l 1
 266 421 l 1
 266 358 l 1
297 0 m 1
 227 0 l 1
 196 146 l 2
 190 177 188 222 188 222 c 1
 184 222 l 1
 184 222 182 179 175 147 c 2xae
 146 0 l 1
 75 0 l 1
 1 306 l 1
 71 306 l 1
 100 181 l 2
 109 139 112 84 112 84 c 1
 114 84 l 1
 114 84 118 136 127 180 c 2
 153 306 l 1
 223 306 l 1
 249 179 l 2
 256 150 262 84 262 84 c 1
 264 84 l 1
 264 84 273 145 279 179 c 2xce
 306 306 l 1
 371 306 l 1
 297 0 l 1
EndSplineSet
EndChar

StartChar: wgrave
Encoding: 7809 7809 251
Width: 372
VWidth: 659
GlyphClass: 2
Flags: MW
HStem: 0 21G<75 146 75 75 227 297 227 227> 84 222<1 114 1 114 1 264 1 264> 222 84<184 188 184 184> 286 20G<1 71 71 71 153 223 223 223 306 371 371 371> 344 77<168 176 106 226 168 168>
VStem: 1 370<306 306>
LayerCount: 2
Back
Fore
SplineSet
226 344 m 1x9c
 168 344 l 1
 105 419 l 1
 106 421 l 1
 176 421 l 1
 226 344 l 1x9c
297 0 m 1
 227 0 l 1
 196 146 l 2
 190 177 188 222 188 222 c 1
 184 222 l 1
 184 222 182 179 175 147 c 2xac
 146 0 l 1
 75 0 l 1
 1 306 l 1
 71 306 l 1
 100 181 l 2
 109 139 112 84 112 84 c 1
 114 84 l 1
 114 84 118 136 127 180 c 2
 153 306 l 1
 223 306 l 1
 249 179 l 2
 256 150 262 84 262 84 c 1
 264 84 l 1
 264 84 273 145 279 179 c 2xcc
 306 306 l 1
 371 306 l 1
 297 0 l 1
EndSplineSet
EndChar

StartChar: x
Encoding: 120 120 252
Width: 266
VWidth: 659
GlyphClass: 2
Flags: MW
HStem: 0 21G<3 78 3 3 184 263 184 184> 286 20G<10 89 89 89 183 258 258 258>
VStem: 3 260<0 0>
LayerCount: 2
Back
Fore
SplineSet
175 160 m 1
 263 0 l 1
 184 0 l 1
 132 101 l 1
 129 101 l 1
 78 0 l 1
 3 0 l 1
 92 158 l 1
 10 306 l 1
 89 306 l 1
 134 217 l 1
 138 217 l 1
 183 306 l 1
 258 306 l 1
 175 160 l 1
EndSplineSet
EndChar

StartChar: y
Encoding: 121 121 253
Width: 266
VWidth: 659
GlyphClass: 2
Flags: MW
HStem: -106 59<57 67 26 100.5> -101 21G<26 26> 286 20G<3 76 76 76 193 264 264 264>
VStem: 3 261<306 306>
AnchorPoint: "Anchor-1" 0 0 basechar 0
AnchorPoint: "Anchor-0" 133 306 basechar 0
LayerCount: 2
Back
Fore
SplineSet
179 16 m 2xb0
 160 -51 130 -106 71 -106 c 0xb0
 43 -106 26 -101 26 -101 c 1x70
 26 -47 l 1
 57 -47 l 2
 77 -47 96 -34 104 0 c 1
 3 306 l 1
 76 306 l 1
 123 163 l 2
 128 145 130 128 133 111 c 0
 135 101 136 92 138 83 c 1
 141 83 l 1
 143 92 144 101 145 110 c 0
 148 127 151 145 156 162 c 2
 193 306 l 1
 264 306 l 1
 179 16 l 2xb0
EndSplineSet
EndChar

StartChar: yacute
Encoding: 253 253 254
Width: 266
VWidth: 659
GlyphClass: 2
Flags: MW
HStem: -106 59<57 67 26 100.5> -101 21G<26 26> 286 20G<3 76 76 76 193 264 264 264> 344 77<143 150 93 213>
VStem: 3 261<306 306>
LayerCount: 2
Back
Fore
SplineSet
214 419 m 1xb8
 150 344 l 1
 93 344 l 1
 143 421 l 1
 213 421 l 1
 214 419 l 1xb8
179 16 m 2
 160 -51 130 -106 71 -106 c 0xb8
 43 -106 26 -101 26 -101 c 1x78
 26 -47 l 1
 57 -47 l 2
 77 -47 96 -34 104 0 c 1
 3 306 l 1
 76 306 l 1
 123 163 l 2
 128 145 130 128 133 111 c 0
 135 101 136 92 138 83 c 1
 141 83 l 1
 143 92 144 101 145 110 c 0
 148 127 151 145 156 162 c 2
 193 306 l 1
 264 306 l 1
 179 16 l 2
EndSplineSet
EndChar

StartChar: ycircumflex
Encoding: 375 375 255
Width: 266
VWidth: 659
GlyphClass: 2
Flags: MW
HStem: -106 59<57 67 26 100.5> -101 21G<26 26> 286 20G<3 76 76 76 193 264 264 264> 343 78<105 107 55 162 159 162 105 212 159 159> 383 38<133 133>
VStem: 3 261<306 306>
LayerCount: 2
Back
Fore
SplineSet
159 343 m 1xb4
 133 383 l 1xac
 107 343 l 1
 55 343 l 1
 105 421 l 1
 162 421 l 1
 212 343 l 1
 159 343 l 1xb4
179 16 m 2
 160 -51 130 -106 71 -106 c 0xb4
 43 -106 26 -101 26 -101 c 1x74
 26 -47 l 1
 57 -47 l 2
 77 -47 96 -34 104 0 c 1
 3 306 l 1
 76 306 l 1
 123 163 l 2
 128 145 130 128 133 111 c 0
 135 101 136 92 138 83 c 1
 141 83 l 1
 143 92 144 101 145 110 c 0
 148 127 151 145 156 162 c 2
 193 306 l 1
 264 306 l 1
 179 16 l 2
EndSplineSet
EndChar

StartChar: ydieresis
Encoding: 255 255 256
Width: 266
VWidth: 659
GlyphClass: 2
Flags: MW
HStem: -106 59<57 67 26 100.5> -101 21G<26 26> 286 20G<3 76 76 76 193 264 264 264> 358 63<53 111 53 111 53 155 155 214>
VStem: 53 58<358 421> 155 59<358 421>
LayerCount: 2
Back
Fore
SplineSet
111 358 m 1xbc
 53 358 l 1
 53 421 l 1
 111 421 l 1
 111 358 l 1xbc
214 358 m 1
 155 358 l 1
 155 421 l 1
 214 421 l 1
 214 358 l 1
179 16 m 2
 160 -51 130 -106 71 -106 c 0xbc
 43 -106 26 -101 26 -101 c 1x7c
 26 -47 l 1
 57 -47 l 2
 77 -47 96 -34 104 0 c 1
 3 306 l 1
 76 306 l 1
 123 163 l 2
 128 145 130 128 133 111 c 0
 135 101 136 92 138 83 c 1
 141 83 l 1
 143 92 144 101 145 110 c 0
 148 127 151 145 156 162 c 2
 193 306 l 1
 264 306 l 1
 179 16 l 2
EndSplineSet
EndChar

StartChar: ygrave
Encoding: 7923 7923 257
Width: 266
VWidth: 659
GlyphClass: 2
Flags: MW
HStem: -106 59<57 67 26 100.5> -101 21G<26 26> 286 20G<3 76 76 76 193 264 264 264> 344 77<115 123 53 173 115 115>
VStem: 3 261<306 306>
LayerCount: 2
Back
Fore
SplineSet
173 344 m 1xb8
 115 344 l 1
 53 419 l 1
 53 421 l 1
 123 421 l 1
 173 344 l 1xb8
179 16 m 2
 160 -51 130 -106 71 -106 c 0xb8
 43 -106 26 -101 26 -101 c 1x78
 26 -47 l 1
 57 -47 l 2
 77 -47 96 -34 104 0 c 1
 3 306 l 1
 76 306 l 1
 123 163 l 2
 128 145 130 128 133 111 c 0
 135 101 136 92 138 83 c 1
 141 83 l 1
 143 92 144 101 145 110 c 0
 148 127 151 145 156 162 c 2
 193 306 l 1
 264 306 l 1
 179 16 l 2
EndSplineSet
EndChar

StartChar: z
Encoding: 122 122 258
Width: 239
VWidth: 659
GlyphClass: 2
Flags: MW
HStem: 0 59<105 229 105 229> 248 58<18 129 18 224>
VStem: 11 218<0 30 30 30> 18 206<277 306 277 306 277 306>
AnchorPoint: "Anchor-1" 0 0 basechar 0
AnchorPoint: "Anchor-0" 119 306 basechar 0
LayerCount: 2
Back
Fore
SplineSet
105 59 m 1xe0
 229 59 l 1
 229 0 l 1
 11 0 l 1
 11 30 l 1xe0
 129 248 l 1
 18 248 l 1
 18 306 l 1
 224 306 l 1
 224 277 l 1xd0
 105 59 l 1xe0
EndSplineSet
EndChar

StartChar: zacute
Encoding: 378 378 259
Width: 239
VWidth: 659
GlyphClass: 2
Flags: MW
HStem: 0 59<105 229 105 229> 248 58<18 129 18 224> 344 77<129 137 79 199>
VStem: 11 218<0 30 30 30>
LayerCount: 2
Back
Fore
SplineSet
200 419 m 1
 137 344 l 1
 79 344 l 1
 129 421 l 1
 199 421 l 1
 200 419 l 1
224 277 m 1
 105 59 l 1
 229 59 l 1
 229 0 l 1
 11 0 l 1
 11 30 l 1
 129 248 l 1
 18 248 l 1
 18 306 l 1
 224 306 l 1
 224 277 l 1
EndSplineSet
EndChar

StartChar: zcaron
Encoding: 382 382 260
Width: 239
VWidth: 659
GlyphClass: 2
Flags: MW
HStem: 0 59<105 229 105 229> 248 58<18 129 18 224> 343 78<92 92 92 94 146 148>
VStem: 11 218<0 30 30 30> 18 206<277 306 277 306 277 306>
LayerCount: 2
Back
Fore
SplineSet
92 343 m 1xf0
 42 421 l 1
 94 421 l 1
 120 381 l 1
 146 421 l 1
 198 421 l 1
 148 343 l 1
 92 343 l 1xf0
105 59 m 1
 229 59 l 1
 229 0 l 1
 11 0 l 1
 11 30 l 1xf0
 129 248 l 1
 18 248 l 1
 18 306 l 1
 224 306 l 1
 224 277 l 1xe8
 105 59 l 1
EndSplineSet
EndChar

StartChar: zdotaccent
Encoding: 380 380 261
Width: 239
VWidth: 659
GlyphClass: 2
Flags: MW
HStem: 0 59<105 229 105 229> 248 58<18 129 18 224> 354 67<88 151 88 151>
VStem: 11 218<0 30 30 30> 18 206<277 306 277 306 277 306> 88 63<354 421 354 421>
LayerCount: 2
Back
Fore
SplineSet
88 354 m 1xe4
 88 421 l 1
 151 421 l 1
 151 354 l 1
 88 354 l 1xe4
105 59 m 1
 229 59 l 1
 229 0 l 1
 11 0 l 1
 11 30 l 1xf0
 129 248 l 1
 18 248 l 1
 18 306 l 1
 224 306 l 1
 224 277 l 1xe8
 105 59 l 1
EndSplineSet
EndChar

StartChar: uniFB01
Encoding: 64257 64257 262
Width: 292
VWidth: 659
GlyphClass: 3
Flags: MW
HStem: 0 21G<36 106 36 36 190 260 190 190> 248 58<5 36 5 36 106 159> 358 63<190 260 190 260> 367 54<130 260> 367 59<80.5 130 80.5 159>
VStem: 36 70<0 248 0 248 306 342> 190 70<0 306 0 306 358 421>
LayerCount: 2
Back
Fore
SplineSet
108 426 m 0xce
 125 426 148 422 159 419 c 1xce
 159 367 l 1
 130 367 l 2
 115 367 106 358 106 342 c 2xd6
 106 306 l 1
 159 306 l 1
 159 248 l 1
 106 248 l 1
 106 0 l 1
 36 0 l 1
 36 248 l 1
 5 248 l 1
 5 306 l 1
 36 306 l 1
 36 344 l 2
 36 384 53 426 108 426 c 0xce
190 358 m 1xe6
 190 421 l 1
 260 421 l 1
 260 358 l 1
 190 358 l 1xe6
190 0 m 1
 190 306 l 1
 260 306 l 1
 260 0 l 1
 190 0 l 1
EndSplineSet
Ligature2: "'liga' Standard Ligatures lookup 15 subtable" f i
EndChar

StartChar: uniFB02
Encoding: 64258 64258 263
Width: 292
VWidth: 659
GlyphClass: 3
Flags: MW
HStem: 0 21G<36 106 36 36 190 260 190 190> 248 58<5 36 5 36 106 159> 367 54<130 260> 367 59<80.5 130 80.5 159>
VStem: 36 70<0 248 0 248 306 342> 190 70<0 421 0 421>
LayerCount: 2
Back
Fore
SplineSet
108 426 m 0xdc
 125 426 148 422 159 419 c 1xdc
 159 367 l 1
 130 367 l 2
 115 367 106 358 106 342 c 2xec
 106 306 l 1
 159 306 l 1
 159 248 l 1
 106 248 l 1
 106 0 l 1
 36 0 l 1
 36 248 l 1
 5 248 l 1
 5 306 l 1
 36 306 l 1
 36 344 l 2
 36 384 53 426 108 426 c 0xdc
190 0 m 1xec
 190 421 l 1
 260 421 l 1
 260 0 l 1
 190 0 l 1xec
EndSplineSet
Ligature2: "'liga' Standard Ligatures lookup 15 subtable" f l
EndChar

StartChar: ordfeminine
Encoding: 170 170 264
Width: 177
VWidth: 659
GlyphClass: 2
Flags: MW
HStem: 212 41<72.5 74> 308 34<95.5 108> 387 41<80.5 97>
VStem: 8 51<267 287 267 297.5> 18 49<362 368 362 370 362 387.5> 108 50<296 308 308 308 342 364 364 366>
LayerCount: 2
Back
Fore
SplineSet
88 428 m 0xec
 136 428 158 405 158 366 c 2
 158 268 l 2
 158 258 163 254 169 254 c 2
 179 254 l 1
 179 217 l 1
 179 217 178 217 178 217 c 2
 172 215 164 212 151 212 c 0
 132 212 119 223 115 239 c 1
 113 239 l 1
 101 222 88 212 60 212 c 0
 41 212 8 221 8 270 c 0xf4
 8 325 49 342 108 342 c 1
 108 364 l 2
 108 376 105 387 89 387 c 0
 72 387 67 376 67 368 c 2
 67 362 l 1
 18 362 l 1
 18 370 l 2
 18 405 45 428 88 428 c 0xec
108 308 m 1xf4
 83 308 59 301 59 273 c 0
 59 261 65 253 80 253 c 0
 100 253 108 273 108 296 c 2
 108 308 l 1xf4
EndSplineSet
EndChar

StartChar: ordmasculine
Encoding: 186 186 265
Width: 174
VWidth: 659
GlyphClass: 2
Flags: MW
HStem: 211 43<77 99.5 77 116> 385 43<77 99.5>
VStem: 6 52<292.5 312 312 327 292.5 356.5> 119 52<312 327 327 345.5>
LayerCount: 2
Back
Fore
SplineSet
88 428 m 0
 144 428 171 394 171 319 c 0
 171 244 144 211 88 211 c 0
 33 211 6 244 6 319 c 0
 6 394 33 428 88 428 c 0
88 385 m 0
 66 385 58 364 58 327 c 2
 58 312 l 2
 58 273 66 254 88 254 c 0
 111 254 119 273 119 312 c 2
 119 327 l 2
 119 364 111 385 88 385 c 0
EndSplineSet
EndChar

StartChar: uni207F
Encoding: 8319 8319 266
Width: 189
VWidth: 659
GlyphClass: 2
Flags: MW
HStem: 217 206<18 60 18 68 18 60 18 171 18 121> 378 20G<65 67 67 67> 383 40<18 105.5> 383 45<105 105.5>
VStem: 18 50<217 344 217 423> 121 50<217 349 349 361 217 361.5>
LayerCount: 2
Back
Fore
SplineSet
117 428 m 0x1c
 148 428 171 410 171 361 c 2x1c
 171 217 l 1
 121 217 l 1x8c
 121 349 l 2
 121 374 113 383 98 383 c 0
 80 383 68 366 68 344 c 2x2c
 68 217 l 1
 18 217 l 1x8c
 18 423 l 1
 60 423 l 1x2c
 65 398 l 1
 67 398 l 1x4c
 77 414 93 428 117 428 c 0x1c
EndSplineSet
EndChar

StartChar: Delta
Encoding: 916 916 267
Width: 343
VWidth: 659
GlyphClass: 2
Flags: MW
HStem: 0 67<90 244 90 331> 315 84<166 166 166 168> 379 20G<126 213 213 213>
VStem: 7 324<0 32 0 32>
LayerCount: 2
Back
Fore
SplineSet
331 32 m 1xb0
 331 0 l 1
 7 0 l 1
 7 32 l 1
 126 399 l 1
 213 399 l 1
 331 32 l 1xb0
166 315 m 1xd0
 90 67 l 1
 244 67 l 1
 168 315 l 1
 166 315 l 1xd0
EndSplineSet
Substitution2: "'mgrk' Mathematical Greek lookup 40 subtable" uni2206
Substitution2: "'aalt' Access All Alternates lookup 0 subtable" uni2206
Position2: "'cpsp' Capital Spacing lookup 0 subtable" dx=5 dy=0 dh=10 dv=0
EndChar

StartChar: Omega
Encoding: 937 937 268
Width: 447
VWidth: 659
GlyphClass: 2
Flags: MW
HStem: 0 67<57 72 72 74 57 201 57 72 374 389> 343 64<193 253>
VStem: 57 76<0 173 67 173 167 173 173 214 139 270.5> 312 77<173 214 214 254>
LayerCount: 2
Back
Fore
SplineSet
223 407 m 0
 326 407 389 341 389 200 c 0
 389 134 366 88 331 58 c 1
 338 59 346 61 352 63 c 0
 361 65 369 67 374 67 c 2
 389 67 l 1
 389 0 l 1
 245 0 l 1
 245 47 l 1
 290 59 312 104 312 173 c 2
 312 214 l 2
 312 294 283 343 223 343 c 0
 163 343 133 294 133 214 c 2
 133 173 l 2
 133 105 157 60 201 47 c 1
 201 0 l 1
 57 0 l 1
 57 67 l 1
 72 67 l 2
 76 67 84 65 93 63 c 0
 100 61 108 59 115 58 c 1
 80 88 57 134 57 200 c 0
 57 341 120 407 223 407 c 0
EndSplineSet
Substitution2: "'mgrk' Mathematical Greek lookup 40 subtable" uni2126
Substitution2: "'aalt' Access All Alternates lookup 0 subtable" uni2126
Position2: "'cpsp' Capital Spacing lookup 0 subtable" dx=5 dy=0 dh=10 dv=0
EndChar

StartChar: mu
Encoding: 956 956 269
Width: 292
VWidth: 659
GlyphClass: 2
Flags: MW
HStem: -101 21G<32 102 32 32> -7 64<129 140.5> -3 21G<102 102> 0 57<129 202 129 260> 286 20G<32 102 102 102 190 260 260 260>
VStem: 32 70<-101 -3 91 111 111 306> 190 70<117 306 0 306>
LayerCount: 2
Back
Fore
SplineSet
202 0 m 1x9e
 194 38 l 1
 191 38 l 1
 178 14 156 -7 125 -7 c 0xce
 117 -7 109 -5 102 -3 c 1xae
 102 -101 l 1
 32 -101 l 1
 32 306 l 1
 102 306 l 1
 102 111 l 2
 102 71 116 57 142 57 c 0
 169 57 190 82 190 117 c 2
 190 306 l 1
 260 306 l 1
 260 0 l 1
 202 0 l 1x9e
EndSplineSet
Substitution2: "'mgrk' Mathematical Greek lookup 40 subtable" uni00B5
Substitution2: "'aalt' Access All Alternates lookup 0 subtable" uni00B5
EndChar

StartChar: pi
Encoding: 960 960 270
Width: 366
VWidth: 659
GlyphClass: 2
Flags: MW
HStem: 0 21G<44 113 44 44 224 293 224 224> 248 58<63.5 339 152 215 152 152 285 334 285 285>
VStem: 82 70<248 248> 215 70<86 91 91 248>
LayerCount: 2
Back
Fore
SplineSet
285 248 m 1
 285 91 l 2
 285 43 289 18 293 0 c 1
 224 0 l 1
 219 9 215 39 215 86 c 2
 215 248 l 1
 152 248 l 1
 148 178 132 48 113 0 c 1
 44 0 l 1
 63 58 80 178 82 248 c 1
 45 248 32 245 18 240 c 1
 12 289 l 1
 27 300 55 306 105 306 c 2
 339 306 l 1
 334 248 l 1
 285 248 l 1
EndSplineSet
EndChar

StartChar: uni0904
Encoding: 2308 2308 271
Width: 421
VWidth: 659
GlyphClass: 2
Flags: MW
HStem: 0 21G<305 375 305 305> 28 58<115 136 115 156.5> 144 61<233 305 233 233> 191 58<100 119 100 120> 295 112<96.5 98 27 156> 338 61<252 305 252 306 376 428> 349 58<116.5 135.5> 453 60<119 287 150 287>
VStem: 18 74<114 125> 25 73<295 345.5> 61 70<530 545 524.5 545> 100 92<222 224 222 249 222 249> 154 73<289 309 273 322> 159 74<125 144 95 146 95 164> 305 70<0 144 144 144 205 338 0 338>
AnchorPoint: "Anchor-7" 340 0 basechar 0
AnchorPoint: "Anchor-6" 217 0 basechar 0
AnchorPoint: "Anchor-5" 13 40 basechar 0
AnchorPoint: "Anchor-3" 340 399 basechar 0
AnchorPoint: "Anchor-2" 211 399 basechar 0
LayerCount: 2
Back
Fore
SplineSet
376 399 m 1xa586
 428 399 l 1
 428 338 l 1
 375 338 l 1
 375 0 l 1
 305 0 l 1
 305 144 l 1
 233 144 l 1xa586
 233 125 l 2
 233 65 189 28 124 28 c 0
 59 28 18 65 18 122 c 0
 18 128 19 134 20 140 c 2
 20 140 20 141 20 142 c 2
 92 142 l 1
 92 127 l 2
 92 101 104 86 126 86 c 0
 146 86 159 98 159 125 c 2
 159 146 l 2
 159 182 140 191 119 191 c 2x5586
 100 191 l 1
 100 249 l 1x9592
 120 249 l 2
 140 249 154 262 154 289 c 2
 154 309 l 2
 154 335 145 349 126 349 c 0
 107 349 98 334 98 307 c 2x934a
 98 295 l 1
 27 295 l 1xa946
 26 303 25 311 25 318 c 0
 25 373 67 407 126 407 c 0
 186 407 227 372 227 309 c 2
 227 289 l 2xa34a
 227 257 212 237 192 224 c 1
 192 222 l 1
 200 218 208 213 214 205 c 1xa592
 305 205 l 1
 305 338 l 1
 252 338 l 1
 252 399 l 1
 306 399 l 1
 306 436 l 2
 306 448 300 453 287 453 c 2
 150 453 l 2
 88 453 61 476 61 530 c 2
 61 545 l 1
 131 545 l 1
 131 530 l 2
 131 519 136 513 150 513 c 2xa526
 287 513 l 2
 349 513 376 490 376 436 c 2
 376 399 l 1xa586
EndSplineSet
EndChar

StartChar: uni0972
Encoding: 2418 2418 272
Width: 421
VWidth: 659
GlyphClass: 2
Flags: MW
HStem: 0 21G<305 375 305 305> 28 58<115 136 115 156.5> 144 61<233 305 233 233> 191 58<100 119 100 120> 295 112<96.5 98 27 156> 338 61<252 305 252 428 375 428 375 375> 349 58<116.5 135.5> 418 50<198 224.5 198 244>
VStem: 18 74<114 125> 25 73<295 345.5> 100 92<222 224 222 249 222 249> 106 60<503.5 523 503.5 523> 154 73<289 309 273 322> 159 74<125 144 95 146 95 164> 255 62<503.5 523> 305 70<0 144 144 144 205 338 0 338>
AnchorPoint: "Anchor-7" 340 0 basechar 0
AnchorPoint: "Anchor-6" 217 0 basechar 0
AnchorPoint: "Anchor-5" 13 40 basechar 0
AnchorPoint: "Anchor-3" 340 399 basechar 0
AnchorPoint: "Anchor-2" 211 399 basechar 0
LayerCount: 2
Back
Fore
SplineSet
317 523 m 1xa592
 317 461 277 418 211 418 c 0
 146 418 106 461 106 523 c 1
 166 523 l 1
 166 484 185 468 211 468 c 0
 238 468 255 484 255 523 c 1
 317 523 l 1xa592
428 399 m 1xa4a1
 428 338 l 1
 375 338 l 1
 375 0 l 1
 305 0 l 1
 305 144 l 1
 233 144 l 1xa485
 233 125 l 2
 233 65 189 28 124 28 c 0
 59 28 18 65 18 122 c 0
 18 128 19 134 20 140 c 2
 20 140 20 141 20 142 c 2
 92 142 l 1
 92 127 l 2
 92 101 104 86 126 86 c 0
 146 86 159 98 159 125 c 2
 159 146 l 2
 159 182 140 191 119 191 c 2x5485
 100 191 l 1
 100 249 l 1x94a1
 120 249 l 2
 140 249 154 262 154 289 c 2
 154 309 l 2
 154 335 145 349 126 349 c 0
 107 349 98 334 98 307 c 2x9249
 98 295 l 1
 27 295 l 1xa845
 26 303 25 311 25 318 c 0
 25 373 67 407 126 407 c 0
 186 407 227 372 227 309 c 2
 227 289 l 2xa249
 227 257 212 237 192 224 c 1
 192 222 l 1
 200 218 208 213 214 205 c 1
 305 205 l 1
 305 338 l 1
 252 338 l 1
 252 399 l 1
 428 399 l 1xa4a1
EndSplineSet
EndChar

StartChar: uni0905
Encoding: 2309 2309 273
Width: 421
VWidth: 659
GlyphClass: 2
Flags: MW
HStem: 0 21G<305 375 305 305> 28 58<115 136 115 156.5> 144 61<233 305 233 233> 191 58<100 119 100 120> 295 112<96.5 98 27 156> 338 61<252 305 252 428 375 428 375 375> 349 58<116.5 135.5>
VStem: 18 74<114 125> 25 73<295 345.5> 100 92<222 224 222 249 222 249> 154 73<289 309 273 322> 159 74<125 144 95 146 95 164> 305 70<0 144 144 144 205 338 0 338>
AnchorPoint: "Anchor-7" 340 0 basechar 0
AnchorPoint: "Anchor-6" 217 0 basechar 0
AnchorPoint: "Anchor-5" 13 40 basechar 0
AnchorPoint: "Anchor-3" 340 399 basechar 0
AnchorPoint: "Anchor-2" 211 399 basechar 0
LayerCount: 2
Back
Fore
SplineSet
428 399 m 1xa518
 428 338 l 1
 375 338 l 1
 375 0 l 1
 305 0 l 1
 305 144 l 1
 233 144 l 1xa518
 233 125 l 2
 233 65 189 28 124 28 c 0
 59 28 18 65 18 122 c 0
 18 128 19 134 20 140 c 2
 20 140 20 141 20 142 c 2
 92 142 l 1
 92 127 l 2
 92 101 104 86 126 86 c 0
 146 86 159 98 159 125 c 2
 159 146 l 2
 159 182 140 191 119 191 c 2x5518
 100 191 l 1
 100 249 l 1x9548
 120 249 l 2
 140 249 154 262 154 289 c 2
 154 309 l 2
 154 335 145 349 126 349 c 0
 107 349 98 334 98 307 c 2x92a8
 98 295 l 1
 27 295 l 1xa898
 26 303 25 311 25 318 c 0
 25 373 67 407 126 407 c 0
 186 407 227 372 227 309 c 2
 227 289 l 2xa2a8
 227 257 212 237 192 224 c 1
 192 222 l 1
 200 218 208 213 214 205 c 1xa548
 305 205 l 1
 305 338 l 1
 252 338 l 1
 252 399 l 1
 428 399 l 1xa518
EndSplineSet
EndChar

